<?xml version="1.0" standalone="no"?>
<!DOCTYPE svg PUBLIC "-//W3C//DTD SVG 20010904//EN"
 "http://www.w3.org/TR/2001/REC-SVG-20010904/DTD/svg10.dtd">
<svg version="1.0" xmlns="http://www.w3.org/2000/svg"
 width="1600.000000pt" height="1600.000000pt" viewBox="0 0 1600.000000 1600.000000"
 preserveAspectRatio="xMidYMid meet">
<metadata>
Created by potrace 1.11, written by Peter Selinger 2001-2013
</metadata>
<g transform="translate(0.000000,1600.000000) scale(0.100000,-0.100000)"
fill="#000000" stroke="none">
<path d="M2100 10548 c-96 -49 -256 -131 -355 -181 -99 -51 -182 -93 -185 -95
-3 -2 -5 -167 -5 -367 -1 -322 1 -362 15 -356 21 9 251 126 405 205 72 38 169
88 218 113 48 24 87 48 88 51 4 31 3 715 -1 717 -3 1 -84 -38 -180 -87z"/>
<path d="M3775 9884 c-16 -9 -124 -64 -240 -122 -115 -59 -211 -110 -213 -114
-2 -5 -12 -8 -23 -8 -10 0 -19 -4 -19 -10 0 -5 -9 -10 -19 -10 -11 0 -21 -4
-23 -9 -1 -5 -10 -11 -18 -13 -8 -2 -17 -5 -20 -8 -3 -3 -31 -18 -62 -34 -32
-16 -58 -31 -57 -35 0 -3 66 -39 147 -79 81 -40 154 -77 162 -82 8 -5 33 -18
55 -28 22 -10 110 -55 196 -99 l156 -81 309 159 c170 88 335 172 367 187 31
15 57 29 57 32 0 3 -24 16 -53 30 -125 61 -364 185 -389 203 -16 10 -28 16
-28 14 0 -2 -51 22 -112 54 -140 73 -137 72 -173 53z"/>
<path d="M8150 9789 c-118 -61 -282 -144 -363 -186 -82 -42 -145 -79 -140 -83
4 -5 93 -51 197 -104 104 -53 195 -101 202 -107 8 -6 14 -8 14 -4 0 4 6 3 13
-3 6 -5 73 -41 148 -79 l136 -69 54 26 c30 15 180 91 334 170 154 80 295 151
313 159 17 8 32 18 32 21 0 3 -15 13 -32 21 -18 8 -139 69 -268 136 -286 147
-417 213 -422 213 -1 -1 -100 -50 -218 -111z"/>
<path d="M2244 9864 c-16 -9 -112 -59 -214 -111 -102 -52 -189 -99 -194 -104
-6 -5 -18 -9 -27 -9 -10 0 -19 -3 -21 -7 -1 -5 -55 -34 -118 -66 l-115 -58 -1
-363 0 -363 46 22 c105 50 165 80 170 85 3 3 79 43 170 89 91 46 204 104 253
128 67 35 87 50 88 66 4 102 3 700 -2 702 -3 2 -19 -3 -35 -11z"/>
<path d="M2310 9818 c-1 -59 -1 -484 0 -608 l0 -55 47 -25 c26 -14 50 -25 53
-25 3 0 11 -4 18 -9 14 -8 121 -64 438 -226 86 -44 160 -80 163 -80 4 0 7 162
7 361 l-1 361 -195 100 c-107 54 -258 132 -335 171 -76 40 -152 78 -167 85
l-28 12 0 -62z"/>
<path d="M6765 9846 c-33 -18 -190 -99 -350 -180 -159 -82 -292 -150 -295
-153 -7 -7 -6 -723 1 -723 3 0 49 22 100 48 52 27 211 109 354 182 143 73 262
134 264 136 3 3 5 683 2 717 -1 11 -12 8 -76 -27z"/>
<path d="M6871 9517 l0 -363 42 -22 c23 -12 47 -22 54 -22 6 0 13 -3 15 -7 2
-5 55 -34 118 -66 63 -32 198 -100 299 -152 102 -52 188 -95 192 -95 13 0 9
711 -4 724 -7 6 -73 41 -147 79 -74 37 -231 117 -349 177 -117 61 -215 110
-217 110 -2 0 -3 -163 -3 -363z"/>
<path d="M11160 9758 c-129 -66 -280 -143 -335 -171 -55 -28 -111 -58 -125
-68 l-25 -17 1 -351 c0 -193 3 -353 7 -357 3 -3 36 10 74 29 68 34 387 198
558 286 l90 46 0 363 c0 199 -2 362 -5 362 -3 -1 -111 -55 -240 -122z"/>
<path d="M11434 9517 l0 -364 71 -34 c38 -19 72 -37 75 -40 3 -3 21 -11 40
-19 19 -8 37 -16 40 -19 12 -14 493 -252 498 -247 8 9 9 689 0 707 -4 9 -76
51 -160 94 -84 43 -244 124 -355 181 -111 57 -203 104 -205 104 -2 0 -3 -164
-4 -363z"/>
<path d="M15833 9814 c-197 -102 -198 -102 -204 -100 -4 0 -15 -6 -25 -14 -11
-8 -96 -53 -190 -100 l-172 -85 -1 -362 c-1 -200 2 -363 6 -363 5 0 94 44 199
98 105 53 265 135 356 181 l165 85 1 363 c0 200 -1 363 -3 363 -2 0 -61 -30
-132 -66z"/>
<path d="M4519 9487 c-25 -12 -54 -28 -63 -36 -9 -7 -16 -10 -16 -6 0 4 -6 3
-12 -3 -7 -5 -134 -72 -283 -147 -148 -76 -278 -144 -288 -150 -16 -12 -13
-16 39 -44 32 -17 63 -31 70 -31 7 0 14 -3 16 -7 2 -5 66 -39 143 -78 77 -38
143 -74 146 -78 3 -5 9 -8 13 -8 6 1 135 -63 234 -117 l53 -28 92 45 c51 25
94 49 95 54 2 4 12 7 22 7 10 0 20 3 22 8 2 4 52 32 113 62 60 30 144 74 187
97 43 22 78 39 78 36 0 -4 8 0 18 8 9 8 38 26 65 39 26 13 46 24 45 25 -2 2
-147 76 -323 165 -176 90 -340 174 -364 187 -52 27 -45 27 -102 0z"/>
<path d="M9093 9490 c-18 -11 -33 -17 -33 -14 0 4 -6 2 -12 -3 -11 -9 -233
-124 -569 -295 l-86 -44 234 -119 c129 -65 236 -122 239 -126 2 -4 15 -10 30
-13 14 -4 31 -11 37 -17 7 -5 55 -31 107 -57 l95 -48 45 24 c25 13 161 83 302
155 384 196 389 199 386 202 -3 2 -359 185 -628 322 -58 29 -107 53 -110 53
-3 0 -20 -9 -37 -20z"/>
<path d="M1295 9376 c-121 -62 -283 -145 -361 -185 l-141 -72 0 -355 c0 -195
4 -357 8 -360 9 -5 290 134 300 149 3 5 9 8 13 8 5 -1 143 67 344 170 34 17
62 34 62 38 3 37 2 712 -1 715 -2 3 -103 -46 -224 -108z"/>
<path d="M3070 9128 l0 -363 193 -99 c105 -54 269 -138 363 -186 l171 -87 -1
364 -1 365 -200 102 c-110 56 -265 136 -345 176 -80 41 -147 77 -150 80 -3 3
-11 6 -17 8 -10 1 -13 -76 -13 -360z"/>
<path d="M5890 9398 c-96 -50 -256 -132 -355 -183 l-180 -93 0 -364 -1 -364
151 77 c82 43 246 127 364 187 l214 110 0 358 c0 208 -4 359 -9 360 -5 1 -88
-38 -184 -88z"/>
<path d="M7632 9130 c0 -255 4 -362 12 -368 6 -5 94 -51 196 -102 102 -52 193
-101 204 -109 10 -9 19 -14 20 -11 1 3 35 -13 76 -35 41 -22 77 -40 80 -40 3
0 16 -7 30 -15 14 -7 44 -24 68 -36 l42 -21 1 336 c1 381 1 380 -5 389 -3 6
-134 75 -226 121 -8 4 -31 16 -50 26 -19 9 -126 64 -238 121 -112 57 -205 104
-207 104 -2 0 -3 -162 -3 -360z"/>
<path d="M10435 9387 c-110 -57 -270 -138 -355 -182 -85 -43 -157 -80 -160
-82 -2 -3 -5 -168 -5 -368 l0 -363 244 125 c134 69 298 153 365 187 l121 61 0
363 c0 199 -2 362 -5 362 -3 0 -95 -47 -205 -103z"/>
<path d="M12197 9483 c-2 -5 -3 -168 -3 -363 l1 -354 110 -57 c61 -30 222
-113 358 -183 137 -70 251 -125 255 -122 10 11 8 698 -3 712 -11 14 -68 44
-430 229 -137 70 -254 131 -259 136 -12 11 -24 11 -29 2z"/>
<path d="M14965 9370 c-126 -65 -286 -147 -353 -181 -68 -34 -126 -68 -129
-75 -3 -7 -6 -171 -6 -364 -2 -261 1 -350 10 -350 11 0 73 30 83 40 10 10 238
120 248 120 6 0 12 4 14 8 3 8 61 38 334 176 l41 21 0 363 c0 199 -3 362 -6
361 -3 0 -109 -53 -236 -119z"/>
<path d="M2310 9080 c-1 -22 -1 -125 -1 -230 0 -104 0 -250 1 -324 l0 -134 68
-34 c37 -19 193 -99 347 -178 154 -78 284 -147 289 -151 6 -5 13 -9 16 -9 3 0
6 164 6 364 l0 364 -121 62 c-66 34 -145 75 -175 91 -30 16 -60 29 -66 29 -7
0 -14 3 -16 8 -1 4 -44 28 -94 53 -51 26 -121 61 -155 79 -35 18 -72 36 -81
41 -16 8 -18 4 -18 -31z"/>
<path d="M6770 9085 c-36 -17 -155 -78 -265 -135 -110 -57 -239 -123 -288
-147 -48 -25 -91 -52 -95 -61 -6 -13 -9 -674 -3 -716 0 -5 7 -4 14 1 6 6 116
63 242 128 127 65 263 135 303 156 39 21 72 35 72 32 0 -3 8 0 18 8 9 8 29 21
45 29 15 7 27 16 28 19 3 28 1 712 -2 715 -2 2 -33 -11 -69 -29z"/>
<path d="M11274 9054 c-356 -182 -500 -257 -508 -265 -6 -5 -18 -9 -27 -9 -9
0 -27 -8 -40 -19 l-23 -18 0 -362 c-1 -198 0 -361 1 -361 1 0 71 35 155 79 84
43 243 124 353 181 110 56 204 106 210 111 6 6 10 144 10 369 0 198 0 360 -1
360 0 0 -59 -30 -130 -66z"/>
<path d="M11434 8755 l0 -362 241 -123 c132 -68 291 -149 353 -181 63 -33 119
-59 125 -59 9 0 12 90 11 354 0 294 -3 356 -15 368 -8 7 -95 54 -194 103 -98
50 -214 109 -257 132 -43 22 -78 39 -78 36 0 -3 -6 -1 -12 5 -15 11 -136 76
-158 84 -14 5 -15 -37 -16 -357z"/>
<path d="M15930 9102 c-32 -16 -102 -53 -140 -72 -8 -5 -98 -50 -200 -102
-102 -51 -186 -96 -188 -100 -2 -5 -12 -8 -22 -8 -10 0 -21 -4 -24 -8 -3 -4
-30 -21 -60 -36 -41 -21 -56 -34 -57 -50 -2 -76 0 -147 6 -156 3 -5 3 -10 -2
-10 -9 0 -8 -432 1 -455 3 -8 2 -17 -3 -19 -4 -3 -6 -19 -3 -35 l4 -30 262
133 c143 74 307 158 362 187 l102 53 0 363 c-1 200 -1 363 -2 363 0 -1 -17 -9
-36 -18z"/>
<path d="M2170 9064 c-47 -25 -175 -91 -285 -147 -110 -56 -202 -104 -205
-107 -3 -3 -32 -18 -65 -35 l-60 -30 0 -357 c-1 -280 2 -358 12 -358 18 0 83
32 83 42 0 4 6 8 13 8 6 0 57 23 112 51 285 145 491 252 499 260 5 4 9 166 10
364 1 310 -1 355 -14 354 -8 0 -53 -21 -100 -45z"/>
<path d="M6871 8752 l-1 -358 147 -75 c81 -40 152 -77 158 -82 5 -4 103 -54
217 -112 l206 -105 0 364 1 364 -142 73 c-78 40 -191 99 -252 131 -60 32 -117
61 -125 64 -8 4 -54 26 -102 50 -47 24 -91 44 -96 44 -6 0 -10 -132 -11 -358z"/>
<path d="M700 9072 c-30 -16 -151 -78 -267 -138 -117 -60 -225 -115 -240 -122
-16 -7 -35 -17 -43 -22 -8 -5 -38 -20 -66 -34 l-51 -25 0 -364 0 -365 181 92
c100 50 183 93 186 96 3 3 85 45 183 95 l177 89 0 363 c0 200 -1 363 -2 363
-2 0 -28 -13 -58 -28z"/>
<path d="M3830 8735 c0 -308 2 -365 14 -365 8 0 16 -3 18 -7 2 -5 82 -48 178
-96 96 -48 230 -116 298 -151 67 -35 122 -61 122 -58 0 3 8 -1 18 -10 15 -12
66 -38 77 -38 1 0 3 162 3 361 l-1 361 -46 21 c-25 12 -48 24 -51 27 -3 3 -45
25 -95 50 -49 25 -98 51 -107 59 -10 8 -18 11 -18 6 0 -4 -6 -3 -12 3 -14 11
-351 184 -380 195 -17 6 -18 -15 -18 -358z"/>
<path d="M5048 8965 c-145 -74 -306 -156 -358 -182 l-95 -48 -1 -362 c-2 -364
0 -383 32 -354 7 7 402 210 637 328 27 14 50 30 53 37 8 20 10 716 2 716 -4 0
-125 -61 -270 -135z"/>
<path d="M8394 8740 c1 -348 2 -360 21 -373 23 -15 76 -43 150 -78 28 -13 52
-26 55 -29 3 -3 32 -18 65 -34 33 -16 63 -34 67 -40 4 -6 8 -8 8 -3 0 4 33
-10 73 -31 120 -65 274 -142 283 -142 11 0 8 710 -3 721 -11 10 -707 369 -716
369 -2 0 -3 -162 -3 -360z"/>
<path d="M9860 9091 c0 -6 -3 -10 -7 -9 -8 2 -141 -64 -393 -195 -69 -36 -164
-84 -212 -108 -49 -23 -89 -45 -89 -48 -1 -3 -2 -165 -3 -360 -2 -293 1 -354
12 -359 8 -3 17 -1 21 4 3 5 49 31 101 57 516 262 590 301 591 316 0 9 1 171
2 360 0 257 -2 346 -11 349 -7 2 -12 -1 -12 -7z"/>
<path d="M12955 8738 l0 -361 103 -53 c57 -29 119 -62 138 -73 19 -12 41 -21
49 -21 7 0 15 -3 17 -7 3 -8 404 -213 416 -213 4 0 7 161 7 357 l0 358 -25 16
c-26 16 -696 359 -702 359 -1 0 -3 -163 -3 -362z"/>
<path d="M14230 8994 c-113 -58 -271 -139 -352 -181 -82 -41 -151 -79 -154
-85 -5 -8 -9 -636 -5 -705 1 -20 12 -16 90 26 39 22 82 43 94 47 12 4 24 9 27
13 3 3 70 39 150 80 80 40 149 77 154 82 6 5 18 9 27 9 10 0 19 3 21 8 2 4 39
25 83 46 l81 40 0 363 c0 200 -2 363 -5 363 -3 -1 -98 -48 -211 -106z"/>
<path d="M3070 8365 l0 -364 38 -17 c20 -10 45 -24 55 -32 9 -8 17 -13 17 -9
0 3 19 -5 43 -18 23 -12 130 -67 237 -121 107 -54 197 -101 200 -105 3 -3 21
-11 40 -19 19 -8 37 -16 40 -20 3 -3 17 -11 31 -17 l26 -11 0 363 0 364 -151
77 c-83 42 -200 103 -261 134 -178 93 -258 134 -287 147 l-28 12 0 -364z"/>
<path d="M7632 8372 c0 -197 3 -363 6 -368 4 -6 77 -45 162 -88 85 -43 162
-82 170 -86 8 -5 27 -15 43 -22 15 -7 99 -50 187 -95 l159 -83 1 346 c0 190 1
348 1 352 4 23 -9 34 -78 69 -43 21 -80 40 -83 43 -3 3 -54 29 -115 59 -60 30
-118 61 -127 69 -10 8 -18 13 -18 10 0 -3 -46 19 -102 48 -57 30 -123 64 -148
76 -25 12 -48 24 -51 26 -4 1 -7 -159 -7 -356z"/>
<path d="M12855 8345 c-33 -17 -168 -87 -300 -155 -356 -182 -355 -182 -355
-189 0 -3 24 -17 53 -31 28 -13 55 -28 58 -33 3 -5 9 -8 13 -8 7 1 59 -25 357
-178 130 -66 240 -121 243 -121 8 0 5 740 -3 743 -3 2 -33 -11 -66 -28z"/>
<path d="M2220 8327 c-236 -119 -628 -322 -645 -334 -19 -13 -20 -25 -21 -372
l0 -359 22 8 c12 5 107 52 211 106 103 53 256 131 338 173 83 42 152 77 154
78 2 2 5 167 5 368 1 201 1 365 1 365 0 -1 -29 -15 -65 -33z"/>
<path d="M6625 8250 c-115 -59 -278 -142 -360 -184 l-150 -77 0 -364 c0 -201
2 -364 5 -362 3 1 55 27 115 58 61 31 140 72 178 92 37 20 67 33 67 29 0 -4 4
-2 8 4 4 6 30 21 57 35 28 13 52 26 55 29 3 3 30 16 60 30 30 14 84 41 119 60
l64 35 0 358 c0 196 -2 359 -4 361 -2 2 -98 -45 -214 -104z"/>
<path d="M6876 8352 c-3 -5 -5 -169 -5 -365 l1 -356 119 -61 c65 -33 122 -61
126 -61 5 -1 19 -9 33 -18 14 -9 93 -50 175 -91 83 -41 152 -77 155 -80 10
-10 95 -50 107 -50 8 0 11 92 11 358 l0 359 -156 80 c-87 45 -233 120 -327
168 -93 48 -176 92 -182 97 -7 6 -13 7 -13 3 0 -5 -9 0 -19 9 -10 10 -22 13
-25 8z"/>
<path d="M2310 8293 c-3 -315 1 -658 7 -664 5 -4 143 -76 308 -159 165 -84
318 -163 340 -175 78 -42 71 -74 71 326 -1 224 -5 362 -11 368 -5 5 -95 53
-200 107 -104 53 -259 132 -343 175 -84 44 -157 79 -162 79 -6 0 -10 -26 -10
-57z"/>
<path d="M11305 8311 c-38 -21 -173 -91 -300 -156 -126 -65 -252 -130 -280
-145 l-49 -26 -1 -353 c0 -194 2 -356 5 -361 3 -4 91 36 195 90 105 54 267
137 360 184 l170 87 0 359 c0 314 -2 360 -15 359 -8 -1 -46 -18 -85 -38z"/>
<path d="M11434 7990 l0 -359 78 -38 c43 -20 78 -41 78 -45 0 -5 3 -7 8 -6 9
2 70 -28 337 -167 121 -63 222 -114 225 -115 8 0 5 114 -4 128 -4 7 -4 12 1
12 4 0 8 131 7 291 l-1 291 -29 17 c-16 9 -30 19 -32 24 -2 4 -12 7 -23 7 -10
0 -19 5 -19 10 0 6 -8 10 -18 10 -10 0 -22 4 -28 9 -5 5 -112 62 -239 126
-126 65 -244 126 -262 137 -18 11 -43 21 -55 23 l-24 5 0 -360z"/>
<path d="M15910 8333 c-19 -10 -37 -20 -40 -23 -3 -3 -48 -27 -100 -53 -52
-26 -193 -98 -313 -159 l-217 -111 0 -342 c1 -188 0 -346 -1 -351 -6 -34 19
-25 232 83 127 65 290 148 363 186 l133 67 0 360 c1 262 -2 360 -11 360 -6 0
-27 -8 -46 -17z"/>
<path d="M675 8297 c-44 -22 -81 -44 -83 -49 -2 -4 -8 -8 -14 -8 -6 0 -74 -32
-152 -72 -78 -39 -195 -99 -261 -132 -66 -33 -123 -64 -126 -69 -3 -5 -6 -170
-6 -367 l1 -358 65 33 c179 86 226 110 231 115 4 4 299 156 406 210 25 12 30
19 24 35 -4 11 -5 24 -3 28 7 12 6 614 -1 625 -3 6 -2 12 3 14 4 1 6 10 2 19
-5 15 -17 11 -86 -24z"/>
<path d="M3830 7976 l0 -363 68 -35 c37 -19 105 -54 152 -78 47 -24 87 -44 90
-45 3 0 10 -3 15 -7 6 -3 98 -51 206 -107 l197 -100 0 363 0 364 -86 44 c-48
23 -89 45 -92 48 -3 3 -72 39 -155 80 -82 41 -184 93 -225 115 -42 22 -97 50
-123 62 l-47 23 0 -364z"/>
<path d="M5245 8305 c-97 -52 -545 -282 -601 -309 l-51 -24 0 -365 0 -365 236
121 c130 66 294 150 364 187 l129 66 -1 354 c0 195 0 358 -1 363 0 11 -9 7
-75 -28z"/>
<path d="M9795 8297 c-44 -22 -81 -44 -83 -49 -2 -4 -9 -8 -14 -8 -6 0 -81
-36 -167 -79 -323 -164 -366 -186 -371 -189 -3 -2 -5 -167 -6 -367 l0 -363 60
29 c34 16 68 33 76 38 8 4 141 72 295 151 154 78 284 146 289 151 10 9 15 688
6 713 -4 10 -25 4 -85 -27z"/>
<path d="M12955 7980 c1 -216 5 -363 10 -369 6 -4 84 -46 175 -92 91 -46 168
-88 171 -92 3 -5 8 -8 10 -6 4 3 133 -61 262 -130 42 -23 83 -41 90 -41 15 0
17 704 2 719 -6 5 -100 55 -210 111 -110 57 -269 138 -353 181 -83 44 -153 79
-155 79 -1 0 -2 -162 -2 -360z"/>
<path d="M14293 8262 c-84 -42 -248 -126 -365 -186 l-213 -109 2 -351 c1 -193
2 -356 2 -363 1 -7 77 27 174 76 94 49 258 133 362 186 l191 97 0 364 c0 200
-1 364 -1 364 0 0 -69 -35 -152 -78z"/>
<path d="M8393 7978 c0 -194 4 -358 8 -364 5 -6 73 -44 152 -83 78 -40 238
-121 355 -181 192 -98 212 -107 212 -87 4 234 0 701 -7 707 -4 4 -73 41 -153
81 -80 40 -148 77 -151 82 -3 5 -9 8 -13 7 -7 -1 -72 31 -256 125 -69 36 -130
65 -136 65 -7 0 -11 -106 -11 -352z"/>
<path d="M1455 7935 c-33 -17 -190 -98 -350 -179 -159 -82 -294 -153 -300
-158 -9 -8 -17 -728 -8 -728 3 0 59 29 126 64 67 35 226 116 352 181 127 64
234 120 238 125 8 7 14 717 6 723 -2 2 -31 -11 -64 -28z"/>
<path d="M3070 7604 c0 -338 1 -365 18 -371 9 -4 34 -17 55 -30 20 -13 37 -21
37 -18 0 3 18 -6 40 -20 22 -14 40 -22 40 -19 0 4 6 2 13 -4 15 -12 429 -227
498 -258 l26 -12 0 363 0 363 -141 72 c-78 40 -241 123 -363 186 l-223 113 0
-365z"/>
<path d="M6050 7956 c-14 -7 -38 -20 -55 -28 -138 -71 -477 -245 -545 -279
-47 -24 -87 -45 -90 -47 -3 -2 -5 -167 -6 -367 0 -384 -1 -375 41 -345 9 7
228 120 543 280 78 40 142 77 143 84 3 44 1 707 -2 710 -2 3 -15 -1 -29 -8z"/>
<path d="M7632 7605 l-1 -364 112 -56 c62 -31 226 -115 364 -186 l253 -130 0
53 c0 29 1 60 1 68 0 8 0 35 0 60 0 25 0 52 0 60 0 8 0 35 0 60 0 25 0 52 0
60 0 8 0 35 0 60 0 25 0 52 0 60 0 8 0 35 0 60 0 25 0 52 0 60 0 8 0 41 -1 72
l-3 58 -126 64 c-255 129 -506 258 -516 265 -5 4 -26 14 -46 23 l-36 16 -1
-363z"/>
<path d="M10459 7875 c-97 -49 -255 -130 -350 -179 -96 -48 -178 -92 -184 -97
-10 -10 -15 -731 -4 -727 36 16 681 348 704 362 19 13 20 24 20 369 0 196 -3
357 -5 359 -3 2 -84 -37 -181 -87z"/>
<path d="M15133 7932 c-40 -20 -125 -64 -190 -97 -65 -32 -121 -64 -125 -70
-4 -5 -8 -6 -8 -2 0 5 -15 0 -32 -11 -18 -11 -93 -50 -165 -87 -73 -37 -133
-73 -134 -79 -1 -15 -1 -653 0 -689 l1 -28 228 117 c125 64 288 148 362 186
l135 69 1 364 c1 201 1 365 0 364 -1 0 -34 -17 -73 -37z"/>
<path d="M12197 7953 c-5 -11 -2 -711 3 -715 3 -2 50 -25 105 -52 55 -27 111
-57 125 -67 14 -9 30 -17 35 -18 11 -1 77 -33 85 -41 13 -13 370 -188 371
-182 4 36 3 696 -1 708 -5 14 -160 97 -580 310 -130 66 -136 69 -143 57z"/>
<path d="M6760 7561 c-36 -20 -81 -43 -100 -51 -19 -7 -37 -17 -40 -20 -3 -3
-45 -26 -95 -51 -49 -25 -162 -82 -250 -127 l-160 -82 0 -360 c0 -198 4 -360
8 -360 10 0 704 355 716 366 9 8 4 718 -5 720 -5 1 -38 -15 -74 -35z"/>
<path d="M555 7474 c-110 -57 -272 -140 -361 -185 l-161 -81 0 -356 c0 -197 1
-360 3 -364 4 -5 304 143 361 178 12 8 29 14 37 14 8 0 16 3 18 8 2 4 68 40
148 81 80 40 148 77 153 80 4 4 6 169 5 367 l-3 360 -200 -102z"/>
<path d="M3830 7217 l0 -364 123 -63 c67 -34 137 -71 155 -82 17 -11 32 -16
32 -12 0 4 8 1 18 -7 9 -8 103 -59 208 -112 l191 -97 1 363 0 363 -62 33 c-33
18 -173 90 -311 159 -137 70 -253 131 -256 135 -3 5 -10 9 -15 9 -5 0 -26 9
-46 19 l-38 19 0 -363z"/>
<path d="M5020 7428 c-162 -82 -325 -165 -361 -184 l-66 -35 0 -360 c0 -335 1
-359 17 -359 10 0 23 6 29 14 7 8 24 17 39 21 15 4 29 10 32 13 3 4 68 39 145
77 77 39 213 109 303 155 l162 84 0 191 c1 104 1 266 1 358 1 93 -1 170 -3
172 -1 2 -136 -64 -298 -147z"/>
<path d="M8399 7576 c-1 -1 -3 -164 -4 -362 l-2 -362 171 -87 c94 -48 258
-132 364 -187 l192 -99 1 148 c0 195 0 499 0 544 -1 35 -4 38 -68 70 -38 19
-70 36 -73 39 -3 3 -30 16 -60 30 -30 14 -57 27 -60 30 -3 3 -34 20 -70 37
-36 18 -138 70 -227 116 -90 46 -164 84 -164 83z"/>
<path d="M9755 7516 c-66 -35 -228 -118 -360 -186 l-241 -122 2 -357 c0 -196
2 -359 2 -363 1 -3 62 24 135 61 365 186 573 294 581 302 9 8 15 730 6 728 -3
0 -59 -29 -125 -63z"/>
<path d="M12955 7219 c0 -221 4 -362 10 -367 6 -5 107 -59 225 -120 118 -60
277 -142 353 -181 75 -38 138 -67 138 -63 7 43 2 708 -6 717 -5 7 -125 71
-265 143 -140 71 -293 150 -340 174 -47 24 -92 47 -100 50 -13 5 -15 -38 -15
-353z"/>
<path d="M14355 7535 c-44 -23 -192 -99 -330 -170 -137 -71 -263 -135 -280
-143 l-30 -14 0 -364 c0 -200 3 -363 7 -361 16 6 484 243 488 247 3 3 57 31
120 63 l116 59 -1 358 c0 197 -2 360 -5 362 -3 2 -41 -15 -85 -37z"/>
<path d="M5185 6752 c-82 -42 -152 -79 -155 -82 -3 -3 -61 -33 -130 -68 -69
-34 -141 -71 -160 -81 -19 -10 -46 -24 -60 -30 -81 -38 -87 -31 101 -125 94
-47 178 -91 187 -98 8 -7 17 -12 19 -10 2 2 77 -34 166 -79 l163 -82 150 78
c82 43 190 98 239 124 50 25 92 49 93 54 2 4 12 7 22 7 10 0 20 3 22 8 2 4 42
27 91 52 48 25 88 49 88 54 1 8 -667 356 -681 355 -3 0 -72 -35 -155 -77z"/>
<path d="M9685 6719 c-93 -49 -251 -130 -350 -180 l-180 -92 1 -361 c1 -199 2
-362 3 -363 1 -2 86 41 521 265 l205 105 0 359 c0 312 -2 358 -15 357 -8 -1
-91 -41 -185 -90z"/>
<path d="M14390 6791 c-142 -73 -465 -238 -557 -286 -72 -36 -113 -63 -114
-74 -1 -21 -1 -693 0 -704 1 -4 97 41 214 101 116 60 280 144 362 186 l150 76
1 360 c0 243 -4 360 -11 360 -5 -1 -26 -9 -45 -19z"/>
<path d="M6042 6440 c-18 -11 -32 -17 -32 -14 0 3 -13 -4 -30 -16 -16 -12 -30
-18 -30 -13 0 4 -4 3 -8 -2 -4 -6 -101 -59 -217 -117 -115 -59 -246 -126 -290
-149 l-81 -42 1 -361 c0 -313 2 -361 15 -358 8 2 17 7 20 10 6 8 173 90 180
88 3 0 19 8 35 19 17 11 84 47 150 80 66 33 122 63 123 68 2 4 10 7 17 7 8 0
36 12 62 28 27 15 65 36 86 46 20 11 37 26 38 35 3 56 1 703 -3 706 -2 2 -18
-5 -36 -15z"/>
</g>
</svg>
