<?xml version="1.0" encoding="UTF-8"?>
<!DOCTYPE svg PUBLIC "-//W3C//DTD SVG 1.1//EN" "http://www.w3.org/Graphics/SVG/1.1/DTD/svg11.dtd">
<!-- Creator: CorelDRAW 2017 -->
<svg xmlns="http://www.w3.org/2000/svg" xml:space="preserve" width="200px" height="66px" version="1.1" style="shape-rendering:geometricPrecision; text-rendering:geometricPrecision; image-rendering:optimizeQuality; fill-rule:evenodd; clip-rule:evenodd"
viewBox="0 0 197.79 65.54"
 xmlns:xlink="http://www.w3.org/1999/xlink">
 <defs>
  <style type="text/css">
   <![CDATA[
    .fil12 {fill:#23946E}
    .fil13 {fill:#239649}
    .fil14 {fill:#26704B}
    .fil19 {fill:#33CC33}
    .fil16 {fill:#59A359}
    .fil11 {fill:#6600CC}
    .fil15 {fill:#7EB57E}
    .fil0 {fill:gray}
    .fil23 {fill:#9900FF}
    .fil25 {fill:#9933CC}
    .fil20 {fill:#9966FF}
    .fil18 {fill:#99FF00}
    .fil29 {fill:#CAE3CA}
    .fil21 {fill:#CC33FF}
    .fil24 {fill:#CC6699}
    .fil3 {fill:#CC9933}
    .fil17 {fill:#CCCC33}
    .fil2 {fill:#CCCCCC}
    .fil22 {fill:#DE4075}
    .fil1 {fill:#E6E6E6}
    .fil28 {fill:#F0F0F0}
    .fil27 {fill:#FF0066}
    .fil26 {fill:#FF408C}
    .fil4 {fill:#FF9933}
    .fil8 {fill:#FAE042}
    .fil6 {fill:#EDBD3D}
    .fil9 {fill:#F25900}
    .fil5 {fill:#F54A91}
    .fil7 {fill:#CD26A0}
    .fil10 {fill:#C4008F}
   ]]>
  </style>
 </defs>
 <g id="Capa_x0020_1">
  <metadata id="CorelCorpID_0Corel-Layer"/>
  <rect class="fil0" transform="matrix(-0.273632 0.140148 -0 0.273632 27.922 9.41965)" width="33" height="33"/>
  <rect class="fil0" transform="matrix(-0.273632 0.140148 -0 0.273632 27.922 18.8847)" width="33" height="33"/>
  <rect class="fil0" transform="matrix(-0.273632 0.140148 -0 0.273632 27.922 28.331)" width="33" height="33"/>
  <rect class="fil0" transform="matrix(-0.273632 0.140148 -0 0.273632 18.4757 14.2578)" width="33" height="33"/>
  <rect class="fil0" transform="matrix(-0.273632 0.140148 -0 0.273632 18.4757 33.1691)" width="33" height="33"/>
  <rect class="fil0" transform="matrix(-0.273632 0.140148 -0 0.273632 9.0295 19.096)" width="33" height="33"/>
  <rect class="fil0" transform="matrix(-0.273632 0.140148 -0 0.273632 9.0295 28.561)" width="33" height="33"/>
  <rect class="fil0" transform="matrix(-0.273632 0.140148 -0 0.273632 9.0295 38.0073)" width="33" height="33"/>
  <rect class="fil0" transform="matrix(-0.273632 0.140148 -0 0.273632 27.922 -1.10196E-05)" width="33" height="33"/>
  <rect class="fil1" transform="matrix(0.273632 0.140148 -0 0.273632 28.2529 9.40249)" width="33" height="33"/>
  <rect class="fil1" transform="matrix(0.273632 0.140148 -0 0.273632 28.2529 18.8676)" width="33" height="33"/>
  <rect class="fil1" transform="matrix(0.273632 0.140148 -0 0.273632 28.2529 28.3138)" width="33" height="33"/>
  <rect class="fil0" transform="matrix(0.273632 0.140148 -0 0.273632 37.6991 14.2406)" width="33" height="33"/>
  <rect class="fil0" transform="matrix(0.273632 0.140148 -0 0.273632 37.6991 23.7057)" width="33" height="33"/>
  <rect class="fil0" transform="matrix(0.273632 0.140148 -0 0.273632 37.6991 33.1519)" width="33" height="33"/>
  <rect class="fil1" transform="matrix(0.273632 0.140148 -0 0.273632 47.1453 19.0788)" width="33" height="33"/>
  <rect class="fil1" transform="matrix(0.273632 0.140148 -0 0.273632 47.1453 28.5439)" width="33" height="33"/>
  <rect class="fil1" transform="matrix(0.273632 0.140148 -0 0.273632 47.1453 37.9901)" width="33" height="33"/>
  <rect class="fil0" transform="matrix(-0.273632 0.140148 -0 0.273632 84.5274 9.37931)" width="33" height="33"/>
  <rect class="fil0" transform="matrix(-0.273632 0.140148 -0 0.273632 84.5274 18.8444)" width="33" height="33"/>
  <rect class="fil0" transform="matrix(-0.273632 0.140148 -0 0.273632 84.5274 28.2906)" width="33" height="33"/>
  <rect class="fil0" transform="matrix(-0.273632 0.140148 -0 0.273632 75.0812 14.2175)" width="33" height="33"/>
  <rect class="fil0" transform="matrix(-0.273632 0.140148 -0 0.273632 75.0812 33.1288)" width="33" height="33"/>
  <rect class="fil0" transform="matrix(-0.273632 0.140148 -0 0.273632 65.6349 19.0556)" width="33" height="33"/>
  <rect class="fil0" transform="matrix(-0.273632 0.140148 -0 0.273632 65.6349 28.5207)" width="33" height="33"/>
  <rect class="fil0" transform="matrix(-0.273632 0.140148 -0 0.273632 65.6349 37.9669)" width="33" height="33"/>
  <rect class="fil0" transform="matrix(-0.273632 0.140148 -0 0.273632 75.0812 51.8823)" width="33" height="33"/>
  <rect class="fil0" transform="matrix(-0.273632 0.140148 -0 0.273632 84.5274 37.7103)" width="33" height="33"/>
  <rect class="fil1" transform="matrix(0.273632 0.140148 -0 0.273632 84.8884 9.40249)" width="33" height="33"/>
  <rect class="fil1" transform="matrix(0.273632 0.140148 -0 0.273632 84.8884 18.8676)" width="33" height="33"/>
  <rect class="fil1" transform="matrix(0.273632 0.140148 -0 0.273632 84.8884 28.3138)" width="33" height="33"/>
  <rect class="fil0" transform="matrix(0.273632 0.140148 -0 0.273632 94.3347 14.2406)" width="33" height="33"/>
  <rect class="fil0" transform="matrix(0.273632 0.140148 -0 0.273632 94.3347 23.7057)" width="33" height="33"/>
  <rect class="fil0" transform="matrix(0.273632 0.140148 -0 0.273632 94.3347 33.1519)" width="33" height="33"/>
  <rect class="fil1" transform="matrix(0.273632 0.140148 -0 0.273632 103.781 19.0788)" width="33" height="33"/>
  <rect class="fil1" transform="matrix(0.273632 0.140148 -0 0.273632 103.781 28.5439)" width="33" height="33"/>
  <rect class="fil1" transform="matrix(0.273632 0.140148 -0 0.273632 103.781 37.9901)" width="33" height="33"/>
  <polygon class="fil2" points="94.34,13.86 103.5,9.17 112.49,13.78 103.35,18.46 "/>
  <rect class="fil3" transform="matrix(-0.273632 0.140148 -0 0.273632 141.154 9.40459)" width="33" height="33"/>
  <rect class="fil4" transform="matrix(-0.273632 0.140148 -0 0.273632 141.154 18.8697)" width="33" height="33"/>
  <rect class="fil5" transform="matrix(-0.273632 0.140148 -0 0.273632 141.154 28.3159)" width="33" height="33"/>
  <rect class="fil6" transform="matrix(-0.273632 0.140148 -0 0.273632 131.707 14.2427)" width="33" height="33"/>
  <rect class="fil7" transform="matrix(-0.273632 0.140148 -0 0.273632 131.707 33.154)" width="33" height="33"/>
  <rect class="fil8" transform="matrix(-0.273632 0.140148 -0 0.273632 122.261 19.0809)" width="33" height="33"/>
  <rect class="fil9" transform="matrix(-0.273632 0.140148 -0 0.273632 122.261 28.546)" width="33" height="33"/>
  <rect class="fil10" transform="matrix(-0.273632 0.140148 -0 0.273632 122.261 37.9922)" width="33" height="33"/>
  <rect class="fil11" transform="matrix(-0.273632 0.140148 -0 0.273632 122.261 47.4384)" width="33" height="33"/>
  <rect class="fil12" transform="matrix(0.273632 0.140148 -0 0.273632 141.527 9.40249)" width="33" height="33"/>
  <rect class="fil13" transform="matrix(0.273632 0.140148 -0 0.273632 141.527 18.8676)" width="33" height="33"/>
  <rect class="fil14" transform="matrix(0.273632 0.140148 -0 0.273632 141.527 28.3138)" width="33" height="33"/>
  <rect class="fil15" transform="matrix(0.273632 0.140148 -0 0.273632 150.973 14.2406)" width="33" height="33"/>
  <rect class="fil16" transform="matrix(0.273632 0.140148 -0 0.273632 150.973 33.1519)" width="33" height="33"/>
  <rect class="fil17" transform="matrix(0.273632 0.140148 -0 0.273632 160.419 19.0788)" width="33" height="33"/>
  <rect class="fil18" transform="matrix(0.273632 0.140148 -0 0.273632 160.419 28.5439)" width="33" height="33"/>
  <rect class="fil19" transform="matrix(0.273632 0.140148 -0 0.273632 160.419 37.9901)" width="33" height="33"/>
  <rect class="fil20" transform="matrix(-0.273632 0.140148 -0 0.273632 197.792 9.40459)" width="33" height="33"/>
  <rect class="fil21" transform="matrix(-0.273632 0.140148 -0 0.273632 197.792 18.8697)" width="33" height="33"/>
  <rect class="fil22" transform="matrix(-0.273632 0.140148 -0 0.273632 197.792 28.3159)" width="33" height="33"/>
  <rect class="fil23" transform="matrix(-0.273632 0.140148 -0 0.273632 188.346 14.2427)" width="33" height="33"/>
  <rect class="fil24" transform="matrix(-0.273632 0.140148 -0 0.273632 188.346 33.154)" width="33" height="33"/>
  <rect class="fil11" transform="matrix(-0.273632 0.140148 -0 0.273632 178.9 19.0809)" width="33" height="33"/>
  <rect class="fil25" transform="matrix(-0.273632 0.140148 -0 0.273632 178.9 28.546)" width="33" height="33"/>
  <rect class="fil26" transform="matrix(-0.273632 0.140148 -0 0.273632 178.9 37.9922)" width="33" height="33"/>
  <rect class="fil27" transform="matrix(-0.273632 0.140148 -0 0.273632 178.9 47.4384)" width="33" height="33"/>
  <polygon class="fil1" points="56.79,51.97 65.91,47.3 74.56,51.71 65.58,56.39 "/>
  <polygon class="fil28" points="103.79,18.69 112.94,14.01 122.13,18.71 112.98,23.4 "/>
  <polygon class="fil2" points="37.73,13.86 46.89,9.17 55.88,13.78 46.74,18.46 "/>
  <polygon class="fil28" points="47.18,18.69 56.33,14.01 65.52,18.71 56.37,23.4 "/>
  <polygon class="fil29" points="150.9,32.74 160.05,28.06 160.09,37.45 "/>
 </g>
</svg>
