<?xml version="1.0" encoding="UTF-8"?>
<!DOCTYPE svg PUBLIC "-//W3C//DTD SVG 1.1//EN" "http://www.w3.org/Graphics/SVG/1.1/DTD/svg11.dtd">
<!-- Creator: CorelDRAW 2017 -->
<svg xmlns="http://www.w3.org/2000/svg" xml:space="preserve" width="7.27521in" height="9.18974in" version="1.1" style="shape-rendering:geometricPrecision; text-rendering:geometricPrecision; image-rendering:optimizeQuality; fill-rule:evenodd; clip-rule:evenodd"
viewBox="0 0 7736.94 9772.98"
 xmlns:xlink="http://www.w3.org/1999/xlink">
 <defs>
  <style type="text/css">
   <![CDATA[
    .fil32 {fill:none}
    .fil31 {fill:black}
    .fil13 {fill:#23946E}
    .fil14 {fill:#239649}
    .fil15 {fill:#26704B}
    .fil20 {fill:#33CC33}
    .fil1 {fill:#4D4D4D}
    .fil17 {fill:#59A359}
    .fil12 {fill:#6600CC}
    .fil16 {fill:#7EB57E}
    .fil3 {fill:gray}
    .fil24 {fill:#9900FF}
    .fil26 {fill:#9933CC}
    .fil21 {fill:#9966FF}
    .fil19 {fill:#99FF00}
    .fil30 {fill:#CAE3CA}
    .fil22 {fill:#CC33FF}
    .fil25 {fill:#CC6699}
    .fil5 {fill:#CC9933}
    .fil18 {fill:#CCCC33}
    .fil0 {fill:#CCCCCC}
    .fil23 {fill:#DE4075}
    .fil4 {fill:#E6E6E6}
    .fil29 {fill:#F0F0F0}
    .fil28 {fill:#FF0066}
    .fil27 {fill:#FF408C}
    .fil6 {fill:#FF9933}
    .fil2 {fill:#FAE042}
    .fil8 {fill:#EDBD3D}
    .fil10 {fill:#F25900}
    .fil7 {fill:#F54A91}
    .fil9 {fill:#CD26A0}
    .fil11 {fill:#C4008F}
   ]]>
  </style>
   <clipPath id="id0">
    <path d="M-0 0l7736.94 0 0 9772.98 -7736.94 0 0 -9772.98z"/>
   </clipPath>
 </defs>
 <g id="Capa_x0020_1">
  <metadata id="CorelCorpID_0Corel-Layer"/>
  <g>
  </g>
  <g style="clip-path:url(#id0)">
   <g>
    <polygon class="fil0" points="2867.18,5786.98 2866.26,16739.62 -7831.59,11264.95 "/>
    <polygon class="fil1" points="-4634.07,-1049.99 16260.75,-1049.81 5812.89,4299.51 "/>
    <polygon class="fil2" points="13225.17,4452.58 13224.25,15405.21 2526.39,9930.55 "/>
    <g id="_630719509728">
     <rect class="fil3" transform="matrix(-0.616151 0.315579 -0 0.616151 -8820.54 2857.18)" width="1513.49" height="1513.49"/>
     <rect class="fil3" transform="matrix(-0.616151 0.315579 -0 0.616151 -8820.54 3834.71)" width="1513.49" height="1513.49"/>
     <rect class="fil3" transform="matrix(-0.616151 0.315579 -0 0.616151 -8820.54 4810.28)" width="1513.49" height="1513.49"/>
     <rect class="fil3" transform="matrix(-0.616151 0.315579 -0 0.616151 -9796.12 3356.85)" width="1513.49" height="1513.49"/>
     <rect class="fil3" transform="matrix(-0.616151 0.315579 -0 0.616151 -9796.12 5309.95)" width="1513.49" height="1513.49"/>
     <rect class="fil3" transform="matrix(-0.616151 0.315579 -0 0.616151 -10771.7 3856.52)" width="1513.49" height="1513.49"/>
     <rect class="fil3" transform="matrix(-0.616151 0.315579 -0 0.616151 -10771.7 4834.05)" width="1513.49" height="1513.49"/>
     <rect class="fil3" transform="matrix(-0.616151 0.315579 -0 0.616151 -10771.7 5809.63)" width="1513.49" height="1513.49"/>
     <rect class="fil3" transform="matrix(-0.616151 0.315579 -0 0.616151 -8820.54 1884.34)" width="1513.49" height="1513.49"/>
     <rect class="fil4" transform="matrix(0.616151 0.315579 -0 0.616151 -8786.37 2855.4)" width="1513.49" height="1513.49"/>
     <rect class="fil4" transform="matrix(0.616151 0.315579 -0 0.616151 -8786.37 3832.93)" width="1513.49" height="1513.49"/>
     <rect class="fil4" transform="matrix(0.616151 0.315579 -0 0.616151 -8786.37 4808.51)" width="1513.49" height="1513.49"/>
     <rect class="fil3" transform="matrix(0.616151 0.315579 -0 0.616151 -7810.78 3355.07)" width="1513.49" height="1513.49"/>
     <rect class="fil3" transform="matrix(0.616151 0.315579 -0 0.616151 -7810.78 4332.6)" width="1513.49" height="1513.49"/>
     <rect class="fil3" transform="matrix(0.616151 0.315579 -0 0.616151 -7810.78 5308.18)" width="1513.49" height="1513.49"/>
     <rect class="fil4" transform="matrix(0.616151 0.315579 -0 0.616151 -6835.2 3854.75)" width="1513.49" height="1513.49"/>
     <rect class="fil4" transform="matrix(0.616151 0.315579 -0 0.616151 -6835.2 4832.27)" width="1513.49" height="1513.49"/>
     <rect class="fil4" transform="matrix(0.616151 0.315579 -0 0.616151 -6835.2 5807.85)" width="1513.49" height="1513.49"/>
     <rect class="fil3" transform="matrix(-0.616151 0.315579 -0 0.616151 -2974.49 2853.01)" width="1513.49" height="1513.49"/>
     <rect class="fil3" transform="matrix(-0.616151 0.315579 -0 0.616151 -2974.49 3830.54)" width="1513.49" height="1513.49"/>
     <rect class="fil3" transform="matrix(-0.616151 0.315579 -0 0.616151 -2974.49 4806.12)" width="1513.49" height="1513.49"/>
     <rect class="fil3" transform="matrix(-0.616151 0.315579 -0 0.616151 -3950.07 3352.68)" width="1513.49" height="1513.49"/>
     <rect class="fil3" transform="matrix(-0.616151 0.315579 -0 0.616151 -3950.07 5305.79)" width="1513.49" height="1513.49"/>
     <rect class="fil3" transform="matrix(-0.616151 0.315579 -0 0.616151 -4925.65 3852.35)" width="1513.49" height="1513.49"/>
     <rect class="fil3" transform="matrix(-0.616151 0.315579 -0 0.616151 -4925.65 4829.88)" width="1513.49" height="1513.49"/>
     <rect class="fil3" transform="matrix(-0.616151 0.315579 -0 0.616151 -4925.65 5805.46)" width="1513.49" height="1513.49"/>
     <rect class="fil3" transform="matrix(-0.616151 0.315579 -0 0.616151 -3950.07 7242.6)" width="1513.49" height="1513.49"/>
     <rect class="fil3" transform="matrix(-0.616151 0.315579 -0 0.616151 -2974.49 5778.95)" width="1513.49" height="1513.49"/>
     <rect class="fil4" transform="matrix(0.616151 0.315579 -0 0.616151 -2937.2 2855.4)" width="1513.49" height="1513.49"/>
     <rect class="fil4" transform="matrix(0.616151 0.315579 -0 0.616151 -2937.2 3832.93)" width="1513.49" height="1513.49"/>
     <rect class="fil4" transform="matrix(0.616151 0.315579 -0 0.616151 -2937.2 4808.51)" width="1513.49" height="1513.49"/>
     <rect class="fil3" transform="matrix(0.616151 0.315579 -0 0.616151 -1961.62 3355.07)" width="1513.49" height="1513.49"/>
     <rect class="fil3" transform="matrix(0.616151 0.315579 -0 0.616151 -1961.62 4332.6)" width="1513.49" height="1513.49"/>
     <rect class="fil3" transform="matrix(0.616151 0.315579 -0 0.616151 -1961.62 5308.18)" width="1513.49" height="1513.49"/>
     <rect class="fil4" transform="matrix(0.616151 0.315579 -0 0.616151 -986.038 3854.75)" width="1513.49" height="1513.49"/>
     <rect class="fil4" transform="matrix(0.616151 0.315579 -0 0.616151 -986.038 4832.27)" width="1513.49" height="1513.49"/>
     <rect class="fil4" transform="matrix(0.616151 0.315579 -0 0.616151 -986.038 5807.85)" width="1513.49" height="1513.49"/>
     <polygon class="fil0" points="-1960.81,3315.3 -1015.48,2831.42 -86.27,3307.38 -1030.93,3791.25 "/>
     <rect class="fil5" transform="matrix(-0.616151 0.315579 -0 0.616151 2873.71 2855.62)" width="1513.49" height="1513.49"/>
     <rect class="fil6" transform="matrix(-0.616151 0.315579 -0 0.616151 2873.71 3833.15)" width="1513.49" height="1513.49"/>
     <rect class="fil7" transform="matrix(-0.616151 0.315579 -0 0.616151 2873.71 4808.73)" width="1513.49" height="1513.49"/>
     <rect class="fil8" transform="matrix(-0.616151 0.315579 -0 0.616151 1898.13 3355.29)" width="1513.49" height="1513.49"/>
     <rect class="fil9" transform="matrix(-0.616151 0.315579 -0 0.616151 1898.13 5308.4)" width="1513.49" height="1513.49"/>
     <rect class="fil2" transform="matrix(-0.616151 0.315579 -0 0.616151 922.546 3854.96)" width="1513.49" height="1513.49"/>
     <rect class="fil10" transform="matrix(-0.616151 0.315579 -0 0.616151 922.546 4832.49)" width="1513.49" height="1513.49"/>
     <rect class="fil11" transform="matrix(-0.616151 0.315579 -0 0.616151 922.546 5808.07)" width="1513.49" height="1513.49"/>
     <rect class="fil12" transform="matrix(-0.616151 0.315579 -0 0.616151 922.546 6783.65)" width="1513.49" height="1513.49"/>
     <rect class="fil13" transform="matrix(0.616151 0.315579 -0 0.616151 2912.28 2855.4)" width="1513.49" height="1513.49"/>
     <rect class="fil14" transform="matrix(0.616151 0.315579 -0 0.616151 2912.28 3832.93)" width="1513.49" height="1513.49"/>
     <rect class="fil15" transform="matrix(0.616151 0.315579 -0 0.616151 2912.28 4808.51)" width="1513.49" height="1513.49"/>
     <rect class="fil16" transform="matrix(0.616151 0.315579 -0 0.616151 3887.86 3355.07)" width="1513.49" height="1513.49"/>
     <rect class="fil17" transform="matrix(0.616151 0.315579 -0 0.616151 3887.86 5308.18)" width="1513.49" height="1513.49"/>
     <rect class="fil18" transform="matrix(0.616151 0.315579 -0 0.616151 4863.44 3854.75)" width="1513.49" height="1513.49"/>
     <rect class="fil19" transform="matrix(0.616151 0.315579 -0 0.616151 4863.44 4832.27)" width="1513.49" height="1513.49"/>
     <rect class="fil20" transform="matrix(0.616151 0.315579 -0 0.616151 4863.44 5807.85)" width="1513.49" height="1513.49"/>
     <rect class="fil21" transform="matrix(-0.616151 0.315579 -0 0.616151 8723.18 2855.62)" width="1513.49" height="1513.49"/>
     <rect class="fil22" transform="matrix(-0.616151 0.315579 -0 0.616151 8723.18 3833.15)" width="1513.49" height="1513.49"/>
     <rect class="fil23" transform="matrix(-0.616151 0.315579 -0 0.616151 8723.18 4808.73)" width="1513.49" height="1513.49"/>
     <rect class="fil24" transform="matrix(-0.616151 0.315579 -0 0.616151 7747.6 3355.29)" width="1513.49" height="1513.49"/>
     <rect class="fil25" transform="matrix(-0.616151 0.315579 -0 0.616151 7747.6 5308.4)" width="1513.49" height="1513.49"/>
     <rect class="fil12" transform="matrix(-0.616151 0.315579 -0 0.616151 6772.02 3854.96)" width="1513.49" height="1513.49"/>
     <rect class="fil26" transform="matrix(-0.616151 0.315579 -0 0.616151 6772.02 4832.49)" width="1513.49" height="1513.49"/>
     <rect class="fil27" transform="matrix(-0.616151 0.315579 -0 0.616151 6772.02 5808.07)" width="1513.49" height="1513.49"/>
     <rect class="fil28" transform="matrix(-0.616151 0.315579 -0 0.616151 6772.02 6783.65)" width="1513.49" height="1513.49"/>
     <polygon class="fil4" points="-5838.77,7251.59 -4897.53,6769.78 -4003.39,7224.86 -4931.68,7707.77 "/>
     <polygon class="fil29" points="-985.27,3814.81 -40.13,3330.77 908.69,3817.02 -36.18,4300.52 "/>
     <polygon class="fil0" points="-7807.24,3315.3 -6861.91,2831.42 -5932.7,3307.38 -6877.37,3791.25 "/>
     <polygon class="fil29" points="-6831.7,3814.81 -5886.56,3330.77 -4937.74,3817.02 -5882.61,4300.52 "/>
     <polygon class="fil30" points="3880.29,5266 4825.43,4781.95 4829.38,5751.71 "/>
    </g>
    <polygon class="fil31" points="-4314.63,-889.91 -4314.01,6468.21 2872.95,2790.26 "/>
   </g>
  </g>
  <polygon class="fil32" points="-0,0 7736.94,0 7736.94,9772.98 -0,9772.98 "/>
 </g>
</svg>
