<?xml version="1.0" encoding="UTF-8"?>
<!DOCTYPE svg PUBLIC "-//W3C//DTD SVG 1.1//EN" "http://www.w3.org/Graphics/SVG/1.1/DTD/svg11.dtd">
<!-- Creator: CorelDRAW 2017 -->
<svg xmlns="http://www.w3.org/2000/svg" xml:space="preserve" width="11.1667in" height="8.26667in" version="1.1" style="shape-rendering:geometricPrecision; text-rendering:geometricPrecision; image-rendering:optimizeQuality; fill-rule:evenodd; clip-rule:evenodd"
viewBox="0 0 627077.86 464224.29"
 xmlns:xlink="http://www.w3.org/1999/xlink">
 <defs>
  <style type="text/css">
   <![CDATA[
    .fil30 {fill:none}
    .fil4 {fill:#23946E}
    .fil1 {fill:#239649}
    .fil3 {fill:#26704B}
    .fil19 {fill:#33CC33}
    .fil0 {fill:#52D47E}
    .fil16 {fill:#59A359}
    .fil15 {fill:#6600CC}
    .fil6 {fill:#7EB57E}
    .fil23 {fill:#9900FF}
    .fil25 {fill:#9933CC}
    .fil20 {fill:#9966FF}
    .fil18 {fill:#99FF00}
    .fil14 {fill:#C4008F}
    .fil29 {fill:#CAE3CA}
    .fil21 {fill:#CC33FF}
    .fil24 {fill:#CC6699}
    .fil7 {fill:#CC9933}
    .fil17 {fill:#CCCC33}
    .fil11 {fill:#CD26A0}
    .fil22 {fill:#DE4075}
    .fil5 {fill:#E6E6E6}
    .fil10 {fill:#EDBD3D}
    .fil28 {fill:#F0F0F0}
    .fil13 {fill:#F25900}
    .fil9 {fill:#F54A91}
    .fil12 {fill:#FAE042}
    .fil27 {fill:#FF0066}
    .fil26 {fill:#FF408C}
    .fil8 {fill:#FF9933}
    .fil2 {fill:white}
   ]]>
  </style>
   <clipPath id="id0">
    <path d="M-0 464224.29l0 -464224.29 627077.86 0 0 464224.29 -627077.86 0z"/>
   </clipPath>
 </defs>
 <g id="Layer_x0020_1">
  <metadata id="CorelCorpID_0Corel-Layer"/>
  <polygon class="fil0" points="-0,464224.29 -0,0 627077.86,0 627077.86,464224.29 "/>
  <g style="clip-path:url(#id0)">
   <g id="_69504165712">
    <rect class="fil0" x="-149060.1" y="-27916.24" width="873102.16" height="554868.78"/>
    <polygon class="fil1" points="-52906.85,-239249.62 -52864.85,255442.94 430319.67,8171.39 "/>
    <polygon class="fil2" points="1112975.12,-161986.24 1112912.77,574367.11 393688.16,206301.2 "/>
    <polygon class="fil3" points="-222219.04,-197505.46 1182555.49,-197493.52 480138.38,162145.64 "/>
    <polygon class="fil2" points="655241.51,308482.44 655179.16,1044836.9 -64044.57,676771.21 "/>
    <rect class="fil4" transform="matrix(-0.467655 0.239522 -0 0.467655 274959 188211)" width="79919.96" height="79919.96"/>
    <rect class="fil4" transform="matrix(-0.467655 0.239522 -0 0.467655 274959 227389)" width="79919.96" height="79919.96"/>
    <rect class="fil4" transform="matrix(-0.467655 0.239522 -0 0.467655 274959 266489)" width="79919.96" height="79919.96"/>
    <rect class="fil4" transform="matrix(-0.467655 0.239522 -0 0.467655 235859 208237)" width="79919.96" height="79919.96"/>
    <rect class="fil4" transform="matrix(-0.467655 0.239522 -0 0.467655 235859 286514)" width="79919.96" height="79919.96"/>
    <rect class="fil4" transform="matrix(-0.467655 0.239522 -0 0.467655 196760 228263)" width="79919.96" height="79919.96"/>
    <rect class="fil4" transform="matrix(-0.467655 0.239522 -0 0.467655 196760 267441)" width="79919.96" height="79919.96"/>
    <rect class="fil4" transform="matrix(-0.467655 0.239522 -0 0.467655 196760 306541)" width="79919.96" height="79919.96"/>
    <rect class="fil4" transform="matrix(-0.467655 0.239522 -0 0.467655 274959 149221)" width="79919.96" height="79919.96"/>
    <rect class="fil5" transform="matrix(0.467655 0.239522 -0 0.467655 276329 188140)" width="79919.96" height="79919.96"/>
    <rect class="fil5" transform="matrix(0.467655 0.239522 -0 0.467655 276329 227318)" width="79919.96" height="79919.96"/>
    <rect class="fil5" transform="matrix(0.467655 0.239522 -0 0.467655 276329 266417)" width="79919.96" height="79919.96"/>
    <rect class="fil4" transform="matrix(0.467655 0.239522 -0 0.467655 315429 208166)" width="79919.96" height="79919.96"/>
    <rect class="fil4" transform="matrix(0.467655 0.239522 -0 0.467655 315429 247344)" width="79919.96" height="79919.96"/>
    <rect class="fil4" transform="matrix(0.467655 0.239522 -0 0.467655 315429 286444)" width="79919.96" height="79919.96"/>
    <rect class="fil5" transform="matrix(0.467655 0.239522 -0 0.467655 354529 228192)" width="79919.96" height="79919.96"/>
    <rect class="fil5" transform="matrix(0.467655 0.239522 -0 0.467655 354529 267370)" width="79919.96" height="79919.96"/>
    <rect class="fil5" transform="matrix(0.467655 0.239522 -0 0.467655 354529 306470)" width="79919.96" height="79919.96"/>
    <rect class="fil4" transform="matrix(-0.467655 0.239522 -0 0.467655 509260 188044)" width="79919.96" height="79919.96"/>
    <rect class="fil4" transform="matrix(-0.467655 0.239522 -0 0.467655 509260 227222)" width="79919.96" height="79919.96"/>
    <rect class="fil4" transform="matrix(-0.467655 0.239522 -0 0.467655 509260 266322)" width="79919.96" height="79919.96"/>
    <rect class="fil4" transform="matrix(-0.467655 0.239522 -0 0.467655 470161 208070)" width="79919.96" height="79919.96"/>
    <rect class="fil4" transform="matrix(-0.467655 0.239522 -0 0.467655 470161 286348)" width="79919.96" height="79919.96"/>
    <rect class="fil4" transform="matrix(-0.467655 0.239522 -0 0.467655 431061 228096)" width="79919.96" height="79919.96"/>
    <rect class="fil4" transform="matrix(-0.467655 0.239522 -0 0.467655 431061 267274)" width="79919.96" height="79919.96"/>
    <rect class="fil4" transform="matrix(-0.467655 0.239522 -0 0.467655 431061 306374)" width="79919.96" height="79919.96"/>
    <rect class="fil4" transform="matrix(-0.467655 0.239522 -0 0.467655 470161 363973)" width="79919.96" height="79919.96"/>
    <rect class="fil4" transform="matrix(-0.467655 0.239522 -0 0.467655 509260 305311)" width="79919.96" height="79919.96"/>
    <rect class="fil5" transform="matrix(0.467655 0.239522 -0 0.467655 510755 188140)" width="79919.96" height="79919.96"/>
    <rect class="fil5" transform="matrix(0.467655 0.239522 -0 0.467655 510755 227318)" width="79919.96" height="79919.96"/>
    <rect class="fil5" transform="matrix(0.467655 0.239522 -0 0.467655 510755 266417)" width="79919.96" height="79919.96"/>
    <rect class="fil4" transform="matrix(0.467655 0.239522 -0 0.467655 549855 208166)" width="79919.96" height="79919.96"/>
    <rect class="fil4" transform="matrix(0.467655 0.239522 -0 0.467655 549855 247344)" width="79919.96" height="79919.96"/>
    <rect class="fil4" transform="matrix(0.467655 0.239522 -0 0.467655 549855 286444)" width="79919.96" height="79919.96"/>
    <rect class="fil5" transform="matrix(0.467655 0.239522 -0 0.467655 588955 228192)" width="79919.96" height="79919.96"/>
    <rect class="fil5" transform="matrix(0.467655 0.239522 -0 0.467655 588955 267370)" width="79919.96" height="79919.96"/>
    <rect class="fil5" transform="matrix(0.467655 0.239522 -0 0.467655 588955 306470)" width="79919.96" height="79919.96"/>
    <polygon class="fil6" points="549887.44,206571.59 587774.51,187178.25 625016.22,206254.11 587155.46,225647.22 "/>
    <rect class="fil7" transform="matrix(-0.467655 0.239522 -0 0.467655 743645 188148)" width="79919.96" height="79919.96"/>
    <rect class="fil8" transform="matrix(-0.467655 0.239522 -0 0.467655 743645 227327)" width="79919.96" height="79919.96"/>
    <rect class="fil9" transform="matrix(-0.467655 0.239522 -0 0.467655 743645 266427)" width="79919.96" height="79919.96"/>
    <rect class="fil10" transform="matrix(-0.467655 0.239522 -0 0.467655 704549 208175)" width="79919.96" height="79919.96"/>
    <rect class="fil11" transform="matrix(-0.467655 0.239522 -0 0.467655 704549 286452)" width="79919.96" height="79919.96"/>
    <rect class="fil12" transform="matrix(-0.467655 0.239522 -0 0.467655 665446 228200)" width="79919.96" height="79919.96"/>
    <rect class="fil13" transform="matrix(-0.467655 0.239522 -0 0.467655 665446 267378)" width="79919.96" height="79919.96"/>
    <rect class="fil14" transform="matrix(-0.467655 0.239522 -0 0.467655 665446 306478)" width="79919.96" height="79919.96"/>
    <rect class="fil15" transform="matrix(-0.467655 0.239522 -0 0.467655 665446 345578)" width="79919.96" height="79919.96"/>
    <rect class="fil4" transform="matrix(0.467655 0.239522 -0 0.467655 745193 188140)" width="79919.96" height="79919.96"/>
    <rect class="fil1" transform="matrix(0.467655 0.239522 -0 0.467655 745193 227318)" width="79919.96" height="79919.96"/>
    <rect class="fil3" transform="matrix(0.467655 0.239522 -0 0.467655 745193 266417)" width="79919.96" height="79919.96"/>
    <rect class="fil6" transform="matrix(0.467655 0.239522 -0 0.467655 784296 208166)" width="79919.96" height="79919.96"/>
    <rect class="fil16" transform="matrix(0.467655 0.239522 -0 0.467655 784296 286444)" width="79919.96" height="79919.96"/>
    <rect class="fil17" transform="matrix(0.467655 0.239522 -0 0.467655 823392 228192)" width="79919.96" height="79919.96"/>
    <rect class="fil18" transform="matrix(0.467655 0.239522 -0 0.467655 823392 267370)" width="79919.96" height="79919.96"/>
    <rect class="fil19" transform="matrix(0.467655 0.239522 -0 0.467655 823392 306470)" width="79919.96" height="79919.96"/>
    <rect class="fil20" transform="matrix(-0.467655 0.239522 -0 0.467655 978084 188148)" width="79919.96" height="79919.96"/>
    <rect class="fil21" transform="matrix(-0.467655 0.239522 -0 0.467655 978084 227327)" width="79919.96" height="79919.96"/>
    <rect class="fil22" transform="matrix(-0.467655 0.239522 -0 0.467655 978084 266427)" width="79919.96" height="79919.96"/>
    <rect class="fil23" transform="matrix(-0.467655 0.239522 -0 0.467655 938988 208175)" width="79919.96" height="79919.96"/>
    <rect class="fil24" transform="matrix(-0.467655 0.239522 -0 0.467655 938988 286452)" width="79919.96" height="79919.96"/>
    <rect class="fil15" transform="matrix(-0.467655 0.239522 -0 0.467655 899885 228200)" width="79919.96" height="79919.96"/>
    <rect class="fil25" transform="matrix(-0.467655 0.239522 -0 0.467655 899885 267378)" width="79919.96" height="79919.96"/>
    <rect class="fil26" transform="matrix(-0.467655 0.239522 -0 0.467655 899885 306478)" width="79919.96" height="79919.96"/>
    <rect class="fil27" transform="matrix(-0.467655 0.239522 -0 0.467655 899885 345578)" width="79919.96" height="79919.96"/>
    <polygon class="fil5" points="394464.18,364332.63 432187.86,345021.98 468023.9,363261.24 430818.89,382615.22 "/>
    <polygon class="fil28" points="588985.62,226591.93 626865.39,207191.52 664892.85,226679.7 627023.47,246058 "/>
    <polygon class="fil6" points="315570.72,206571.59 353458.01,187178.25 390699.5,206254.11 352838.74,225647.22 "/>
    <polygon class="fil28" points="354668.9,226591.93 392548.67,207191.52 430576.13,226679.7 392706.75,246058 "/>
    <polygon class="fil29" points="783990.37,284753.14 821870.14,265353.39 822028.88,304219.22 "/>
   </g>
  </g>
  <polygon class="fil30" points="-0,464224.29 -0,0 627077.86,0 627077.86,464224.29 "/>
 </g>
</svg>
