<?xml version="1.0" encoding="UTF-8"?>
<!DOCTYPE svg PUBLIC "-//W3C//DTD SVG 1.1//EN" "http://www.w3.org/Graphics/SVG/1.1/DTD/svg11.dtd">
<!-- Creator: CorelDRAW 2017 -->
<svg xmlns="http://www.w3.org/2000/svg" xml:space="preserve" width="421.843mm" height="216.195mm" version="1.1" style="shape-rendering:geometricPrecision; text-rendering:geometricPrecision; image-rendering:optimizeQuality; fill-rule:evenodd; clip-rule:evenodd"
viewBox="0 0 43654.94 22373.16"
 xmlns:xlink="http://www.w3.org/1999/xlink">
 <defs>
  <style type="text/css">
   <![CDATA[
    .fil32 {fill:none}
    .fil15 {fill:#23946E}
    .fil16 {fill:#239649}
    .fil17 {fill:#26704B}
    .fil22 {fill:#33CC33}
    .fil2 {fill:#4D4D4D}
    .fil19 {fill:#59A359}
    .fil14 {fill:#6600CC}
    .fil18 {fill:#7EB57E}
    .fil4 {fill:gray}
    .fil26 {fill:#9900FF}
    .fil28 {fill:#9933CC}
    .fil23 {fill:#9966FF}
    .fil1 {fill:#999999}
    .fil21 {fill:#99FF00}
    .fil31 {fill:#CAE3CA}
    .fil24 {fill:#CC33FF}
    .fil27 {fill:#CC6699}
    .fil7 {fill:#CC9933}
    .fil20 {fill:#CCCC33}
    .fil6 {fill:#CCCCCC}
    .fil25 {fill:#DE4075}
    .fil5 {fill:#E6E6E6}
    .fil30 {fill:#F0F0F0}
    .fil3 {fill:#FF0066}
    .fil29 {fill:#FF408C}
    .fil8 {fill:#FF9933}
    .fil0 {fill:#FAE042}
    .fil10 {fill:#EDBD3D}
    .fil12 {fill:#F25900}
    .fil9 {fill:#F54A91}
    .fil11 {fill:#CD26A0}
    .fil13 {fill:#C4008F}
   ]]>
  </style>
   <clipPath id="id0">
    <path d="M-0 0l43654.94 0 0 22373.16 -43654.94 0 0 -22373.16z"/>
   </clipPath>
 </defs>
 <g id="Capa_x0020_1">
  <metadata id="CorelCorpID_0Corel-Layer"/>
  <g>
  </g>
  <g style="clip-path:url(#id0)">
   <g>
    <polygon class="fil0" points="-1391.34,1696.69 -1389.59,22450.13 18881.08,12076.55 "/>
    <polygon class="fil1" points="54528.42,-2999.92 54525.82,27891.77 24352.75,12450.59 "/>
    <polygon class="fil2" points="-545.87,-4623.04 58387.55,-4622.54 28919.58,10465.12 "/>
    <polygon class="fil3" points="-5634.76,-17721.3 -5637.37,13170.39 -35810.44,-2270.79 "/>
    <g id="_2856703407024">
     <rect class="fil4" transform="matrix(-0.85509 0.437958 -0 0.85509 -21298 5492.5)" width="3740.87" height="3740.87"/>
     <rect class="fil4" transform="matrix(-0.85509 0.437958 -0 0.85509 -21298 8845.6)" width="3740.87" height="3740.87"/>
     <rect class="fil4" transform="matrix(-0.85509 0.437958 -0 0.85509 -21298 12192)" width="3740.87" height="3740.87"/>
     <rect class="fil4" transform="matrix(-0.85509 0.437958 -0 0.85509 -24644.5 7206.46)" width="3740.87" height="3740.87"/>
     <rect class="fil4" transform="matrix(-0.85509 0.437958 -0 0.85509 -24644.5 13906)" width="3740.87" height="3740.87"/>
     <rect class="fil4" transform="matrix(-0.85509 0.437958 -0 0.85509 -27990.9 8920.42)" width="3740.87" height="3740.87"/>
     <rect class="fil4" transform="matrix(-0.85509 0.437958 -0 0.85509 -27990.9 12273.5)" width="3740.87" height="3740.87"/>
     <rect class="fil4" transform="matrix(-0.85509 0.437958 -0 0.85509 -27990.9 15619.9)" width="3740.87" height="3740.87"/>
     <rect class="fil4" transform="matrix(-0.85509 0.437958 -0 0.85509 -21298 2155.49)" width="3740.87" height="3740.87"/>
     <rect class="fil5" transform="matrix(0.85509 0.437958 -0 0.85509 -21180.8 5486.42)" width="3740.87" height="3740.87"/>
     <rect class="fil5" transform="matrix(0.85509 0.437958 -0 0.85509 -21180.8 8839.52)" width="3740.87" height="3740.87"/>
     <rect class="fil5" transform="matrix(0.85509 0.437958 -0 0.85509 -21180.8 12185.9)" width="3740.87" height="3740.87"/>
     <rect class="fil4" transform="matrix(0.85509 0.437958 -0 0.85509 -17834.4 7200.38)" width="3740.87" height="3740.87"/>
     <rect class="fil4" transform="matrix(0.85509 0.437958 -0 0.85509 -17834.4 10553.5)" width="3740.87" height="3740.87"/>
     <rect class="fil4" transform="matrix(0.85509 0.437958 -0 0.85509 -17834.4 13899.9)" width="3740.87" height="3740.87"/>
     <rect class="fil5" transform="matrix(0.85509 0.437958 -0 0.85509 -14488 8914.34)" width="3740.87" height="3740.87"/>
     <rect class="fil5" transform="matrix(0.85509 0.437958 -0 0.85509 -14488 12267.4)" width="3740.87" height="3740.87"/>
     <rect class="fil5" transform="matrix(0.85509 0.437958 -0 0.85509 -14488 15613.8)" width="3740.87" height="3740.87"/>
     <rect class="fil4" transform="matrix(-0.85509 0.437958 -0 0.85509 -1245.04 5478.2)" width="3740.87" height="3740.87"/>
     <rect class="fil4" transform="matrix(-0.85509 0.437958 -0 0.85509 -1245.04 8831.3)" width="3740.87" height="3740.87"/>
     <rect class="fil4" transform="matrix(-0.85509 0.437958 -0 0.85509 -1245.04 12177.7)" width="3740.87" height="3740.87"/>
     <rect class="fil4" transform="matrix(-0.85509 0.437958 -0 0.85509 -4591.45 7192.16)" width="3740.87" height="3740.87"/>
     <rect class="fil4" transform="matrix(-0.85509 0.437958 -0 0.85509 -4591.45 13891.7)" width="3740.87" height="3740.87"/>
     <rect class="fil4" transform="matrix(-0.85509 0.437958 -0 0.85509 -7937.87 8906.12)" width="3740.87" height="3740.87"/>
     <rect class="fil4" transform="matrix(-0.85509 0.437958 -0 0.85509 -7937.87 12259.2)" width="3740.87" height="3740.87"/>
     <rect class="fil4" transform="matrix(-0.85509 0.437958 -0 0.85509 -7937.87 15605.6)" width="3740.87" height="3740.87"/>
     <rect class="fil4" transform="matrix(-0.85509 0.437958 -0 0.85509 -4591.45 20535.3)" width="3740.87" height="3740.87"/>
     <rect class="fil4" transform="matrix(-0.85509 0.437958 -0 0.85509 -1245.04 15514.7)" width="3740.87" height="3740.87"/>
     <rect class="fil5" transform="matrix(0.85509 0.437958 -0 0.85509 -1117.14 5486.42)" width="3740.87" height="3740.87"/>
     <rect class="fil5" transform="matrix(0.85509 0.437958 -0 0.85509 -1117.14 8839.52)" width="3740.87" height="3740.87"/>
     <rect class="fil5" transform="matrix(0.85509 0.437958 -0 0.85509 -1117.14 12185.9)" width="3740.87" height="3740.87"/>
     <rect class="fil4" transform="matrix(0.85509 0.437958 -0 0.85509 2229.27 7200.38)" width="3740.87" height="3740.87"/>
     <rect class="fil4" transform="matrix(0.85509 0.437958 -0 0.85509 2229.27 10553.5)" width="3740.87" height="3740.87"/>
     <rect class="fil4" transform="matrix(0.85509 0.437958 -0 0.85509 2229.27 13899.9)" width="3740.87" height="3740.87"/>
     <rect class="fil5" transform="matrix(0.85509 0.437958 -0 0.85509 5575.69 8914.34)" width="3740.87" height="3740.87"/>
     <rect class="fil5" transform="matrix(0.85509 0.437958 -0 0.85509 5575.69 12267.4)" width="3740.87" height="3740.87"/>
     <rect class="fil5" transform="matrix(0.85509 0.437958 -0 0.85509 5575.69 15613.8)" width="3740.87" height="3740.87"/>
     <polygon class="fil6" points="2232.05,7063.94 5474.69,5404.15 8662.04,7036.77 5421.68,8696.54 "/>
     <rect class="fil7" transform="matrix(-0.85509 0.437958 -0 0.85509 18815.3 5487.16)" width="3740.87" height="3740.87"/>
     <rect class="fil8" transform="matrix(-0.85509 0.437958 -0 0.85509 18815.3 8840.26)" width="3740.87" height="3740.87"/>
     <rect class="fil9" transform="matrix(-0.85509 0.437958 -0 0.85509 18815.3 12186.7)" width="3740.87" height="3740.87"/>
     <rect class="fil10" transform="matrix(-0.85509 0.437958 -0 0.85509 15468.9 7201.12)" width="3740.87" height="3740.87"/>
     <rect class="fil11" transform="matrix(-0.85509 0.437958 -0 0.85509 15468.9 13900.6)" width="3740.87" height="3740.87"/>
     <rect class="fil0" transform="matrix(-0.85509 0.437958 -0 0.85509 12122.5 8915.08)" width="3740.87" height="3740.87"/>
     <rect class="fil12" transform="matrix(-0.85509 0.437958 -0 0.85509 12122.5 12268.2)" width="3740.87" height="3740.87"/>
     <rect class="fil13" transform="matrix(-0.85509 0.437958 -0 0.85509 12122.5 15614.6)" width="3740.87" height="3740.87"/>
     <rect class="fil14" transform="matrix(-0.85509 0.437958 -0 0.85509 12122.5 18961)" width="3740.87" height="3740.87"/>
     <rect class="fil15" transform="matrix(0.85509 0.437958 -0 0.85509 18947.6 5486.42)" width="3740.87" height="3740.87"/>
     <rect class="fil16" transform="matrix(0.85509 0.437958 -0 0.85509 18947.6 8839.52)" width="3740.87" height="3740.87"/>
     <rect class="fil17" transform="matrix(0.85509 0.437958 -0 0.85509 18947.6 12185.9)" width="3740.87" height="3740.87"/>
     <rect class="fil18" transform="matrix(0.85509 0.437958 -0 0.85509 22294 7200.38)" width="3740.87" height="3740.87"/>
     <rect class="fil19" transform="matrix(0.85509 0.437958 -0 0.85509 22294 13899.9)" width="3740.87" height="3740.87"/>
     <rect class="fil20" transform="matrix(0.85509 0.437958 -0 0.85509 25640.4 8914.34)" width="3740.87" height="3740.87"/>
     <rect class="fil21" transform="matrix(0.85509 0.437958 -0 0.85509 25640.4 12267.4)" width="3740.87" height="3740.87"/>
     <rect class="fil22" transform="matrix(0.85509 0.437958 -0 0.85509 25640.4 15613.8)" width="3740.87" height="3740.87"/>
     <rect class="fil23" transform="matrix(-0.85509 0.437958 -0 0.85509 38880 5487.16)" width="3740.87" height="3740.87"/>
     <rect class="fil24" transform="matrix(-0.85509 0.437958 -0 0.85509 38880 8840.26)" width="3740.87" height="3740.87"/>
     <rect class="fil25" transform="matrix(-0.85509 0.437958 -0 0.85509 38880 12186.7)" width="3740.87" height="3740.87"/>
     <rect class="fil26" transform="matrix(-0.85509 0.437958 -0 0.85509 35533.6 7201.12)" width="3740.87" height="3740.87"/>
     <rect class="fil27" transform="matrix(-0.85509 0.437958 -0 0.85509 35533.6 13900.6)" width="3740.87" height="3740.87"/>
     <rect class="fil14" transform="matrix(-0.85509 0.437958 -0 0.85509 32187.2 8915.08)" width="3740.87" height="3740.87"/>
     <rect class="fil28" transform="matrix(-0.85509 0.437958 -0 0.85509 32187.2 12268.2)" width="3740.87" height="3740.87"/>
     <rect class="fil29" transform="matrix(-0.85509 0.437958 -0 0.85509 32187.2 15614.6)" width="3740.87" height="3740.87"/>
     <rect class="fil3" transform="matrix(-0.85509 0.437958 -0 0.85509 32187.2 18961)" width="3740.87" height="3740.87"/>
     <polygon class="fil5" points="-11070.04,20566.13 -7841.41,18913.41 -4774.35,20474.43 -7958.59,22130.89 "/>
     <polygon class="fil30" points="5578.33,8777.37 8820.32,7117.01 12074.95,8784.92 8833.87,10443.42 "/>
     <polygon class="fil6" points="-17822.25,7063.94 -14579.6,5404.15 -11392.26,7036.77 -14632.61,8696.54 "/>
     <polygon class="fil30" points="-14475.96,8777.37 -11233.98,7117.01 -7979.35,8784.92 -11220.43,10443.42 "/>
     <polygon class="fil31" points="22268.08,13755.19 25510.05,12094.83 25523.61,15421.26 "/>
    </g>
   </g>
  </g>
  <polygon class="fil32" points="-0,0 43654.94,0 43654.94,22373.16 -0,22373.16 "/>
 </g>
</svg>
