<?xml version="1.0" encoding="UTF-8"?>
<!DOCTYPE svg PUBLIC "-//W3C//DTD SVG 1.1//EN" "http://www.w3.org/Graphics/SVG/1.1/DTD/svg11.dtd">
<!-- Creator: CorelDRAW 2017 -->
<svg xmlns="http://www.w3.org/2000/svg" xml:space="preserve" width="7.27521in" height="9.18974in" version="1.1" style="shape-rendering:geometricPrecision; text-rendering:geometricPrecision; image-rendering:optimizeQuality; fill-rule:evenodd; clip-rule:evenodd"
viewBox="0 0 7736.94 9772.98"
 xmlns:xlink="http://www.w3.org/1999/xlink">
 <defs>
  <style type="text/css">
   <![CDATA[
    .fil33 {fill:none}
    .fil15 {fill:#23946E}
    .fil16 {fill:#239649}
    .fil17 {fill:#26704B}
    .fil2 {fill:#333333}
    .fil22 {fill:#33CC33}
    .fil3 {fill:#4D4D4D}
    .fil19 {fill:#59A359}
    .fil14 {fill:#6600CC}
    .fil18 {fill:#7EB57E}
    .fil4 {fill:gray}
    .fil26 {fill:#9900FF}
    .fil28 {fill:#9933CC}
    .fil23 {fill:#9966FF}
    .fil21 {fill:#99FF00}
    .fil32 {fill:#CAE3CA}
    .fil24 {fill:#CC33FF}
    .fil27 {fill:#CC6699}
    .fil6 {fill:#CC9933}
    .fil20 {fill:#CCCC33}
    .fil1 {fill:#CCCCCC}
    .fil25 {fill:#DE4075}
    .fil5 {fill:#E6E6E6}
    .fil31 {fill:#F0F0F0}
    .fil30 {fill:#FF0066}
    .fil29 {fill:#FF408C}
    .fil7 {fill:#FF9933}
    .fil0 {fill:white}
    .fil11 {fill:#FAE042}
    .fil9 {fill:#EDBD3D}
    .fil12 {fill:#F25900}
    .fil8 {fill:#F54A91}
    .fil10 {fill:#CD26A0}
    .fil13 {fill:#C4008F}
   ]]>
  </style>
   <clipPath id="id0">
    <path d="M-0 0l7736.94 0 0 9772.98 -7736.94 0 0 -9772.98z"/>
   </clipPath>
     <mask id="id1">
  <linearGradient id="id2" gradientUnits="userSpaceOnUse" x1="4540.9" y1="-1050.25" x2="2676.68" y2="8426.19">
   <stop offset="0" style="stop-opacity:1; stop-color:white"/>
   <stop offset="1" style="stop-opacity:0; stop-color:white"/>
  </linearGradient>
      <rect style="fill:url(#id2)" x="-737.17" y="-2338.35" width="8791.32" height="13328.78"/>
     </mask>
 </defs>
 <g id="Capa_x0020_1">
  <metadata id="CorelCorpID_0Corel-Layer"/>
  <polygon class="fil0" points="-0,0 7736.94,0 7736.94,9772.98 -0,9772.98 "/>
  <g style="clip-path:url(#id0)">
   <g id="_393982130224">
    <rect class="fil1" x="-737.17" y="-544.31" width="8791.32" height="11875.38"/>
    <polygon class="fil2" points="-2381.56,-1991.11 -2380.94,5367.02 4806.02,1689.07 "/>
    <polygon class="fil1" points="14959.93,-841.89 14959.01,10110.75 4261.16,4636.08 "/>
    <polygon class="fil3" points="-4899.94,-1370.2 15994.88,-1370.02 5547.03,3979.3 "/>
    <polygon class="fil4" points="8151.54,6155.94 8150.62,17108.57 -2547.23,11633.91 "/>
    <g>
     <rect class="fil4" transform="matrix(-0.367309 0.188127 -0 0.367309 2495.16 4367)" width="1513.49" height="1513.49"/>
     <rect class="fil4" transform="matrix(-0.367309 0.188127 -0 0.367309 2495.16 4949.74)" width="1513.49" height="1513.49"/>
     <rect class="fil4" transform="matrix(-0.367309 0.188127 -0 0.367309 2495.16 5531.31)" width="1513.49" height="1513.49"/>
     <rect class="fil4" transform="matrix(-0.367309 0.188127 -0 0.367309 1913.59 4664.87)" width="1513.49" height="1513.49"/>
     <rect class="fil4" transform="matrix(-0.367309 0.188127 -0 0.367309 1913.59 5829.18)" width="1513.49" height="1513.49"/>
     <rect class="fil4" transform="matrix(-0.367309 0.188127 -0 0.367309 1332.01 4962.74)" width="1513.49" height="1513.49"/>
     <rect class="fil4" transform="matrix(-0.367309 0.188127 -0 0.367309 1332.01 5545.48)" width="1513.49" height="1513.49"/>
     <rect class="fil4" transform="matrix(-0.367309 0.188127 -0 0.367309 1332.01 6127.05)" width="1513.49" height="1513.49"/>
     <rect class="fil4" transform="matrix(-0.367309 0.188127 -0 0.367309 2495.16 3787.06)" width="1513.49" height="1513.49"/>
     <rect class="fil5" transform="matrix(0.367309 0.188127 -0 0.367309 2515.53 4365.94)" width="1513.49" height="1513.49"/>
     <rect class="fil5" transform="matrix(0.367309 0.188127 -0 0.367309 2515.53 4948.68)" width="1513.49" height="1513.49"/>
     <rect class="fil5" transform="matrix(0.367309 0.188127 -0 0.367309 2515.53 5530.26)" width="1513.49" height="1513.49"/>
     <rect class="fil4" transform="matrix(0.367309 0.188127 -0 0.367309 3097.11 4663.81)" width="1513.49" height="1513.49"/>
     <rect class="fil4" transform="matrix(0.367309 0.188127 -0 0.367309 3097.11 5246.55)" width="1513.49" height="1513.49"/>
     <rect class="fil4" transform="matrix(0.367309 0.188127 -0 0.367309 3097.11 5828.13)" width="1513.49" height="1513.49"/>
     <rect class="fil5" transform="matrix(0.367309 0.188127 -0 0.367309 3678.69 4961.68)" width="1513.49" height="1513.49"/>
     <rect class="fil5" transform="matrix(0.367309 0.188127 -0 0.367309 3678.69 5544.42)" width="1513.49" height="1513.49"/>
     <rect class="fil5" transform="matrix(0.367309 0.188127 -0 0.367309 3678.69 6126)" width="1513.49" height="1513.49"/>
     <rect class="fil4" transform="matrix(-0.367309 0.188127 -0 0.367309 5980.2 4364.51)" width="1513.49" height="1513.49"/>
     <rect class="fil4" transform="matrix(-0.367309 0.188127 -0 0.367309 5980.2 4947.25)" width="1513.49" height="1513.49"/>
     <rect class="fil4" transform="matrix(-0.367309 0.188127 -0 0.367309 5980.2 5528.83)" width="1513.49" height="1513.49"/>
     <rect class="fil4" transform="matrix(-0.367309 0.188127 -0 0.367309 5398.62 4662.38)" width="1513.49" height="1513.49"/>
     <rect class="fil4" transform="matrix(-0.367309 0.188127 -0 0.367309 5398.62 5826.7)" width="1513.49" height="1513.49"/>
     <rect class="fil4" transform="matrix(-0.367309 0.188127 -0 0.367309 4817.04 4960.26)" width="1513.49" height="1513.49"/>
     <rect class="fil4" transform="matrix(-0.367309 0.188127 -0 0.367309 4817.04 5542.99)" width="1513.49" height="1513.49"/>
     <rect class="fil4" transform="matrix(-0.367309 0.188127 -0 0.367309 4817.04 6124.57)" width="1513.49" height="1513.49"/>
     <rect class="fil4" transform="matrix(-0.367309 0.188127 -0 0.367309 5398.62 6981.3)" width="1513.49" height="1513.49"/>
     <rect class="fil4" transform="matrix(-0.367309 0.188127 -0 0.367309 5980.2 6108.77)" width="1513.49" height="1513.49"/>
     <rect class="fil5" transform="matrix(0.367309 0.188127 -0 0.367309 6002.42 4365.94)" width="1513.49" height="1513.49"/>
     <rect class="fil5" transform="matrix(0.367309 0.188127 -0 0.367309 6002.42 4948.68)" width="1513.49" height="1513.49"/>
     <rect class="fil5" transform="matrix(0.367309 0.188127 -0 0.367309 6002.42 5530.26)" width="1513.49" height="1513.49"/>
     <rect class="fil4" transform="matrix(0.367309 0.188127 -0 0.367309 6584 4663.81)" width="1513.49" height="1513.49"/>
     <rect class="fil4" transform="matrix(0.367309 0.188127 -0 0.367309 6584 5246.55)" width="1513.49" height="1513.49"/>
     <rect class="fil4" transform="matrix(0.367309 0.188127 -0 0.367309 6584 5828.13)" width="1513.49" height="1513.49"/>
     <rect class="fil5" transform="matrix(0.367309 0.188127 -0 0.367309 7165.58 4961.68)" width="1513.49" height="1513.49"/>
     <rect class="fil5" transform="matrix(0.367309 0.188127 -0 0.367309 7165.58 5544.42)" width="1513.49" height="1513.49"/>
     <rect class="fil5" transform="matrix(0.367309 0.188127 -0 0.367309 7165.58 6126)" width="1513.49" height="1513.49"/>
     <polygon class="fil1" points="6584.48,4640.1 7148.03,4351.64 7701.96,4635.38 7138.82,4923.83 "/>
     <rect class="fil6" transform="matrix(-0.367309 0.188127 -0 0.367309 9466.51 4366.07)" width="1513.49" height="1513.49"/>
     <rect class="fil7" transform="matrix(-0.367309 0.188127 -0 0.367309 9466.51 4948.81)" width="1513.49" height="1513.49"/>
     <rect class="fil8" transform="matrix(-0.367309 0.188127 -0 0.367309 9466.51 5530.39)" width="1513.49" height="1513.49"/>
     <rect class="fil9" transform="matrix(-0.367309 0.188127 -0 0.367309 8884.93 4663.94)" width="1513.49" height="1513.49"/>
     <rect class="fil10" transform="matrix(-0.367309 0.188127 -0 0.367309 8884.93 5828.26)" width="1513.49" height="1513.49"/>
     <rect class="fil11" transform="matrix(-0.367309 0.188127 -0 0.367309 8303.35 4961.81)" width="1513.49" height="1513.49"/>
     <rect class="fil12" transform="matrix(-0.367309 0.188127 -0 0.367309 8303.35 5544.55)" width="1513.49" height="1513.49"/>
     <rect class="fil13" transform="matrix(-0.367309 0.188127 -0 0.367309 8303.35 6126.13)" width="1513.49" height="1513.49"/>
     <rect class="fil14" transform="matrix(-0.367309 0.188127 -0 0.367309 8303.35 6707.71)" width="1513.49" height="1513.49"/>
     <rect class="fil15" transform="matrix(0.367309 0.188127 -0 0.367309 9489.5 4365.94)" width="1513.49" height="1513.49"/>
     <rect class="fil16" transform="matrix(0.367309 0.188127 -0 0.367309 9489.5 4948.68)" width="1513.49" height="1513.49"/>
     <rect class="fil17" transform="matrix(0.367309 0.188127 -0 0.367309 9489.5 5530.26)" width="1513.49" height="1513.49"/>
     <rect class="fil18" transform="matrix(0.367309 0.188127 -0 0.367309 10071.1 4663.81)" width="1513.49" height="1513.49"/>
     <rect class="fil19" transform="matrix(0.367309 0.188127 -0 0.367309 10071.1 5828.13)" width="1513.49" height="1513.49"/>
     <rect class="fil20" transform="matrix(0.367309 0.188127 -0 0.367309 10652.7 4961.68)" width="1513.49" height="1513.49"/>
     <rect class="fil21" transform="matrix(0.367309 0.188127 -0 0.367309 10652.7 5544.42)" width="1513.49" height="1513.49"/>
     <rect class="fil22" transform="matrix(0.367309 0.188127 -0 0.367309 10652.7 6126)" width="1513.49" height="1513.49"/>
     <rect class="fil23" transform="matrix(-0.367309 0.188127 -0 0.367309 12953.6 4366.07)" width="1513.49" height="1513.49"/>
     <rect class="fil24" transform="matrix(-0.367309 0.188127 -0 0.367309 12953.6 4948.81)" width="1513.49" height="1513.49"/>
     <rect class="fil25" transform="matrix(-0.367309 0.188127 -0 0.367309 12953.6 5530.39)" width="1513.49" height="1513.49"/>
     <rect class="fil26" transform="matrix(-0.367309 0.188127 -0 0.367309 12372 4663.94)" width="1513.49" height="1513.49"/>
     <rect class="fil27" transform="matrix(-0.367309 0.188127 -0 0.367309 12372 5828.26)" width="1513.49" height="1513.49"/>
     <rect class="fil14" transform="matrix(-0.367309 0.188127 -0 0.367309 11790.4 4961.81)" width="1513.49" height="1513.49"/>
     <rect class="fil28" transform="matrix(-0.367309 0.188127 -0 0.367309 11790.4 5544.55)" width="1513.49" height="1513.49"/>
     <rect class="fil29" transform="matrix(-0.367309 0.188127 -0 0.367309 11790.4 6126.13)" width="1513.49" height="1513.49"/>
     <rect class="fil30" transform="matrix(-0.367309 0.188127 -0 0.367309 11790.4 6707.71)" width="1513.49" height="1513.49"/>
     <polygon class="fil5" points="4272.7,6986.66 4833.81,6699.43 5366.83,6970.73 4813.44,7258.6 "/>
     <polygon class="fil31" points="7166.04,4937.88 7729.47,4649.32 8295.09,4939.19 7731.82,5227.42 "/>
     <polygon class="fil1" points="3099.23,4640.1 3662.77,4351.64 4216.7,4635.38 3653.56,4923.83 "/>
     <polygon class="fil31" points="3680.78,4937.88 4244.21,4649.32 4809.83,4939.19 4246.56,5227.42 "/>
     <polygon class="fil32" points="10066.57,5802.98 10630,5514.43 10632.35,6092.53 "/>
    </g>
    <polygon class="fil0" style="mask:url(#id1)" points="-737.17,-2338.35 8054.15,-2338.35 8054.15,10990.43 -737.17,10990.43 "/>
   </g>
  </g>
  <polygon class="fil33" points="-0,0 7736.94,0 7736.94,9772.98 -0,9772.98 "/>
 </g>
</svg>
