<?xml version="1.0" encoding="UTF-8"?>
<!DOCTYPE svg PUBLIC "-//W3C//DTD SVG 1.1//EN" "http://www.w3.org/Graphics/SVG/1.1/DTD/svg11.dtd">
<!-- Creator: CorelDRAW 2017 -->
<svg xmlns="http://www.w3.org/2000/svg" xml:space="preserve" width="7.2752in" height="9.18974in" version="1.1" style="shape-rendering:geometricPrecision; text-rendering:geometricPrecision; image-rendering:optimizeQuality; fill-rule:evenodd; clip-rule:evenodd"
viewBox="0 0 3271.99 4133.04"
 xmlns:xlink="http://www.w3.org/1999/xlink">
 <defs>
  <style type="text/css">
   <![CDATA[
    .str0 {stroke:#6FD18F;stroke-width:1.35;stroke-miterlimit:2.61313}
    .fil31 {fill:none}
    .fil15 {fill:#23946E}
    .fil16 {fill:#239649}
    .fil17 {fill:#26704B}
    .fil22 {fill:#33CC33}
    .fil0 {fill:#553C6E}
    .fil19 {fill:#59A359}
    .fil3 {fill:#6600CC}
    .fil18 {fill:#7EB57E}
    .fil1 {fill:#8737D6}
    .fil26 {fill:#9900FF}
    .fil28 {fill:#9933CC}
    .fil23 {fill:#9966FF}
    .fil21 {fill:#99FF00}
    .fil14 {fill:#C4008F}
    .fil2 {fill:#CAE3CA}
    .fil24 {fill:#CC33FF}
    .fil27 {fill:#CC6699}
    .fil8 {fill:#CC9933}
    .fil20 {fill:#CCCC33}
    .fil12 {fill:#CD26A0}
    .fil25 {fill:#DE4075}
    .fil7 {fill:#E6E6E6}
    .fil11 {fill:#EDBD3D}
    .fil6 {fill:#F0F0F0}
    .fil5 {fill:#F25900}
    .fil10 {fill:#F54A91}
    .fil13 {fill:#FAE042}
    .fil30 {fill:#FF0066}
    .fil29 {fill:#FF408C}
    .fil9 {fill:#FF9933}
    .fil4 {fill:white}
   ]]>
  </style>
   <clipPath id="id0">
    <path d="M-0 0l3271.99 0 0 4133.04 -3271.99 0 0 -4133.04z"/>
   </clipPath>
 </defs>
 <g id="Layer_x0020_1">
  <metadata id="CorelCorpID_0Corel-Layer"/>
  <g>
  </g>
  <g style="clip-path:url(#id0)">
   <g>
    <rect class="fil0 str0" x="-311.75" y="-228.42" width="3717.89" height="5022.16"/>
    <polygon class="fil1" points="-1007.18,-840.28 -1006.91,2271.51 2032.49,716.08 "/>
    <polygon class="fil2" points="6326.63,-354.27 6326.24,4277.66 1802.06,1962.39 "/>
    <polygon class="fil3" points="-2072.21,-577.69 6764.32,-577.62 2345.87,1684.64 "/>
    <polygon class="fil4" points="3447.33,2603.38 3446.94,7235.3 -1077.24,4920.04 "/>
    <rect class="fil5" transform="matrix(-0.367309 0.188127 -0 0.367309 1055.21 1848.59)" width="640.06" height="640.06"/>
    <rect class="fil5" transform="matrix(-0.367309 0.188127 -0 0.367309 1055.21 2095.04)" width="640.06" height="640.06"/>
    <rect class="fil5" transform="matrix(-0.367309 0.188127 -0 0.367309 1055.21 2340.99)" width="640.06" height="640.06"/>
    <rect class="fil5" transform="matrix(-0.367309 0.188127 -0 0.367309 809.266 1974.57)" width="640.06" height="640.06"/>
    <rect class="fil5" transform="matrix(-0.367309 0.188127 -0 0.367309 809.266 2466.96)" width="640.06" height="640.06"/>
    <rect class="fil5" transform="matrix(-0.367309 0.188127 -0 0.367309 563.313 2100.54)" width="640.06" height="640.06"/>
    <rect class="fil5" transform="matrix(-0.367309 0.188127 -0 0.367309 563.313 2346.98)" width="640.06" height="640.06"/>
    <rect class="fil5" transform="matrix(-0.367309 0.188127 -0 0.367309 563.313 2592.93)" width="640.06" height="640.06"/>
    <rect class="fil5" transform="matrix(-0.367309 0.188127 -0 0.367309 1055.21 1603.33)" width="640.06" height="640.06"/>
    <rect class="fil4" transform="matrix(0.367309 0.188127 -0 0.367309 1063.83 1848.15)" width="640.06" height="640.06"/>
    <rect class="fil6" transform="matrix(0.367309 0.188127 -0 0.367309 1063.83 2094.59)" width="640.06" height="640.06"/>
    <rect class="fil6" transform="matrix(0.367309 0.188127 -0 0.367309 1063.83 2340.54)" width="640.06" height="640.06"/>
    <rect class="fil5" transform="matrix(0.367309 0.188127 -0 0.367309 1309.78 1974.12)" width="640.06" height="640.06"/>
    <rect class="fil5" transform="matrix(0.367309 0.188127 -0 0.367309 1309.78 2220.56)" width="640.06" height="640.06"/>
    <rect class="fil5" transform="matrix(0.367309 0.188127 -0 0.367309 1309.78 2466.51)" width="640.06" height="640.06"/>
    <rect class="fil4" transform="matrix(0.367309 0.188127 -0 0.367309 1555.74 2100.09)" width="640.06" height="640.06"/>
    <rect class="fil6" transform="matrix(0.367309 0.188127 -0 0.367309 1555.74 2346.54)" width="640.06" height="640.06"/>
    <rect class="fil6" transform="matrix(0.367309 0.188127 -0 0.367309 1555.74 2592.48)" width="640.06" height="640.06"/>
    <rect class="fil5" transform="matrix(-0.367309 0.188127 -0 0.367309 2529.06 1847.55)" width="640.06" height="640.06"/>
    <rect class="fil5" transform="matrix(-0.367309 0.188127 -0 0.367309 2529.06 2093.99)" width="640.06" height="640.06"/>
    <rect class="fil5" transform="matrix(-0.367309 0.188127 -0 0.367309 2529.06 2339.94)" width="640.06" height="640.06"/>
    <rect class="fil5" transform="matrix(-0.367309 0.188127 -0 0.367309 2283.1 1973.52)" width="640.06" height="640.06"/>
    <rect class="fil5" transform="matrix(-0.367309 0.188127 -0 0.367309 2283.1 2465.91)" width="640.06" height="640.06"/>
    <rect class="fil5" transform="matrix(-0.367309 0.188127 -0 0.367309 2037.15 2099.49)" width="640.06" height="640.06"/>
    <rect class="fil5" transform="matrix(-0.367309 0.188127 -0 0.367309 2037.15 2345.93)" width="640.06" height="640.06"/>
    <rect class="fil5" transform="matrix(-0.367309 0.188127 -0 0.367309 2037.15 2591.88)" width="640.06" height="640.06"/>
    <rect class="fil5" transform="matrix(-0.367309 0.188127 -0 0.367309 2283.1 2954.2)" width="640.06" height="640.06"/>
    <rect class="fil5" transform="matrix(-0.367309 0.188127 -0 0.367309 2529.06 2585.2)" width="640.06" height="640.06"/>
    <rect class="fil7" transform="matrix(0.367309 0.188127 -0 0.367309 2538.45 1848.15)" width="640.06" height="640.06"/>
    <rect class="fil7" transform="matrix(0.367309 0.188127 -0 0.367309 2538.45 2094.59)" width="640.06" height="640.06"/>
    <rect class="fil7" transform="matrix(0.367309 0.188127 -0 0.367309 2538.45 2338.77)" width="640.06" height="640.06"/>
    <rect class="fil5" transform="matrix(0.367309 0.188127 -0 0.367309 2784.41 1974.12)" width="640.06" height="640.06"/>
    <rect class="fil5" transform="matrix(0.367309 0.188127 -0 0.367309 2784.41 2220.56)" width="640.06" height="640.06"/>
    <rect class="fil5" transform="matrix(0.367309 0.188127 -0 0.367309 2784.41 2466.51)" width="640.06" height="640.06"/>
    <rect class="fil7" transform="matrix(0.367309 0.188127 -0 0.367309 3030.36 2100.09)" width="640.06" height="640.06"/>
    <rect class="fil7" transform="matrix(0.367309 0.188127 -0 0.367309 3030.36 2346.54)" width="640.06" height="640.06"/>
    <rect class="fil7" transform="matrix(0.367309 0.188127 -0 0.367309 3030.36 2590.72)" width="640.06" height="640.06"/>
    <polygon class="fil8" points="2784.61,1964.09 3022.94,1842.1 3257.2,1962.1 3019.04,2084.08 "/>
    <rect class="fil8" transform="matrix(-0.367309 0.188127 -0 0.367309 4003.43 1848.21)" width="640.06" height="640.06"/>
    <rect class="fil9" transform="matrix(-0.367309 0.188127 -0 0.367309 4003.43 2094.65)" width="640.06" height="640.06"/>
    <rect class="fil10" transform="matrix(-0.367309 0.188127 -0 0.367309 4003.43 2340.6)" width="640.06" height="640.06"/>
    <rect class="fil11" transform="matrix(-0.367309 0.188127 -0 0.367309 3757.48 1974.18)" width="640.06" height="640.06"/>
    <rect class="fil12" transform="matrix(-0.367309 0.188127 -0 0.367309 3757.48 2466.57)" width="640.06" height="640.06"/>
    <rect class="fil13" transform="matrix(-0.367309 0.188127 -0 0.367309 3511.53 2100.15)" width="640.06" height="640.06"/>
    <rect class="fil5" transform="matrix(-0.367309 0.188127 -0 0.367309 3511.53 2346.59)" width="640.06" height="640.06"/>
    <rect class="fil14" transform="matrix(-0.367309 0.188127 -0 0.367309 3511.53 2592.54)" width="640.06" height="640.06"/>
    <rect class="fil3" transform="matrix(-0.367309 0.188127 -0 0.367309 3511.53 2838.49)" width="640.06" height="640.06"/>
    <rect class="fil15" transform="matrix(0.367309 0.188127 -0 0.367309 4013.16 1848.15)" width="640.06" height="640.06"/>
    <rect class="fil16" transform="matrix(0.367309 0.188127 -0 0.367309 4013.16 2094.59)" width="640.06" height="640.06"/>
    <rect class="fil17" transform="matrix(0.367309 0.188127 -0 0.367309 4013.16 2340.54)" width="640.06" height="640.06"/>
    <rect class="fil18" transform="matrix(0.367309 0.188127 -0 0.367309 4259.12 1974.12)" width="640.06" height="640.06"/>
    <rect class="fil19" transform="matrix(0.367309 0.188127 -0 0.367309 4259.12 2466.51)" width="640.06" height="640.06"/>
    <rect class="fil20" transform="matrix(0.367309 0.188127 -0 0.367309 4505.08 2100.09)" width="640.06" height="640.06"/>
    <rect class="fil21" transform="matrix(0.367309 0.188127 -0 0.367309 4505.08 2346.54)" width="640.06" height="640.06"/>
    <rect class="fil22" transform="matrix(0.367309 0.188127 -0 0.367309 4505.08 2592.48)" width="640.06" height="640.06"/>
    <rect class="fil23" transform="matrix(-0.367309 0.188127 -0 0.367309 5478.14 1848.21)" width="640.06" height="640.06"/>
    <rect class="fil24" transform="matrix(-0.367309 0.188127 -0 0.367309 5478.14 2094.65)" width="640.06" height="640.06"/>
    <rect class="fil25" transform="matrix(-0.367309 0.188127 -0 0.367309 5478.14 2340.6)" width="640.06" height="640.06"/>
    <rect class="fil26" transform="matrix(-0.367309 0.188127 -0 0.367309 5232.18 1974.18)" width="640.06" height="640.06"/>
    <rect class="fil27" transform="matrix(-0.367309 0.188127 -0 0.367309 5232.18 2466.57)" width="640.06" height="640.06"/>
    <rect class="fil3" transform="matrix(-0.367309 0.188127 -0 0.367309 4986.22 2100.15)" width="640.06" height="640.06"/>
    <rect class="fil28" transform="matrix(-0.367309 0.188127 -0 0.367309 4986.22 2346.59)" width="640.06" height="640.06"/>
    <rect class="fil29" transform="matrix(-0.367309 0.188127 -0 0.367309 4986.22 2592.54)" width="640.06" height="640.06"/>
    <rect class="fil30" transform="matrix(-0.367309 0.188127 -0 0.367309 4986.22 2838.49)" width="640.06" height="640.06"/>
    <polygon class="fil6" points="1806.94,2956.47 2044.24,2834.99 2269.66,2949.72 2035.63,3071.47 "/>
    <polygon class="fil6" points="3030.55,2090.03 3268.83,1967.99 3508.03,2090.58 3269.83,2212.47 "/>
    <polygon class="fil8" points="1310.68,1964.09 1549,1842.1 1783.26,1962.1 1545.11,2084.08 "/>
    <polygon class="fil6" points="1556.62,2090.03 1794.9,1967.99 2034.1,2090.58 1795.89,2212.47 "/>
    <polygon class="fil2" points="4257.2,2455.88 4495.48,2333.85 4496.47,2578.33 "/>
   </g>
  </g>
  <polygon class="fil31" points="-0,0 3271.99,0 3271.99,4133.04 -0,4133.04 "/>
 </g>
</svg>
