<?xml version="1.0" encoding="UTF-8"?>
<!DOCTYPE svg PUBLIC "-//W3C//DTD SVG 1.1//EN" "http://www.w3.org/Graphics/SVG/1.1/DTD/svg11.dtd">
<!-- Creator: CorelDRAW 2017 -->
<svg xmlns="http://www.w3.org/2000/svg" xml:space="preserve" width="7.2752in" height="9.18974in" version="1.1" style="shape-rendering:geometricPrecision; text-rendering:geometricPrecision; image-rendering:optimizeQuality; fill-rule:evenodd; clip-rule:evenodd"
viewBox="0 0 3057.76 3862.43"
 xmlns:xlink="http://www.w3.org/1999/xlink">
 <defs>
  <style type="text/css">
   <![CDATA[
    .str0 {stroke:#6FD18F;stroke-width:1.26;stroke-miterlimit:2.61313}
    .fil30 {fill:none}
    .fil4 {fill:#23946E}
    .fil1 {fill:#239649}
    .fil3 {fill:#26704B}
    .fil20 {fill:#33CC33}
    .fil0 {fill:#52D47E}
    .fil17 {fill:#59A359}
    .fil16 {fill:#6600CC}
    .fil7 {fill:#7EB57E}
    .fil24 {fill:#9900FF}
    .fil26 {fill:#9933CC}
    .fil21 {fill:#9966FF}
    .fil19 {fill:#99FF00}
    .fil15 {fill:#C4008F}
    .fil29 {fill:#CAE3CA}
    .fil22 {fill:#CC33FF}
    .fil25 {fill:#CC6699}
    .fil8 {fill:#CC9933}
    .fil18 {fill:#CCCC33}
    .fil12 {fill:#CD26A0}
    .fil23 {fill:#DE4075}
    .fil6 {fill:#E6E6E6}
    .fil11 {fill:#EDBD3D}
    .fil5 {fill:#F0F0F0}
    .fil14 {fill:#F25900}
    .fil10 {fill:#F54A91}
    .fil13 {fill:#FAE042}
    .fil28 {fill:#FF0066}
    .fil27 {fill:#FF408C}
    .fil9 {fill:#FF9933}
    .fil2 {fill:white}
   ]]>
  </style>
   <clipPath id="id0">
    <path d="M-0 0l3057.76 0 0 3862.43 -3057.76 0 0 -3862.43z"/>
   </clipPath>
 </defs>
 <g id="Layer_x0020_1">
  <metadata id="CorelCorpID_0Corel-Layer"/>
  <g>
  </g>
  <g style="clip-path:url(#id0)">
   <g>
    <rect class="fil0 str0" x="-291.34" y="-213.46" width="3474.47" height="4693.33"/>
    <polygon class="fil1" points="-941.23,-785.26 -940.99,2122.78 1899.41,669.2 "/>
    <polygon class="fil2" points="5912.4,-331.07 5912.03,3997.58 1684.08,1833.91 "/>
    <polygon class="fil3" points="-1936.53,-539.87 6321.42,-539.8 2192.27,1574.34 "/>
    <polygon class="fil2" points="3221.61,2432.92 3221.25,6761.57 -1006.71,4597.9 "/>
    <rect class="fil4" transform="matrix(-0.367309 0.188127 -0 0.367309 986.125 1727.56)" width="598.15" height="598.15"/>
    <rect class="fil4" transform="matrix(-0.367309 0.188127 -0 0.367309 986.125 1957.87)" width="598.15" height="598.15"/>
    <rect class="fil4" transform="matrix(-0.367309 0.188127 -0 0.367309 986.125 2187.72)" width="598.15" height="598.15"/>
    <rect class="fil4" transform="matrix(-0.367309 0.188127 -0 0.367309 756.279 1845.29)" width="598.15" height="598.15"/>
    <rect class="fil4" transform="matrix(-0.367309 0.188127 -0 0.367309 756.279 2305.44)" width="598.15" height="598.15"/>
    <rect class="fil4" transform="matrix(-0.367309 0.188127 -0 0.367309 526.43 1963.01)" width="598.15" height="598.15"/>
    <rect class="fil4" transform="matrix(-0.367309 0.188127 -0 0.367309 526.43 2193.32)" width="598.15" height="598.15"/>
    <rect class="fil4" transform="matrix(-0.367309 0.188127 -0 0.367309 526.43 2423.16)" width="598.15" height="598.15"/>
    <rect class="fil4" transform="matrix(-0.367309 0.188127 -0 0.367309 986.125 1498.36)" width="598.15" height="598.15"/>
    <rect class="fil2" transform="matrix(0.367309 0.188127 -0 0.367309 994.176 1727.14)" width="598.15" height="598.15"/>
    <rect class="fil5" transform="matrix(0.367309 0.188127 -0 0.367309 994.176 1957.45)" width="598.15" height="598.15"/>
    <rect class="fil5" transform="matrix(0.367309 0.188127 -0 0.367309 994.176 2187.3)" width="598.15" height="598.15"/>
    <rect class="fil4" transform="matrix(0.367309 0.188127 -0 0.367309 1224.03 1844.87)" width="598.15" height="598.15"/>
    <rect class="fil4" transform="matrix(0.367309 0.188127 -0 0.367309 1224.03 2075.17)" width="598.15" height="598.15"/>
    <rect class="fil4" transform="matrix(0.367309 0.188127 -0 0.367309 1224.03 2305.02)" width="598.15" height="598.15"/>
    <rect class="fil2" transform="matrix(0.367309 0.188127 -0 0.367309 1453.87 1962.59)" width="598.15" height="598.15"/>
    <rect class="fil5" transform="matrix(0.367309 0.188127 -0 0.367309 1453.87 2192.9)" width="598.15" height="598.15"/>
    <rect class="fil5" transform="matrix(0.367309 0.188127 -0 0.367309 1453.87 2422.74)" width="598.15" height="598.15"/>
    <rect class="fil4" transform="matrix(-0.367309 0.188127 -0 0.367309 2363.47 1726.58)" width="598.15" height="598.15"/>
    <rect class="fil4" transform="matrix(-0.367309 0.188127 -0 0.367309 2363.47 1956.89)" width="598.15" height="598.15"/>
    <rect class="fil4" transform="matrix(-0.367309 0.188127 -0 0.367309 2363.47 2186.74)" width="598.15" height="598.15"/>
    <rect class="fil4" transform="matrix(-0.367309 0.188127 -0 0.367309 2133.62 1844.3)" width="598.15" height="598.15"/>
    <rect class="fil4" transform="matrix(-0.367309 0.188127 -0 0.367309 2133.62 2304.46)" width="598.15" height="598.15"/>
    <rect class="fil4" transform="matrix(-0.367309 0.188127 -0 0.367309 1903.77 1962.02)" width="598.15" height="598.15"/>
    <rect class="fil4" transform="matrix(-0.367309 0.188127 -0 0.367309 1903.77 2192.33)" width="598.15" height="598.15"/>
    <rect class="fil4" transform="matrix(-0.367309 0.188127 -0 0.367309 1903.77 2422.18)" width="598.15" height="598.15"/>
    <rect class="fil4" transform="matrix(-0.367309 0.188127 -0 0.367309 2133.62 2760.77)" width="598.15" height="598.15"/>
    <rect class="fil4" transform="matrix(-0.367309 0.188127 -0 0.367309 2363.47 2415.94)" width="598.15" height="598.15"/>
    <rect class="fil6" transform="matrix(0.367309 0.188127 -0 0.367309 2372.25 1727.14)" width="598.15" height="598.15"/>
    <rect class="fil6" transform="matrix(0.367309 0.188127 -0 0.367309 2372.25 1957.45)" width="598.15" height="598.15"/>
    <rect class="fil6" transform="matrix(0.367309 0.188127 -0 0.367309 2372.25 2185.64)" width="598.15" height="598.15"/>
    <rect class="fil4" transform="matrix(0.367309 0.188127 -0 0.367309 2602.1 1844.87)" width="598.15" height="598.15"/>
    <rect class="fil4" transform="matrix(0.367309 0.188127 -0 0.367309 2602.1 2075.17)" width="598.15" height="598.15"/>
    <rect class="fil4" transform="matrix(0.367309 0.188127 -0 0.367309 2602.1 2305.02)" width="598.15" height="598.15"/>
    <rect class="fil6" transform="matrix(0.367309 0.188127 -0 0.367309 2831.95 1962.59)" width="598.15" height="598.15"/>
    <rect class="fil6" transform="matrix(0.367309 0.188127 -0 0.367309 2831.95 2192.9)" width="598.15" height="598.15"/>
    <rect class="fil6" transform="matrix(0.367309 0.188127 -0 0.367309 2831.95 2421.09)" width="598.15" height="598.15"/>
    <polygon class="fil7" points="2602.29,1835.49 2825.01,1721.49 3043.93,1833.63 2821.37,1947.63 "/>
    <rect class="fil8" transform="matrix(-0.367309 0.188127 -0 0.367309 3741.31 1727.19)" width="598.15" height="598.15"/>
    <rect class="fil9" transform="matrix(-0.367309 0.188127 -0 0.367309 3741.31 1957.5)" width="598.15" height="598.15"/>
    <rect class="fil10" transform="matrix(-0.367309 0.188127 -0 0.367309 3741.31 2187.35)" width="598.15" height="598.15"/>
    <rect class="fil11" transform="matrix(-0.367309 0.188127 -0 0.367309 3511.46 1844.92)" width="598.15" height="598.15"/>
    <rect class="fil12" transform="matrix(-0.367309 0.188127 -0 0.367309 3511.46 2305.07)" width="598.15" height="598.15"/>
    <rect class="fil13" transform="matrix(-0.367309 0.188127 -0 0.367309 3281.61 1962.64)" width="598.15" height="598.15"/>
    <rect class="fil14" transform="matrix(-0.367309 0.188127 -0 0.367309 3281.61 2192.95)" width="598.15" height="598.15"/>
    <rect class="fil15" transform="matrix(-0.367309 0.188127 -0 0.367309 3281.61 2422.79)" width="598.15" height="598.15"/>
    <rect class="fil16" transform="matrix(-0.367309 0.188127 -0 0.367309 3281.61 2652.64)" width="598.15" height="598.15"/>
    <rect class="fil4" transform="matrix(0.367309 0.188127 -0 0.367309 3750.4 1727.14)" width="598.15" height="598.15"/>
    <rect class="fil1" transform="matrix(0.367309 0.188127 -0 0.367309 3750.4 1957.45)" width="598.15" height="598.15"/>
    <rect class="fil3" transform="matrix(0.367309 0.188127 -0 0.367309 3750.4 2187.3)" width="598.15" height="598.15"/>
    <rect class="fil7" transform="matrix(0.367309 0.188127 -0 0.367309 3980.25 1844.87)" width="598.15" height="598.15"/>
    <rect class="fil17" transform="matrix(0.367309 0.188127 -0 0.367309 3980.25 2305.02)" width="598.15" height="598.15"/>
    <rect class="fil18" transform="matrix(0.367309 0.188127 -0 0.367309 4210.11 1962.59)" width="598.15" height="598.15"/>
    <rect class="fil19" transform="matrix(0.367309 0.188127 -0 0.367309 4210.11 2192.9)" width="598.15" height="598.15"/>
    <rect class="fil20" transform="matrix(0.367309 0.188127 -0 0.367309 4210.11 2422.74)" width="598.15" height="598.15"/>
    <rect class="fil21" transform="matrix(-0.367309 0.188127 -0 0.367309 5119.46 1727.19)" width="598.15" height="598.15"/>
    <rect class="fil22" transform="matrix(-0.367309 0.188127 -0 0.367309 5119.46 1957.5)" width="598.15" height="598.15"/>
    <rect class="fil23" transform="matrix(-0.367309 0.188127 -0 0.367309 5119.46 2187.35)" width="598.15" height="598.15"/>
    <rect class="fil24" transform="matrix(-0.367309 0.188127 -0 0.367309 4889.61 1844.92)" width="598.15" height="598.15"/>
    <rect class="fil25" transform="matrix(-0.367309 0.188127 -0 0.367309 4889.61 2305.07)" width="598.15" height="598.15"/>
    <rect class="fil16" transform="matrix(-0.367309 0.188127 -0 0.367309 4659.75 1962.64)" width="598.15" height="598.15"/>
    <rect class="fil26" transform="matrix(-0.367309 0.188127 -0 0.367309 4659.75 2192.95)" width="598.15" height="598.15"/>
    <rect class="fil27" transform="matrix(-0.367309 0.188127 -0 0.367309 4659.75 2422.79)" width="598.15" height="598.15"/>
    <rect class="fil28" transform="matrix(-0.367309 0.188127 -0 0.367309 4659.75 2652.64)" width="598.15" height="598.15"/>
    <polygon class="fil5" points="1688.64,2762.89 1910.39,2649.37 2121.05,2756.59 1902.34,2870.37 "/>
    <polygon class="fil5" points="2832.13,1953.18 3054.81,1839.14 3278.35,1953.7 3055.74,2067.61 "/>
    <polygon class="fil7" points="1224.86,1835.49 1447.58,1721.49 1666.5,1833.63 1443.94,1947.63 "/>
    <polygon class="fil5" points="1454.7,1953.18 1677.38,1839.14 1900.92,1953.7 1678.31,2067.61 "/>
    <polygon class="fil29" points="3978.46,2295.08 4201.14,2181.04 4202.07,2409.52 "/>
   </g>
  </g>
  <polygon class="fil30" points="-0,0 3057.76,0 3057.76,3862.43 -0,3862.43 "/>
 </g>
</svg>
