<?xml version="1.0" encoding="UTF-8"?>
<!DOCTYPE svg PUBLIC "-//W3C//DTD SVG 1.1//EN" "http://www.w3.org/Graphics/SVG/1.1/DTD/svg11.dtd">
<!-- Creator: CorelDRAW 2017 -->
<svg xmlns="http://www.w3.org/2000/svg" xml:space="preserve" width="2.44074in" height="0.957213in" version="1.1" style="shape-rendering:geometricPrecision; text-rendering:geometricPrecision; image-rendering:optimizeQuality; fill-rule:evenodd; clip-rule:evenodd"
viewBox="0 0 693.9 272.14"
 xmlns:xlink="http://www.w3.org/1999/xlink">
 <defs>
  <style type="text/css">
   <![CDATA[
    .fil2 {fill:#FEFEFE}
    .fil1 {fill:#00A859}
    .fil0 {fill:#00A859;fill-rule:nonzero}
   ]]>
  </style>
 </defs>
 <g id="Layer_x0020_1">
  <metadata id="CorelCorpID_0Corel-Layer"/>
  <path class="fil0" d="M-0 144.65l18.65 -100.58 54.03 0 -3.4 18.1 -35.39 0 -4.22 23.14 33.89 0 -3.4 18.1 -33.89 0 -4.22 23.14 35.39 0 -3.4 18.1 -54.03 0zm70.77 0l18.65 -100.58 20.96 0 28.31 73.49 13.61 -73.49 18.65 0 -18.65 100.58 -20.69 0 -28.58 -73.22 -13.61 73.22 -18.65 0zm131.61 0l-20.42 -100.58 19.6 0 12.93 76.49 41.24 -76.49 19.6 0 -57.57 100.58 -15.38 0zm64.38 0l18.65 -100.58 18.65 0 -18.65 100.58 -18.65 0zm104.39 -102.48c12.88,0.09 23.36,4.22 31.44,12.38 8.08,8.17 12.11,18.37 12.11,30.62 0,1.54 -0.07,3.13 -0.2,4.76 -0.14,1.63 -0.39,3.31 -0.75,5.04 -2.72,14.52 -10.16,26.84 -22.32,36.95 -12.16,10.12 -25.41,15.18 -39.74,15.18 -12.7,0 -23.16,-4.04 -31.37,-12.11 -8.21,-8.08 -12.32,-18.24 -12.32,-30.49 0,-1.54 0.09,-3.11 0.27,-4.7 0.18,-1.59 0.41,-3.2 0.68,-4.83 2.72,-14.61 10.14,-27.04 22.25,-37.29 12.11,-10.25 25.43,-15.38 39.95,-15.38l0 -0.14zm-3.4 18.1c-9.35,0.09 -17.92,3.47 -25.72,10.14 -7.8,6.67 -12.61,14.72 -14.43,24.16 -0.18,1.09 -0.32,2.15 -0.41,3.2 -0.09,1.04 -0.14,2.06 -0.14,3.06 0,7.89 2.61,14.59 7.82,20.07 5.22,5.49 11.91,8.23 20.08,8.23 9.16,0 17.72,-3.43 25.66,-10.3 7.94,-6.85 12.77,-14.97 14.49,-24.34 0.18,-1.09 0.34,-2.18 0.48,-3.27 0.14,-1.09 0.2,-2.2 0.2,-3.29 -0.09,-7.89 -2.7,-14.49 -7.83,-19.76 -5.13,-5.29 -11.86,-7.92 -20.21,-7.92zm-257.5 138.51l-22.32 0c-2.27,-4.13 -5.56,-7.37 -9.87,-9.75 -4.31,-2.38 -9.01,-3.58 -14.09,-3.58 -0.73,0 -1.45,0.02 -2.18,0.07 -0.73,0.04 -1.45,0.11 -2.18,0.2 -3.54,0.45 -7.08,1.41 -10.62,2.84 -3.54,1.43 -6.85,3.33 -9.93,5.74 -3.45,2.63 -6.51,5.78 -9.19,9.5 -2.68,3.72 -4.65,7.55 -5.92,11.55 -0.27,0.73 -0.5,1.43 -0.68,2.11 -0.18,0.68 -0.32,1.38 -0.41,2.09 -0.18,0.91 -0.32,1.84 -0.41,2.79 -0.09,0.95 -0.14,1.93 -0.14,2.93 0,3.27 0.52,6.42 1.57,9.5 1.04,3.09 2.47,5.78 4.29,8.14 2.72,3.63 6.17,6.4 10.34,8.35 4.17,1.95 8.67,2.93 13.47,2.93 1.27,0 2.56,-0.09 3.88,-0.27 1.32,-0.18 2.61,-0.41 3.88,-0.68 4.81,-1.18 9.46,-3.27 13.95,-6.26 4.49,-2.99 8.19,-6.62 11.09,-10.89l-42.06 0 3.27 -17.69 65.6 0 -0.41 2.18c-2.72,14.7 -10.25,26.95 -22.59,36.75 -12.34,9.8 -25.63,14.74 -39.88,14.84 -0.09,0 -0.18,0 -0.27,0 -0.09,0 -0.18,0 -0.27,0 -12.89,0 -23.61,-4.01 -32.19,-12.05 -8.57,-8.03 -12.86,-18.21 -12.86,-30.55 0,-1.54 0.09,-3.08 0.27,-4.63 0.18,-1.54 0.41,-3.13 0.68,-4.76 2.72,-14.79 10.28,-27.27 22.66,-37.43 12.38,-10.16 25.75,-15.29 40.08,-15.38 0.09,0 0.18,0 0.27,0 0.09,0 0.18,0 0.27,0 10.25,0 19.46,2.84 27.63,8.48 8.17,5.65 13.25,13.34 15.24,23.09l0 -0.14zm4.08 70.91l18.65 -100.58 29.13 0c4.81,0.18 9.34,0.63 13.61,1.36 4.26,0.73 7.99,2.68 11.16,5.85 2.45,2.45 4.33,5.38 5.65,8.78 1.32,3.4 1.97,6.96 1.97,10.68 0,0.91 -0.02,1.79 -0.07,2.65 -0.05,0.86 -0.16,1.75 -0.34,2.65 -0.18,1.18 -0.5,2.4 -0.95,3.67 -0.45,1.27 -0.95,2.54 -1.5,3.81 -1.18,2.72 -2.63,5.35 -4.36,7.89 -1.72,2.54 -3.58,4.72 -5.58,6.53 -2.9,2.63 -6.01,4.72 -9.32,6.26 -3.31,1.54 -6.74,2.68 -10.28,3.4l20.28 37.02 -23 0 -19.05 -38.52 -0.27 0 -7.08 38.52 -18.65 0zm28.44 -52.67l10.21 0c1,0.09 2.04,0.09 3.13,0 1.09,-0.09 2.22,-0.23 3.4,-0.41 1.63,-0.27 3.22,-0.68 4.76,-1.23 1.54,-0.54 2.95,-1.36 4.22,-2.45 1.81,-1.45 3.29,-3.11 4.42,-4.97 1.13,-1.86 1.88,-3.83 2.25,-5.92 0.09,-0.45 0.16,-0.93 0.2,-1.43 0.05,-0.5 0.07,-0.97 0.07,-1.43 0,-1.63 -0.29,-3.2 -0.88,-4.7 -0.59,-1.5 -1.48,-2.74 -2.65,-3.74 -1.91,-1.63 -3.95,-2.61 -6.12,-2.93 -2.18,-0.32 -4.58,-0.48 -7.21,-0.48l-10.34 0 -5.44 29.67zm42.19 52.67l60.57 -100.58 14.56 0 23.68 100.58 -20.55 0 -6.12 -26 -35.66 0 -15.92 26 -20.55 0zm46.68 -44.1l21.5 0 -5.04 -30.49 -16.47 30.49zm62.61 44.1l15.24 -82.48 -18.51 0 3.4 -18.1 55.94 0 -3.4 18.1 -18.78 0 -15.24 82.48 -18.65 0zm46.96 0l18.65 -100.58 18.65 0 -18.65 100.58 -18.65 0zm36.07 -28.31l19.46 0c-0.09,0.54 -0.16,1.02 -0.2,1.43 -0.04,0.41 -0.07,0.84 -0.07,1.29 0,3.18 1.13,5.65 3.4,7.42 2.27,1.77 5.08,2.65 8.44,2.65 3.54,0 6.85,-1.2 9.94,-3.61 3.08,-2.43 4.95,-5.44 5.58,-9.07 0.18,-0.54 0.27,-1.11 0.27,-1.66 0,-0.54 0,-1.04 0,-1.5 0,-3.9 -1.32,-6.8 -3.95,-8.66 -2.63,-1.86 -5.53,-3.38 -8.71,-4.56 -0.36,-0.09 -0.7,-0.2 -1.02,-0.34 -0.32,-0.14 -0.66,-0.25 -1.02,-0.34 -0.27,-0.09 -0.52,-0.18 -0.75,-0.27 -0.23,-0.09 -0.48,-0.18 -0.75,-0.27 -2.81,-1.02 -5.42,-2.13 -7.83,-3.36 -2.4,-1.23 -4.56,-3.02 -6.47,-5.38 -1.45,-1.93 -2.61,-4.15 -3.47,-6.69 -0.86,-2.54 -1.25,-5.19 -1.16,-7.92 0,-0.73 0.04,-1.5 0.14,-2.31 0.09,-0.82 0.18,-1.63 0.27,-2.45 1.54,-8.21 5.76,-15.02 12.66,-20.39 6.9,-5.38 14.34,-8.05 22.32,-8.05 6.99,0 12.84,2.25 17.56,6.76 4.72,4.51 7.03,10.12 6.94,16.79 0,0.82 -0.02,1.63 -0.07,2.45 -0.04,0.82 -0.16,1.63 -0.34,2.45l-19.19 -0.14c0,-0.09 0,-0.18 0,-0.27 0,-0.09 0.05,-0.23 0.14,-0.41 0,-0.09 0,-0.2 0,-0.34 0,-0.14 0,-0.25 0,-0.34 0,-2.68 -0.93,-4.83 -2.79,-6.44 -1.86,-1.61 -4.11,-2.4 -6.74,-2.4 -3.08,0 -5.72,1 -7.89,3.02 -2.18,2.02 -3.54,4.51 -4.08,7.46 0,0.09 -0.02,0.2 -0.07,0.34 -0.05,0.14 -0.07,0.25 -0.07,0.34 0,0.27 -0.02,0.52 -0.07,0.75 -0.04,0.23 -0.07,0.43 -0.07,0.61 0,2.63 0.95,4.67 2.86,6.12 1.91,1.47 3.99,2.65 6.26,3.56 0.27,0.09 0.55,0.18 0.82,0.27 0.27,0.09 0.54,0.18 0.82,0.27 0.45,0.18 0.88,0.34 1.29,0.48 0.41,0.14 0.84,0.3 1.29,0.48 2.81,1 5.53,2.11 8.17,3.33 2.63,1.23 4.99,2.88 7.08,4.99 2.36,2.18 4.13,4.63 5.31,7.35 1.18,2.72 1.77,5.83 1.77,9.28 -0.09,0.91 -0.18,1.91 -0.27,2.99 -0.09,1.09 -0.23,2.18 -0.41,3.27 -1.63,9.01 -6.24,16.56 -13.81,22.64 -7.58,6.1 -15.81,9.14 -24.7,9.14 -7.71,0 -14.2,-2.36 -19.46,-7.08 -5.26,-4.72 -7.89,-10.8 -7.89,-18.24 0,-0.91 0.07,-1.79 0.2,-2.65 0.14,-0.86 0.25,-1.75 0.34,-2.65l0 -0.14z"/>
  <polygon class="fil1" points="312.78,0 327.78,6.27 306.4,34.39 299.03,31.92 "/>
  <rect class="fil1" transform="matrix(0.265474 0.13597 -0 0.265474 473.956 107.652)" width="404.61" height="404.61"/>
  <rect class="fil1" transform="matrix(-0.265474 0.13597 -0 0.265474 693.905 107.377)" width="404.61" height="404.61"/>
  <polygon class="fil1" points="474.36,103.05 583.22,47.3 692.51,103.31 583.68,159 "/>
  <rect class="fil2" transform="matrix(0.678865 -0.349624 0.349624 0.678865 526.249 130.82)" width="169.4" height="6.52" rx="2.29" ry="2.29"/>
 </g>
</svg>
