<?xml version="1.0" encoding="iso-8859-1"?>
<!-- Generator: Adobe Illustrator 19.0.0, SVG Export Plug-In . SVG Version: 6.00 Build 0)  -->
<svg version="1.1" id="Capa_1" xmlns="http://www.w3.org/2000/svg" xmlns:xlink="http://www.w3.org/1999/xlink" x="0px" y="0px"
	 viewBox="0 0 512 512" style="enable-background:new 0 0 512 512;" xml:space="preserve">
<path style="fill:#CFD8DC;" d="M512,96v341.333C512,478.571,478.571,512,437.333,512H74.667C33.429,512,0,478.571,0,437.333V96H512z
	"/>
<path style="fill:#455A64;" d="M512,74.667V96H0V74.667C0,33.429,33.429,0,74.667,0h362.667C478.571,0,512,33.429,512,74.667
	L512,74.667z"/>
<circle style="fill:#F44336;" cx="74.667" cy="53.333" r="10.667"/>
<circle style="fill:#FFC107;" cx="117.333" cy="53.333" r="10.667"/>
<circle style="fill:#4CAF50;" cx="160" cy="53.333" r="10.667"/>
<path d="M380.715,258.475v0.107V258.475z"/>
<path style="fill:#4CAF50;" d="M370.261,307.413c0.256-2.901,0.405-5.803,0.405-8.747c0-2.944-0.149-5.952-0.405-8.939l24.96-19.563
	c6.621-5.496,8.283-14.98,3.925-22.4l-27.733-48.085c-4.445-7.408-13.586-10.527-21.632-7.381l-28.949,11.648
	c-4.813-3.355-9.885-6.322-15.168-8.875l-4.395-31.296c-1.672-8.369-9.002-14.405-17.536-14.443h-55.467
	c-8.753,0.066-16.164,6.474-17.493,15.125l-4.267,30.848c-5.264,2.559-10.327,5.511-15.147,8.832l-29.227-11.733
	c-8.06-3.03-17.131,0.186-21.483,7.616l-27.733,47.787c-4.474,7.579-2.702,17.294,4.16,22.805l24.64,19.2
	c-0.256,2.901-0.405,5.803-0.405,8.747c0,2.944,0.149,5.952,0.405,8.939l-24.981,19.584c-6.602,5.499-8.254,14.969-3.904,22.379
	l27.733,48.085c4.475,7.383,13.595,10.501,21.653,7.403l28.971-11.669c4.812,3.346,9.876,6.313,15.147,8.875l4.416,31.296
	c1.619,8.408,8.953,14.5,17.515,14.549h55.467c8.716-0.162,16.074-6.524,17.493-15.125l4.267-30.869
	c5.264-2.551,10.327-5.496,15.147-8.811l29.205,11.733c8.06,3.02,17.125-0.193,21.483-7.616l27.733-47.765
	c4.495-7.564,2.729-17.284-4.139-22.784L370.261,307.413z M256,341.333c-23.564,0-42.667-19.103-42.667-42.667S232.436,256,256,256
	s42.667,19.103,42.667,42.667S279.564,341.333,256,341.333z"/>
<path d="M437.333,512H74.667C33.429,512,0,478.571,0,437.333V74.667C0,33.429,33.429,0,74.667,0h362.667
	C478.571,0,512,33.429,512,74.667l0,0v362.667C512,478.571,478.571,512,437.333,512z M74.667,21.333
	c-29.455,0-53.333,23.878-53.333,53.333v362.667c0,29.455,23.878,53.333,53.333,53.333h362.667
	c29.455,0,53.333-23.878,53.333-53.333V74.667c0-29.455-23.878-53.333-53.333-53.333H74.667z"/>
<path d="M501.333,106.667H10.667C4.776,106.667,0,101.891,0,96c0-5.891,4.776-10.667,10.667-10.667h490.667
	C507.224,85.333,512,90.109,512,96C512,101.891,507.224,106.667,501.333,106.667z"/>
<circle cx="74.667" cy="53.333" r="10.667"/>
<circle cx="117.333" cy="53.333" r="10.667"/>
<circle cx="160" cy="53.333" r="10.667"/>
<path d="M283.733,448h-55.467c-8.476-0.104-15.729-6.112-17.408-14.421l-4.416-31.339c-5.27-2.564-10.334-5.531-15.147-8.875
	l-28.971,11.669c-8.053,3.093-17.166-0.013-21.653-7.381l-27.733-48.107c-4.328-7.407-2.678-16.856,3.904-22.357l24.981-19.627
	c-0.256-2.965-0.405-5.931-0.405-8.917s0.149-5.845,0.405-8.747l-24.64-19.2c-6.87-5.489-8.685-15.181-4.267-22.784l27.733-47.808
	c4.355-7.426,13.402-10.67,21.483-7.701l29.205,11.755c4.817-3.325,9.881-6.277,15.147-8.832l4.267-30.848
	c1.33-8.663,8.75-15.081,17.515-15.147h55.467c8.479,0.096,15.737,6.108,17.408,14.421l4.416,31.317
	c5.279,2.559,10.35,5.527,15.168,8.875l28.949-11.648c8.041-3.141,17.175-0.033,21.632,7.36l27.733,48.107
	c4.341,7.412,2.69,16.875-3.904,22.379l-25.003,19.584c0.277,2.987,0.427,5.952,0.427,8.939c0,2.987-0.149,5.867-0.405,8.747
	l24.64,19.307c6.84,5.508,8.602,15.2,4.139,22.763L371.2,397.269c-4.348,7.448-13.438,10.667-21.504,7.616l-29.205-11.733
	c-4.822,3.31-9.885,6.255-15.147,8.811l-4.267,30.869C299.76,441.436,292.436,447.841,283.733,448z M231.424,426.667h49.067
	l4.693-33.387c0.527-3.704,2.955-6.861,6.4-8.32c7.502-3.191,14.57-7.32,21.035-12.288c2.995-2.325,6.999-2.885,10.517-1.472
	l31.424,12.629l24.555-42.496l-26.688-20.885c-2.989-2.341-4.508-6.095-3.989-9.856c0.57-3.95,0.869-7.934,0.896-11.925
	c-0.036-4.105-0.343-8.202-0.917-12.267c-0.49-3.744,1.035-7.468,4.011-9.792l26.688-20.885l-24.533-42.389l-31.424,12.629
	c-3.524,1.422-7.539,0.861-10.539-1.472c-6.386-5.005-13.418-9.124-20.907-12.245c-3.457-1.467-5.887-4.643-6.4-8.363l-4.736-33.216
	h-49.067l-4.693,33.408c-0.52,3.712-2.949,6.878-6.4,8.341c-7.497,3.166-14.553,7.289-20.992,12.267
	c-3,2.333-7.014,2.894-10.539,1.472l-31.424-12.629L132.885,256l26.667,20.885c2.983,2.328,4.509,6.062,4.011,9.813
	c-0.57,3.964-0.869,7.963-0.896,11.968c0.039,4.118,0.339,8.229,0.896,12.309c0.48,3.725-1.036,7.429-3.989,9.749l-26.667,20.885
	L157.419,384l31.424-12.651c3.518-1.413,7.522-0.853,10.517,1.472c6.4,4.995,13.438,9.113,20.928,12.245
	c3.457,1.467,5.887,4.643,6.4,8.363L231.424,426.667z M256,341.333c-23.564,0-42.667-19.103-42.667-42.667S232.436,256,256,256
	s42.667,19.103,42.667,42.667S279.564,341.333,256,341.333z M256,277.333c-11.782,0-21.333,9.551-21.333,21.333
	c0,11.782,9.551,21.333,21.333,21.333c11.782,0,21.333-9.551,21.333-21.333C277.333,286.885,267.782,277.333,256,277.333z"/>
<g>
</g>
<g>
</g>
<g>
</g>
<g>
</g>
<g>
</g>
<g>
</g>
<g>
</g>
<g>
</g>
<g>
</g>
<g>
</g>
<g>
</g>
<g>
</g>
<g>
</g>
<g>
</g>
<g>
</g>
</svg>
