<?xml version="1.0" encoding="UTF-8"?>
<!DOCTYPE svg PUBLIC "-//W3C//DTD SVG 1.1//EN" "http://www.w3.org/Graphics/SVG/1.1/DTD/svg11.dtd">
<!-- Creator: CorelDRAW 2017 -->
<svg xmlns="http://www.w3.org/2000/svg" xml:space="preserve" width="7.27521in" height="9.18974in" version="1.1" style="shape-rendering:geometricPrecision; text-rendering:geometricPrecision; image-rendering:optimizeQuality; fill-rule:evenodd; clip-rule:evenodd"
viewBox="0 0 7736.94 9772.98"
 xmlns:xlink="http://www.w3.org/1999/xlink">
 <defs>
  <style type="text/css">
   <![CDATA[
    .fil32 {fill:none}
    .fil14 {fill:#23946E}
    .fil15 {fill:#239649}
    .fil16 {fill:#26704B}
    .fil21 {fill:#33CC33}
    .fil31 {fill:#4D4D4D}
    .fil18 {fill:#59A359}
    .fil13 {fill:#6600CC}
    .fil17 {fill:#7EB57E}
    .fil2 {fill:gray}
    .fil25 {fill:#9900FF}
    .fil27 {fill:#9933CC}
    .fil22 {fill:#9966FF}
    .fil1 {fill:#999999}
    .fil20 {fill:#99FF00}
    .fil30 {fill:#CAE3CA}
    .fil23 {fill:#CC33FF}
    .fil26 {fill:#CC6699}
    .fil5 {fill:#CC9933}
    .fil19 {fill:#CCCC33}
    .fil4 {fill:#CCCCCC}
    .fil24 {fill:#DE4075}
    .fil3 {fill:#E6E6E6}
    .fil29 {fill:#F0F0F0}
    .fil0 {fill:#FF0066}
    .fil28 {fill:#FF408C}
    .fil6 {fill:#FF9933}
    .fil10 {fill:#FAE042}
    .fil8 {fill:#EDBD3D}
    .fil11 {fill:#F25900}
    .fil7 {fill:#F54A91}
    .fil9 {fill:#CD26A0}
    .fil12 {fill:#C4008F}
   ]]>
  </style>
   <clipPath id="id0">
    <path d="M-0 0l7736.94 0 0 9772.98 -7736.94 0 0 -9772.98z"/>
   </clipPath>
 </defs>
 <g id="Capa_x0020_1">
  <metadata id="CorelCorpID_0Corel-Layer"/>
  <g>
  </g>
  <g style="clip-path:url(#id0)">
   <g>
    <polygon class="fil0" points="-2381.56,-1991.11 -2380.94,5367.02 4806.02,1689.07 "/>
    <polygon class="fil1" points="14872.01,-657.67 14871.08,10294.97 4173.23,4820.3 "/>
    <g id="_630899528304">
     <rect class="fil2" transform="matrix(-0.295837 0.151521 -0 0.295837 -1873.2 5096.5)" width="1513.49" height="1513.49"/>
     <rect class="fil2" transform="matrix(-0.295837 0.151521 -0 0.295837 -1873.2 5565.85)" width="1513.49" height="1513.49"/>
     <rect class="fil2" transform="matrix(-0.295837 0.151521 -0 0.295837 -1873.2 6034.26)" width="1513.49" height="1513.49"/>
     <rect class="fil2" transform="matrix(-0.295837 0.151521 -0 0.295837 -2341.61 5336.41)" width="1513.49" height="1513.49"/>
     <rect class="fil2" transform="matrix(-0.295837 0.151521 -0 0.295837 -2341.61 6274.17)" width="1513.49" height="1513.49"/>
     <rect class="fil2" transform="matrix(-0.295837 0.151521 -0 0.295837 -2810.03 5576.32)" width="1513.49" height="1513.49"/>
     <rect class="fil2" transform="matrix(-0.295837 0.151521 -0 0.295837 -2810.03 6045.67)" width="1513.49" height="1513.49"/>
     <rect class="fil2" transform="matrix(-0.295837 0.151521 -0 0.295837 -2810.03 6514.08)" width="1513.49" height="1513.49"/>
     <rect class="fil2" transform="matrix(-0.295837 0.151521 -0 0.295837 -1873.2 4629.4)" width="1513.49" height="1513.49"/>
     <rect class="fil3" transform="matrix(0.295837 0.151521 -0 0.295837 -1856.79 5095.65)" width="1513.49" height="1513.49"/>
     <rect class="fil3" transform="matrix(0.295837 0.151521 -0 0.295837 -1856.79 5565)" width="1513.49" height="1513.49"/>
     <rect class="fil3" transform="matrix(0.295837 0.151521 -0 0.295837 -1856.79 6033.41)" width="1513.49" height="1513.49"/>
     <rect class="fil2" transform="matrix(0.295837 0.151521 -0 0.295837 -1388.38 5335.56)" width="1513.49" height="1513.49"/>
     <rect class="fil2" transform="matrix(0.295837 0.151521 -0 0.295837 -1388.38 5804.91)" width="1513.49" height="1513.49"/>
     <rect class="fil2" transform="matrix(0.295837 0.151521 -0 0.295837 -1388.38 6273.32)" width="1513.49" height="1513.49"/>
     <rect class="fil3" transform="matrix(0.295837 0.151521 -0 0.295837 -919.969 5575.47)" width="1513.49" height="1513.49"/>
     <rect class="fil3" transform="matrix(0.295837 0.151521 -0 0.295837 -919.969 6044.82)" width="1513.49" height="1513.49"/>
     <rect class="fil3" transform="matrix(0.295837 0.151521 -0 0.295837 -919.969 6513.23)" width="1513.49" height="1513.49"/>
     <rect class="fil2" transform="matrix(-0.295837 0.151521 -0 0.295837 933.705 5094.5)" width="1513.49" height="1513.49"/>
     <rect class="fil2" transform="matrix(-0.295837 0.151521 -0 0.295837 933.705 5563.85)" width="1513.49" height="1513.49"/>
     <rect class="fil2" transform="matrix(-0.295837 0.151521 -0 0.295837 933.705 6032.26)" width="1513.49" height="1513.49"/>
     <rect class="fil2" transform="matrix(-0.295837 0.151521 -0 0.295837 465.293 5334.41)" width="1513.49" height="1513.49"/>
     <rect class="fil2" transform="matrix(-0.295837 0.151521 -0 0.295837 465.293 6272.17)" width="1513.49" height="1513.49"/>
     <rect class="fil2" transform="matrix(-0.295837 0.151521 -0 0.295837 -3.12014 5574.32)" width="1513.49" height="1513.49"/>
     <rect class="fil2" transform="matrix(-0.295837 0.151521 -0 0.295837 -3.12014 6043.67)" width="1513.49" height="1513.49"/>
     <rect class="fil2" transform="matrix(-0.295837 0.151521 -0 0.295837 -3.12014 6512.08)" width="1513.49" height="1513.49"/>
     <rect class="fil2" transform="matrix(-0.295837 0.151521 -0 0.295837 465.293 7202.11)" width="1513.49" height="1513.49"/>
     <rect class="fil2" transform="matrix(-0.295837 0.151521 -0 0.295837 933.705 6499.35)" width="1513.49" height="1513.49"/>
     <rect class="fil3" transform="matrix(0.295837 0.151521 -0 0.295837 951.607 5095.65)" width="1513.49" height="1513.49"/>
     <rect class="fil3" transform="matrix(0.295837 0.151521 -0 0.295837 951.607 5565)" width="1513.49" height="1513.49"/>
     <rect class="fil3" transform="matrix(0.295837 0.151521 -0 0.295837 951.607 6033.41)" width="1513.49" height="1513.49"/>
     <rect class="fil2" transform="matrix(0.295837 0.151521 -0 0.295837 1420.02 5335.56)" width="1513.49" height="1513.49"/>
     <rect class="fil2" transform="matrix(0.295837 0.151521 -0 0.295837 1420.02 5804.91)" width="1513.49" height="1513.49"/>
     <rect class="fil2" transform="matrix(0.295837 0.151521 -0 0.295837 1420.02 6273.32)" width="1513.49" height="1513.49"/>
     <rect class="fil3" transform="matrix(0.295837 0.151521 -0 0.295837 1888.43 5575.47)" width="1513.49" height="1513.49"/>
     <rect class="fil3" transform="matrix(0.295837 0.151521 -0 0.295837 1888.43 6044.82)" width="1513.49" height="1513.49"/>
     <rect class="fil3" transform="matrix(0.295837 0.151521 -0 0.295837 1888.43 6513.23)" width="1513.49" height="1513.49"/>
     <polygon class="fil4" points="1420.41,5316.46 1874.3,5084.13 2320.44,5312.66 1866.88,5544.99 "/>
     <rect class="fil5" transform="matrix(-0.295837 0.151521 -0 0.295837 3741.64 5095.75)" width="1513.49" height="1513.49"/>
     <rect class="fil6" transform="matrix(-0.295837 0.151521 -0 0.295837 3741.64 5565.1)" width="1513.49" height="1513.49"/>
     <rect class="fil7" transform="matrix(-0.295837 0.151521 -0 0.295837 3741.64 6033.51)" width="1513.49" height="1513.49"/>
     <rect class="fil8" transform="matrix(-0.295837 0.151521 -0 0.295837 3273.23 5335.66)" width="1513.49" height="1513.49"/>
     <rect class="fil9" transform="matrix(-0.295837 0.151521 -0 0.295837 3273.23 6273.42)" width="1513.49" height="1513.49"/>
     <rect class="fil10" transform="matrix(-0.295837 0.151521 -0 0.295837 2804.81 5575.57)" width="1513.49" height="1513.49"/>
     <rect class="fil11" transform="matrix(-0.295837 0.151521 -0 0.295837 2804.81 6044.92)" width="1513.49" height="1513.49"/>
     <rect class="fil12" transform="matrix(-0.295837 0.151521 -0 0.295837 2804.81 6513.33)" width="1513.49" height="1513.49"/>
     <rect class="fil13" transform="matrix(-0.295837 0.151521 -0 0.295837 2804.81 6981.75)" width="1513.49" height="1513.49"/>
     <rect class="fil14" transform="matrix(0.295837 0.151521 -0 0.295837 3760.16 5095.65)" width="1513.49" height="1513.49"/>
     <rect class="fil15" transform="matrix(0.295837 0.151521 -0 0.295837 3760.16 5565)" width="1513.49" height="1513.49"/>
     <rect class="fil16" transform="matrix(0.295837 0.151521 -0 0.295837 3760.16 6033.41)" width="1513.49" height="1513.49"/>
     <rect class="fil17" transform="matrix(0.295837 0.151521 -0 0.295837 4228.57 5335.56)" width="1513.49" height="1513.49"/>
     <rect class="fil18" transform="matrix(0.295837 0.151521 -0 0.295837 4228.57 6273.32)" width="1513.49" height="1513.49"/>
     <rect class="fil19" transform="matrix(0.295837 0.151521 -0 0.295837 4696.98 5575.47)" width="1513.49" height="1513.49"/>
     <rect class="fil20" transform="matrix(0.295837 0.151521 -0 0.295837 4696.98 6044.82)" width="1513.49" height="1513.49"/>
     <rect class="fil21" transform="matrix(0.295837 0.151521 -0 0.295837 4696.98 6513.23)" width="1513.49" height="1513.49"/>
     <rect class="fil22" transform="matrix(-0.295837 0.151521 -0 0.295837 6550.19 5095.75)" width="1513.49" height="1513.49"/>
     <rect class="fil23" transform="matrix(-0.295837 0.151521 -0 0.295837 6550.19 5565.1)" width="1513.49" height="1513.49"/>
     <rect class="fil24" transform="matrix(-0.295837 0.151521 -0 0.295837 6550.19 6033.51)" width="1513.49" height="1513.49"/>
     <rect class="fil25" transform="matrix(-0.295837 0.151521 -0 0.295837 6081.78 5335.66)" width="1513.49" height="1513.49"/>
     <rect class="fil26" transform="matrix(-0.295837 0.151521 -0 0.295837 6081.78 6273.42)" width="1513.49" height="1513.49"/>
     <rect class="fil13" transform="matrix(-0.295837 0.151521 -0 0.295837 5613.37 5575.57)" width="1513.49" height="1513.49"/>
     <rect class="fil27" transform="matrix(-0.295837 0.151521 -0 0.295837 5613.37 6044.92)" width="1513.49" height="1513.49"/>
     <rect class="fil28" transform="matrix(-0.295837 0.151521 -0 0.295837 5613.37 6513.33)" width="1513.49" height="1513.49"/>
     <rect class="fil0" transform="matrix(-0.295837 0.151521 -0 0.295837 5613.37 6981.75)" width="1513.49" height="1513.49"/>
     <polygon class="fil3" points="-441.54,7206.42 10.38,6975.08 439.69,7193.59 -6.02,7425.45 "/>
     <polygon class="fil29" points="1888.8,5556.3 2342.6,5323.89 2798.16,5557.35 2344.5,5789.5 "/>
     <polygon class="fil4" points="-1386.68,5316.46 -932.79,5084.13 -486.64,5312.66 -940.21,5544.99 "/>
     <polygon class="fil29" points="-918.29,5556.3 -464.49,5323.89 -8.93,5557.35 -462.6,5789.5 "/>
     <polygon class="fil30" points="4224.94,6253.07 4678.73,6020.66 4680.63,6486.27 "/>
    </g>
    <polygon class="fil31" points="-4899.94,-1232.03 15994.88,-1231.85 5547.03,4117.47 "/>
    <polygon class="fil10" points="8151.54,6155.94 8150.62,17108.57 -2547.23,11633.91 "/>
   </g>
  </g>
  <polygon class="fil32" points="-0,0 7736.94,0 7736.94,9772.98 -0,9772.98 "/>
 </g>
</svg>
