<?xml version="1.0" encoding="UTF-8"?>
<!DOCTYPE svg PUBLIC "-//W3C//DTD SVG 1.1//EN" "http://www.w3.org/Graphics/SVG/1.1/DTD/svg11.dtd">
<!-- Creator: CorelDRAW 2017 -->
<svg xmlns="http://www.w3.org/2000/svg" xml:space="preserve" width="421.843mm" height="216.195mm" version="1.1" style="shape-rendering:geometricPrecision; text-rendering:geometricPrecision; image-rendering:optimizeQuality; fill-rule:evenodd; clip-rule:evenodd"
viewBox="0 0 43654.94 22373.16"
 xmlns:xlink="http://www.w3.org/1999/xlink">
 <defs>
  <style type="text/css">
   <![CDATA[
    .fil31 {fill:none}
    .fil13 {fill:#23946E}
    .fil14 {fill:#239649}
    .fil15 {fill:#26704B}
    .fil20 {fill:#33CC33}
    .fil30 {fill:#4D4D4D}
    .fil17 {fill:#59A359}
    .fil12 {fill:#6600CC}
    .fil16 {fill:#7EB57E}
    .fil2 {fill:gray}
    .fil24 {fill:#9900FF}
    .fil26 {fill:#9933CC}
    .fil21 {fill:#9966FF}
    .fil19 {fill:#99FF00}
    .fil29 {fill:#CAE3CA}
    .fil22 {fill:#CC33FF}
    .fil25 {fill:#CC6699}
    .fil5 {fill:#CC9933}
    .fil18 {fill:#CCCC33}
    .fil4 {fill:#CCCCCC}
    .fil23 {fill:#DE4075}
    .fil3 {fill:#E6E6E6}
    .fil28 {fill:#F0F0F0}
    .fil1 {fill:#FF0066}
    .fil27 {fill:#FF408C}
    .fil6 {fill:#FF9933}
    .fil0 {fill:#FAE042}
    .fil8 {fill:#EDBD3D}
    .fil10 {fill:#F25900}
    .fil7 {fill:#F54A91}
    .fil9 {fill:#CD26A0}
    .fil11 {fill:#C4008F}
   ]]>
  </style>
   <clipPath id="id0">
    <path d="M-0 0l43654.94 0 0 22373.16 -43654.94 0 0 -22373.16z"/>
   </clipPath>
 </defs>
 <g id="Capa_x0020_1">
  <metadata id="CorelCorpID_0Corel-Layer"/>
  <g>
  </g>
  <g style="clip-path:url(#id0)">
   <g>
    <polygon class="fil0" points="-1658.68,-8321.98 -1656.07,22569.71 28517,7128.53 "/>
    <polygon class="fil1" points="58692.15,-8321.85 58689.54,22569.83 28516.47,7128.66 "/>
    <rect class="fil2" transform="matrix(-0.337585 0.172904 -0 0.337585 12649.9 11176.5)" width="3740.87" height="3740.87"/>
    <rect class="fil2" transform="matrix(-0.337585 0.172904 -0 0.337585 12649.9 12500.3)" width="3740.87" height="3740.87"/>
    <rect class="fil2" transform="matrix(-0.337585 0.172904 -0 0.337585 12649.9 13821.4)" width="3740.87" height="3740.87"/>
    <rect class="fil2" transform="matrix(-0.337585 0.172904 -0 0.337585 11328.7 11853.1)" width="3740.87" height="3740.87"/>
    <rect class="fil2" transform="matrix(-0.337585 0.172904 -0 0.337585 11328.7 14498.1)" width="3740.87" height="3740.87"/>
    <rect class="fil2" transform="matrix(-0.337585 0.172904 -0 0.337585 10007.6 12529.8)" width="3740.87" height="3740.87"/>
    <rect class="fil2" transform="matrix(-0.337585 0.172904 -0 0.337585 10007.6 13853.6)" width="3740.87" height="3740.87"/>
    <rect class="fil2" transform="matrix(-0.337585 0.172904 -0 0.337585 10007.6 15174.7)" width="3740.87" height="3740.87"/>
    <rect class="fil2" transform="matrix(-0.337585 0.172904 -0 0.337585 12649.9 9859.04)" width="3740.87" height="3740.87"/>
    <rect class="fil3" transform="matrix(0.337585 0.172904 -0 0.337585 12696.2 11174.1)" width="3740.87" height="3740.87"/>
    <rect class="fil3" transform="matrix(0.337585 0.172904 -0 0.337585 12696.2 12497.9)" width="3740.87" height="3740.87"/>
    <rect class="fil3" transform="matrix(0.337585 0.172904 -0 0.337585 12696.2 13819)" width="3740.87" height="3740.87"/>
    <rect class="fil2" transform="matrix(0.337585 0.172904 -0 0.337585 14017.3 11850.7)" width="3740.87" height="3740.87"/>
    <rect class="fil2" transform="matrix(0.337585 0.172904 -0 0.337585 14017.3 13174.5)" width="3740.87" height="3740.87"/>
    <rect class="fil2" transform="matrix(0.337585 0.172904 -0 0.337585 14017.3 14495.7)" width="3740.87" height="3740.87"/>
    <rect class="fil3" transform="matrix(0.337585 0.172904 -0 0.337585 15338.5 12527.4)" width="3740.87" height="3740.87"/>
    <rect class="fil3" transform="matrix(0.337585 0.172904 -0 0.337585 15338.5 13851.2)" width="3740.87" height="3740.87"/>
    <rect class="fil3" transform="matrix(0.337585 0.172904 -0 0.337585 15338.5 15172.3)" width="3740.87" height="3740.87"/>
    <rect class="fil2" transform="matrix(-0.337585 0.172904 -0 0.337585 20566.7 11170.8)" width="3740.87" height="3740.87"/>
    <rect class="fil2" transform="matrix(-0.337585 0.172904 -0 0.337585 20566.7 12494.6)" width="3740.87" height="3740.87"/>
    <rect class="fil2" transform="matrix(-0.337585 0.172904 -0 0.337585 20566.7 13815.8)" width="3740.87" height="3740.87"/>
    <rect class="fil2" transform="matrix(-0.337585 0.172904 -0 0.337585 19245.6 11847.5)" width="3740.87" height="3740.87"/>
    <rect class="fil2" transform="matrix(-0.337585 0.172904 -0 0.337585 19245.6 14492.4)" width="3740.87" height="3740.87"/>
    <rect class="fil2" transform="matrix(-0.337585 0.172904 -0 0.337585 17924.4 12524.2)" width="3740.87" height="3740.87"/>
    <rect class="fil2" transform="matrix(-0.337585 0.172904 -0 0.337585 17924.4 13847.9)" width="3740.87" height="3740.87"/>
    <rect class="fil2" transform="matrix(-0.337585 0.172904 -0 0.337585 17924.4 15169.1)" width="3740.87" height="3740.87"/>
    <rect class="fil2" transform="matrix(-0.337585 0.172904 -0 0.337585 19245.6 17115.3)" width="3740.87" height="3740.87"/>
    <rect class="fil2" transform="matrix(-0.337585 0.172904 -0 0.337585 20566.7 15133.2)" width="3740.87" height="3740.87"/>
    <rect class="fil3" transform="matrix(0.337585 0.172904 -0 0.337585 20617.2 11174.1)" width="3740.87" height="3740.87"/>
    <rect class="fil3" transform="matrix(0.337585 0.172904 -0 0.337585 20617.2 12497.9)" width="3740.87" height="3740.87"/>
    <rect class="fil3" transform="matrix(0.337585 0.172904 -0 0.337585 20617.2 13819)" width="3740.87" height="3740.87"/>
    <rect class="fil2" transform="matrix(0.337585 0.172904 -0 0.337585 21938.4 11850.7)" width="3740.87" height="3740.87"/>
    <rect class="fil2" transform="matrix(0.337585 0.172904 -0 0.337585 21938.4 13174.5)" width="3740.87" height="3740.87"/>
    <rect class="fil2" transform="matrix(0.337585 0.172904 -0 0.337585 21938.4 14495.7)" width="3740.87" height="3740.87"/>
    <rect class="fil3" transform="matrix(0.337585 0.172904 -0 0.337585 23259.5 12527.4)" width="3740.87" height="3740.87"/>
    <rect class="fil3" transform="matrix(0.337585 0.172904 -0 0.337585 23259.5 13851.2)" width="3740.87" height="3740.87"/>
    <rect class="fil3" transform="matrix(0.337585 0.172904 -0 0.337585 23259.5 15172.3)" width="3740.87" height="3740.87"/>
    <polygon class="fil4" points="21939.46,11796.87 23219.63,11141.59 24477.99,11786.14 23198.71,12441.41 "/>
    <rect class="fil5" transform="matrix(-0.337585 0.172904 -0 0.337585 28486.4 11174.4)" width="3740.87" height="3740.87"/>
    <rect class="fil6" transform="matrix(-0.337585 0.172904 -0 0.337585 28486.4 12498.2)" width="3740.87" height="3740.87"/>
    <rect class="fil7" transform="matrix(-0.337585 0.172904 -0 0.337585 28486.4 13819.3)" width="3740.87" height="3740.87"/>
    <rect class="fil8" transform="matrix(-0.337585 0.172904 -0 0.337585 27165.3 11851)" width="3740.87" height="3740.87"/>
    <rect class="fil9" transform="matrix(-0.337585 0.172904 -0 0.337585 27165.3 14496)" width="3740.87" height="3740.87"/>
    <rect class="fil0" transform="matrix(-0.337585 0.172904 -0 0.337585 25844.1 12527.7)" width="3740.87" height="3740.87"/>
    <rect class="fil10" transform="matrix(-0.337585 0.172904 -0 0.337585 25844.1 13851.5)" width="3740.87" height="3740.87"/>
    <rect class="fil11" transform="matrix(-0.337585 0.172904 -0 0.337585 25844.1 15172.6)" width="3740.87" height="3740.87"/>
    <rect class="fil12" transform="matrix(-0.337585 0.172904 -0 0.337585 25844.1 16493.8)" width="3740.87" height="3740.87"/>
    <rect class="fil13" transform="matrix(0.337585 0.172904 -0 0.337585 28538.7 11174.1)" width="3740.87" height="3740.87"/>
    <rect class="fil14" transform="matrix(0.337585 0.172904 -0 0.337585 28538.7 12497.9)" width="3740.87" height="3740.87"/>
    <rect class="fil15" transform="matrix(0.337585 0.172904 -0 0.337585 28538.7 13819)" width="3740.87" height="3740.87"/>
    <rect class="fil16" transform="matrix(0.337585 0.172904 -0 0.337585 29859.8 11850.7)" width="3740.87" height="3740.87"/>
    <rect class="fil17" transform="matrix(0.337585 0.172904 -0 0.337585 29859.8 14495.7)" width="3740.87" height="3740.87"/>
    <rect class="fil18" transform="matrix(0.337585 0.172904 -0 0.337585 31181 12527.4)" width="3740.87" height="3740.87"/>
    <rect class="fil19" transform="matrix(0.337585 0.172904 -0 0.337585 31181 13851.2)" width="3740.87" height="3740.87"/>
    <rect class="fil20" transform="matrix(0.337585 0.172904 -0 0.337585 31181 15172.3)" width="3740.87" height="3740.87"/>
    <rect class="fil21" transform="matrix(-0.337585 0.172904 -0 0.337585 36407.9 11174.4)" width="3740.87" height="3740.87"/>
    <rect class="fil22" transform="matrix(-0.337585 0.172904 -0 0.337585 36407.9 12498.2)" width="3740.87" height="3740.87"/>
    <rect class="fil23" transform="matrix(-0.337585 0.172904 -0 0.337585 36407.9 13819.3)" width="3740.87" height="3740.87"/>
    <rect class="fil24" transform="matrix(-0.337585 0.172904 -0 0.337585 35086.8 11851)" width="3740.87" height="3740.87"/>
    <rect class="fil25" transform="matrix(-0.337585 0.172904 -0 0.337585 35086.8 14496)" width="3740.87" height="3740.87"/>
    <rect class="fil12" transform="matrix(-0.337585 0.172904 -0 0.337585 33765.6 12527.7)" width="3740.87" height="3740.87"/>
    <rect class="fil26" transform="matrix(-0.337585 0.172904 -0 0.337585 33765.6 13851.5)" width="3740.87" height="3740.87"/>
    <rect class="fil27" transform="matrix(-0.337585 0.172904 -0 0.337585 33765.6 15172.6)" width="3740.87" height="3740.87"/>
    <rect class="fil1" transform="matrix(-0.337585 0.172904 -0 0.337585 33765.6 16493.8)" width="3740.87" height="3740.87"/>
    <polygon class="fil3" points="16687.85,17127.46 17962.5,16474.98 19173.37,17091.26 17916.25,17745.22 "/>
    <polygon class="fil28" points="23260.55,12473.33 24540.47,11817.81 25825.39,12476.31 24545.82,13131.07 "/>
    <polygon class="fil4" points="14022.12,11796.87 15302.3,11141.59 16560.65,11786.14 15281.37,12441.41 "/>
    <polygon class="fil28" points="15343.22,12473.33 16623.13,11817.81 17908.05,12476.31 16628.48,13131.07 "/>
    <polygon class="fil29" points="29849.58,14438.54 31129.5,13783.04 31134.85,15096.3 "/>
    <polygon class="fil30" points="-1656.81,-8321.87 58692.2,-8321.37 28516.41,7128.7 "/>
   </g>
  </g>
  <polygon class="fil31" points="-0,0 43654.94,0 43654.94,22373.16 -0,22373.16 "/>
 </g>
</svg>
