<svg id="Layer_1" enable-background="new 0 0 512 512" height="512" viewBox="0 0 512 512" width="512" xmlns="http://www.w3.org/2000/svg"><g><path d="m144.266 277.352c-8.284 0-15-6.716-15-15v-58.387c0-8.284 6.716-15 15-15h94.328c8.284 0 15 6.716 15 15v58.141c0 8.284-6.716 15-15 15s-15-6.716-15-15v-43.141h-64.328v43.387c0 8.284-6.716 15-15 15z" fill="#ffda2c"/><path d="m237.707 188.965h-47.164v30h32.164v43.141c0 8.284 6.716 15 15 15s15-6.716 15-15v-58.141c0-8.284-6.716-15-15-15z" fill="#febf00"/><path d="m508.419 133.565-109.274-128.291c-2.849-3.346-7.023-5.274-11.419-5.274s-8.569 1.928-11.419 5.274l-109.272 128.291c-3.793 4.453-4.651 10.705-2.199 16.015 2.453 5.311 7.769 8.711 13.618 8.711h29.972v105.959l48.419 247.75 91.062-.159c8.271-.019 14.966-6.729 14.966-15v-338.55h34.127c5.85 0 11.165-3.4 13.618-8.711 2.452-5.31 1.594-11.562-2.199-16.015z" fill="#c4e83a"/><path d="m366.086 249.609h-351.086c-8.284 0-15 6.716-15 15v232.391c0 8.284 6.716 15 15 15h351.086c8.284 0 15-6.716 15-15v-232.391c0-8.284-6.716-15-15-15z" fill="#38336b"/><path d="m381.086 264.609c0-8.284-6.716-15-15-15h-351.086c-8.284 0-15 6.716-15 15v98.258h381.086z" fill="#453d81"/><path d="m287.384 407.527c-8.284 0-15-6.716-15-15v-66.213c0-8.284 6.716-15 15-15s15 6.716 15 15v66.213c0 8.284-6.716 15-15 15z" fill="#38336b"/><path d="m366.086 249.609h-175.543v262.391h175.543c8.284 0 15-6.716 15-15v-232.391c0-8.284-6.716-15-15-15z" fill="#2e2654"/><path d="m381.086 264.609c0-8.284-6.716-15-15-15h-175.543v113.258h190.543z" fill="#38336b"/><path d="m508.419 133.565-109.273-128.291c-2.85-3.346-7.024-5.274-11.419-5.274v511.946l60.18-.105c8.271-.019 14.966-6.729 14.966-15v-338.55h34.127c5.85 0 11.165-3.4 13.618-8.711 2.452-5.31 1.594-11.562-2.199-16.015z" fill="#90d960"/><path d="m93.307 407.527c-8.284 0-15-6.716-15-15v-66.213c0-8.284 6.716-15 15-15s15 6.716 15 15v66.213c0 8.284-6.716 15-15 15z" fill="#ffda2c"/><path d="m287.384 407.527c-8.284 0-15-6.716-15-15v-66.213c0-8.284 6.716-15 15-15s15 6.716 15 15v66.213c0 8.284-6.716 15-15 15z" fill="#febf00"/><path d="m190.345 394.434c-8.284 0-15-6.716-15-15v-23.093c0-8.284 6.716-15 15-15s15 6.716 15 15v23.093c0 8.284-6.716 15-15 15z" fill="#ffda2c"/><path d="m190.543 341.341v53.093c8.284 0 15-6.716 15-15v-23.093c0-8.284-6.716-15-15-15z" fill="#febf00"/></g></svg>