<?xml version="1.0" encoding="iso-8859-1"?>
<!-- Generator: Adobe Illustrator 19.0.0, SVG Export Plug-In . SVG Version: 6.00 Build 0)  -->
<svg version="1.1" id="Capa_1" xmlns="http://www.w3.org/2000/svg" xmlns:xlink="http://www.w3.org/1999/xlink" x="0px" y="0px"
	 viewBox="0 0 480.001 480.001" style="enable-background:new 0 0 480.001 480.001;" xml:space="preserve">
<path style="fill:#FFDFC4;" d="M0,328.001h104l56-24l80,8h56c0,22.091-17.909,40-40,40h-64l80,48h32l102.4-66.272
	c20.182-13.065,46.37-12.158,65.6,2.272l-168,136h-48l-152-56H0V328.001z"/>
<path style="fill:#777777;" d="M360,122.785l24-21.648c-6.4-15.48-6.4-15.52-12.8-30.992l-32.264,1.648l-18.728-18.688l1.648-32.264
	l-30.992-12.84l-21.648,24h-26.4l-21.68-24l-30.992,12.84l1.648,32.264l-18.688,18.688l-32.264-1.648
	c-6.4,15.472-6.4,15.512-12.84,30.992l24,21.648v26.4l-24,21.648c6.4,15.48,6.4,15.52,12.84,30.992l32.264-1.648l18.688,18.688
	l-1.648,32.336l30.992,12.8l21.648-24h26.4l21.648,24l30.992-12.8l-1.648-32.264c7.456-7.464,11.2-11.2,18.688-18.688l32.264,1.648
	c6.4-15.472,6.4-15.512,12.8-30.992l-24-21.648L360,122.785z M256,208.001c-39.764,0-72-32.236-72-72s32.236-72,72-72
	s72,32.235,72,72S295.765,208.001,256,208.001z"/>
<path d="M480,335.849c-0.047-2.464-1.228-4.77-3.2-6.248c-21.931-16.365-51.716-17.398-74.728-2.592L301.64,392.001h-27.424
	l-53.336-32H256c26.499-0.026,47.974-21.501,48-48c0-4.418-3.582-8-8-8l-55.2,0.04l-80-8c-1.347-0.129-2.706,0.08-3.952,0.608
	L102.4,320.001H0v16h104c1.084,0.002,2.157-0.218,3.152-0.648l54.104-23.2L240,320.001h46.992
	c-3.669,14.118-16.405,23.981-30.992,24h-64c-4.418,0.001-7.999,3.584-7.997,8.003c0.001,2.806,1.472,5.407,3.877,6.853l80,48
	c1.244,0.748,2.668,1.144,4.12,1.144h32c1.541,0.001,3.049-0.444,4.344-1.28l102.4-66.272c14.156-9.105,31.964-10.409,47.296-3.464
	L301.168,464.001h-43.744l-150.656-55.504c-0.886-0.327-1.823-0.495-2.768-0.496H0v16h102.576l150.656,55.504
	c0.886,0.327,1.823,0.495,2.768,0.496h48c1.832-0.001,3.608-0.631,5.032-1.784l168-136C478.95,340.666,480.046,338.316,480,335.849
	L480,335.849z"/>
<path d="M389.36,107.073c2.513-2.268,3.327-5.872,2.032-9l-12.8-30.992c-1.294-3.125-4.414-5.098-7.792-4.928l-28.72,1.464
	l-13.704-13.656l1.464-28.72c0.17-3.378-1.803-6.498-4.928-7.792l-30.984-12.8c-3.128-1.295-6.732-0.481-9,2.032l-19.264,21.32
	h-19.328l-19.264-21.36c-2.268-2.513-5.872-3.327-9-2.032l-30.984,12.84c-3.125,1.294-5.098,4.414-4.928,7.792l1.464,28.72
	L169.96,63.617l-28.72-1.464c-3.388-0.209-6.529,1.777-7.792,4.928l-12.84,30.992c-1.295,3.128-0.481,6.732,2.032,9L144,126.345
	v19.312l-21.36,19.272c-2.513,2.268-3.327,5.872-2.032,9l12.84,30.992c1.294,3.125,4.414,5.098,7.792,4.928l28.72-1.464
	l13.664,13.656l-1.464,28.72c-0.17,3.378,1.803,6.497,4.928,7.792l30.984,12.8c3.128,1.295,6.732,0.481,9-2.032l19.264-21.32h19.328
	l19.264,21.344c2.268,2.513,5.872,3.327,9,2.032l30.984-12.8c3.125-1.294,5.098-4.414,4.928-7.792l-1.464-28.72l13.664-13.656
	l28.72,1.464c3.364,0.118,6.457-1.838,7.792-4.928l12.8-30.992c1.295-3.128,0.481-6.732-2.032-9L368,145.657v-19.312L389.36,107.073
	z M354.656,155.153l19.792,17.872l-8.512,20.576l-26.632-1.36c-2.258-0.098-4.455,0.748-6.064,2.336l-18.688,18.688
	c-1.602,1.6-2.45,3.803-2.336,6.064l1.36,26.624l-20.56,8.52l-17.864-19.792c-1.516-1.68-3.673-2.639-5.936-2.64h-26.4
	c-2.263,0.001-4.42,0.96-5.936,2.64l-17.864,19.792l-20.616-8.544l1.36-26.624c0.114-2.261-0.734-4.464-2.336-6.064l-18.688-18.688
	c-1.606-1.592-3.805-2.439-6.064-2.336l-26.632,1.36l-8.512-20.552l19.792-17.872c1.682-1.518,2.641-3.678,2.64-5.944v-26.4
	c0.001-2.266-0.958-4.426-2.64-5.944l-19.792-17.872l8.536-20.592l26.632,1.36c2.261,0.114,4.464-0.734,6.064-2.336l18.688-18.688
	c1.602-1.6,2.45-3.803,2.336-6.064l-1.384-26.6l20.56-8.52l17.864,19.792c1.516,1.68,3.673,2.639,5.936,2.64h26.4
	c2.263-0.001,4.42-0.96,5.936-2.64l17.864-19.792l20.64,8.52l-1.36,26.624c-0.114,2.261,0.734,4.464,2.336,6.064l18.688,18.688
	c1.6,1.602,3.803,2.45,6.064,2.336l26.632-1.36l8.512,20.552l-19.792,17.872c-1.682,1.518-2.641,3.678-2.64,5.944v26.4
	C352.028,151.461,352.979,153.627,354.656,155.153L354.656,155.153z"/>
<path d="M256,56.001c-44.183,0-80,35.817-80,80s35.817,80,80,80s80-35.817,80-80C335.952,91.839,300.163,56.05,256,56.001z
	 M256,200.001c-35.346,0-64-28.654-64-64s28.654-64,64-64s64,28.654,64,64C319.96,171.331,291.33,199.962,256,200.001z"/>
<g>
</g>
<g>
</g>
<g>
</g>
<g>
</g>
<g>
</g>
<g>
</g>
<g>
</g>
<g>
</g>
<g>
</g>
<g>
</g>
<g>
</g>
<g>
</g>
<g>
</g>
<g>
</g>
<g>
</g>
</svg>
