<svg height="512" viewBox="0 0 64 64" width="512" xmlns="http://www.w3.org/2000/svg"><g id="Social_Network-hand-smartphone-chat-talk" data-name="Social Network-hand-smartphone-chat-talk"><path d="m61 3v12h-12l-6 6v-6h-4v-12z" fill="#d8d7da"/><path d="m58.9 32.69a4 4 0 0 1 1.87 3.77l-1.77 18.54v6h-14v-6.34a4 4 0 0 1 1.17-2.83l2.83-2.83-1-1-5.36-5.36a3 3 0 0 1 4.24-4.25l6.12 6.13v-15.52z" fill="#ffc477"/><path d="m46.88 38.39 6.12 6.13-2 1-7.12-7.13a3.126 3.126 0 0 0 -.62-.48 3.006 3.006 0 0 1 3.62.48z" fill="#ffa733"/><path d="m60.77 36.46-1.77 18.54v6h-3v-6l1.77-18.54a4 4 0 0 0 -1.87-3.77l-2.9-1.81v-1.88l5.9 3.69a4 4 0 0 1 1.87 3.77z" fill="#ffa733"/><path d="m42.64 38.39a3.006 3.006 0 0 0 0 4.25l5.36 5.36h-32l5.36-5.36a3 3 0 1 0 -4.24-4.25l-6.12 6.13v-17.52a2.006 2.006 0 0 1 2-2h38a2.006 2.006 0 0 1 2 2v17.52l-6.12-6.13a3 3 0 0 0 -4.24 0z" fill="#46f8ff"/><path d="m53 27v17.52l-4-4.01v-13.51a2.006 2.006 0 0 0 -2-2h4a2.006 2.006 0 0 1 2 2z" fill="#00b6bd"/><path d="m38 41v7h-12v-7a4 4 0 0 1 4-4h4a4 4 0 0 1 4 4z" fill="#ff3051"/><circle cx="32" cy="33" fill="#ffc477" r="4"/><path d="m38 41v7h-2v-7a4 4 0 0 0 -4-4h2a4 4 0 0 1 4 4z" fill="#cd2a00"/><path d="m36 33a4 4 0 0 1 -4 4 3.657 3.657 0 0 1 -1-.13 4 4 0 0 0 0-7.74 3.657 3.657 0 0 1 1-.13 4 4 0 0 1 4 4z" fill="#ffa733"/><path d="m25 3v12h-4v6l-6-6h-12v-12z" fill="#fee9ab"/><path d="m56 3h5v12h-5z" fill="#acabb1"/><path d="m20 3h5v12h-5z" fill="#ffd422"/><path d="m21.36 38.39a3.006 3.006 0 0 1 0 4.25l-5.36 5.36-1 1 2.83 2.83a4 4 0 0 1 1.17 2.83v6.34h-14v-6l-1.77-18.54a4 4 0 0 1 1.87-3.77l5.9-3.69v15.52l6.12-6.13a3 3 0 0 1 4.24 0z" fill="#ffc477"/><path d="m59.43 31.84-5.43-3.39v-1.45a3.009 3.009 0 0 0 -3-3h-38a3.009 3.009 0 0 0 -3 3v1.45l-5.43 3.39a4.976 4.976 0 0 0 -2.33 4.72l1.76 18.44v6a1 1 0 0 0 1 1h14a1 1 0 0 0 1-1v-6.34a4.994 4.994 0 0 0 -1.46-3.54l-2.13-2.12h31.18l-2.13 2.12a4.994 4.994 0 0 0 -1.46 3.54v6.34a1 1 0 0 0 1 1h14a1 1 0 0 0 1-1v-5.91l1.76-18.53a4.976 4.976 0 0 0 -2.33-4.72zm-45.14 17.87 2.83 2.83a2.956 2.956 0 0 1 .88 2.12v5.34h-12v-5.09l-1.77-18.54a2.978 2.978 0 0 1 1.4-2.83l4.37-2.74v13.72a.987.987 0 0 0 .62.92 1 1 0 0 0 1.09-.21l6.12-6.13a2.029 2.029 0 0 1 2.82 0 1.992 1.992 0 0 1 0 2.83l-6.36 6.36a1.014 1.014 0 0 0 0 1.42zm22.71-2.71h-10v-6a3.009 3.009 0 0 1 3-3h4a3.009 3.009 0 0 1 3 3zm-8-14a3 3 0 1 1 3 3 3.009 3.009 0 0 1 -3-3zm10 14v-6a5 5 0 0 0 -3.29-4.68 5 5 0 1 0 -7.42 0 5 5 0 0 0 -3.29 4.68v6h-6.59l3.66-3.65a4.006 4.006 0 1 0 -5.66-5.67l-4.41 4.42v-15.1a1 1 0 0 1 1-1h38a1 1 0 0 1 1 1v15.1l-4.41-4.42a4.006 4.006 0 0 0 -5.66 5.67l3.66 3.65zm20.77-10.63-1.77 18.63v5h-12v-5.34a2.956 2.956 0 0 1 .88-2.12l2.83-2.83a1.014 1.014 0 0 0 0-1.42l-6.36-6.36a1.992 1.992 0 0 1 0-2.83 2.029 2.029 0 0 1 2.82 0l6.12 6.13a1 1 0 0 0 1.09.21.987.987 0 0 0 .62-.92v-13.72l4.37 2.74a2.978 2.978 0 0 1 1.4 2.83z"/><path d="m25 2h-22a1 1 0 0 0 -1 1v12a1 1 0 0 0 1 1h11.59l5.7 5.71a1.007 1.007 0 0 0 .71.29.838.838 0 0 0 .38-.08.987.987 0 0 0 .62-.92v-5h3a1 1 0 0 0 1-1v-12a1 1 0 0 0 -1-1zm-1 12h-3a1 1 0 0 0 -1 1v3.59l-4.29-4.3a1.033 1.033 0 0 0 -.71-.29h-11v-10h20z"/><path d="m61 2h-22a1 1 0 0 0 -1 1v12a1 1 0 0 0 1 1h3v5a.987.987 0 0 0 .62.92.838.838 0 0 0 .38.08 1.007 1.007 0 0 0 .71-.29l5.7-5.71h11.59a1 1 0 0 0 1-1v-12a1 1 0 0 0 -1-1zm-1 12h-11a1.033 1.033 0 0 0 -.71.29l-4.29 4.3v-3.59a1 1 0 0 0 -1-1h-3v-10h20z"/><path d="m14 29v4h2v-3h3v-2h-4a1 1 0 0 0 -1 1z"/><path d="m48 33h2v-4a1 1 0 0 0 -1-1h-4v2h3z"/><path d="m7 8h2v2h-2z"/><path d="m11 8h2v2h-2z"/><path d="m15 8h2v2h-2z"/><path d="m19 8h2v2h-2z"/><path d="m42 6h2v2h-2z"/><path d="m46 6h2v2h-2z"/><path d="m50 6h8v2h-8z"/><path d="m42 10h2v2h-2z"/><path d="m46 10h12v2h-12z"/></g></svg>