<?xml version="1.0" encoding="UTF-8"?>
<!DOCTYPE svg PUBLIC "-//W3C//DTD SVG 1.1//EN" "http://www.w3.org/Graphics/SVG/1.1/DTD/svg11.dtd">
<!-- Creator: CorelDRAW 2017 -->
<svg xmlns="http://www.w3.org/2000/svg" xml:space="preserve" width="421.843mm" height="216.195mm" version="1.1" style="shape-rendering:geometricPrecision; text-rendering:geometricPrecision; image-rendering:optimizeQuality; fill-rule:evenodd; clip-rule:evenodd"
viewBox="0 0 43654.94 22373.16"
 xmlns:xlink="http://www.w3.org/1999/xlink">
 <defs>
  <style type="text/css">
   <![CDATA[
    .fil32 {fill:none}
    .fil13 {fill:#23946E}
    .fil14 {fill:#239649}
    .fil15 {fill:#26704B}
    .fil20 {fill:#33CC33}
    .fil31 {fill:#4D4D4D}
    .fil17 {fill:#59A359}
    .fil12 {fill:#6600CC}
    .fil16 {fill:#7EB57E}
    .fil2 {fill:gray}
    .fil24 {fill:#9900FF}
    .fil26 {fill:#9933CC}
    .fil21 {fill:#9966FF}
    .fil1 {fill:#999999}
    .fil19 {fill:#99FF00}
    .fil30 {fill:#CAE3CA}
    .fil22 {fill:#CC33FF}
    .fil25 {fill:#CC6699}
    .fil5 {fill:#CC9933}
    .fil18 {fill:#CCCC33}
    .fil4 {fill:#CCCCCC}
    .fil23 {fill:#DE4075}
    .fil3 {fill:#E6E6E6}
    .fil29 {fill:#F0F0F0}
    .fil28 {fill:#FF0066}
    .fil27 {fill:#FF408C}
    .fil6 {fill:#FF9933}
    .fil0 {fill:#FAE042}
    .fil8 {fill:#EDBD3D}
    .fil10 {fill:#F25900}
    .fil7 {fill:#F54A91}
    .fil9 {fill:#CD26A0}
    .fil11 {fill:#C4008F}
   ]]>
  </style>
   <clipPath id="id0">
    <path d="M-0 0l43654.94 0 0 22373.16 -43654.94 0 0 -22373.16z"/>
   </clipPath>
 </defs>
 <g id="Capa_x0020_1">
  <metadata id="CorelCorpID_0Corel-Layer"/>
  <g>
  </g>
  <g style="clip-path:url(#id0)">
   <g>
    <polygon class="fil0" points="8414.1,-5639.87 8415.85,15113.57 28686.52,4739.99 "/>
    <polygon class="fil1" points="54528.42,-2999.92 54525.82,27891.77 24352.75,12450.59 "/>
    <rect class="fil2" transform="matrix(-0.337585 0.172904 -0 0.337585 12345.2 14512.9)" width="3740.87" height="3740.87"/>
    <rect class="fil2" transform="matrix(-0.337585 0.172904 -0 0.337585 12345.2 15836.7)" width="3740.87" height="3740.87"/>
    <rect class="fil2" transform="matrix(-0.337585 0.172904 -0 0.337585 12345.2 17157.8)" width="3740.87" height="3740.87"/>
    <rect class="fil2" transform="matrix(-0.337585 0.172904 -0 0.337585 11024.1 15189.5)" width="3740.87" height="3740.87"/>
    <rect class="fil2" transform="matrix(-0.337585 0.172904 -0 0.337585 11024.1 17834.5)" width="3740.87" height="3740.87"/>
    <rect class="fil2" transform="matrix(-0.337585 0.172904 -0 0.337585 9702.94 15866.2)" width="3740.87" height="3740.87"/>
    <rect class="fil2" transform="matrix(-0.337585 0.172904 -0 0.337585 9702.94 17190)" width="3740.87" height="3740.87"/>
    <rect class="fil2" transform="matrix(-0.337585 0.172904 -0 0.337585 9702.94 18511.1)" width="3740.87" height="3740.87"/>
    <rect class="fil2" transform="matrix(-0.337585 0.172904 -0 0.337585 12345.2 13195.5)" width="3740.87" height="3740.87"/>
    <rect class="fil3" transform="matrix(0.337585 0.172904 -0 0.337585 12391.5 14510.5)" width="3740.87" height="3740.87"/>
    <rect class="fil3" transform="matrix(0.337585 0.172904 -0 0.337585 12391.5 15834.3)" width="3740.87" height="3740.87"/>
    <rect class="fil3" transform="matrix(0.337585 0.172904 -0 0.337585 12391.5 17155.4)" width="3740.87" height="3740.87"/>
    <rect class="fil2" transform="matrix(0.337585 0.172904 -0 0.337585 13712.7 15187.1)" width="3740.87" height="3740.87"/>
    <rect class="fil2" transform="matrix(0.337585 0.172904 -0 0.337585 13712.7 16510.9)" width="3740.87" height="3740.87"/>
    <rect class="fil2" transform="matrix(0.337585 0.172904 -0 0.337585 13712.7 17832.1)" width="3740.87" height="3740.87"/>
    <rect class="fil3" transform="matrix(0.337585 0.172904 -0 0.337585 15033.8 15863.8)" width="3740.87" height="3740.87"/>
    <rect class="fil3" transform="matrix(0.337585 0.172904 -0 0.337585 15033.8 17187.6)" width="3740.87" height="3740.87"/>
    <rect class="fil3" transform="matrix(0.337585 0.172904 -0 0.337585 15033.8 18508.7)" width="3740.87" height="3740.87"/>
    <rect class="fil2" transform="matrix(-0.337585 0.172904 -0 0.337585 20262.1 14507.2)" width="3740.87" height="3740.87"/>
    <rect class="fil2" transform="matrix(-0.337585 0.172904 -0 0.337585 20262.1 15831)" width="3740.87" height="3740.87"/>
    <rect class="fil2" transform="matrix(-0.337585 0.172904 -0 0.337585 20262.1 17152.2)" width="3740.87" height="3740.87"/>
    <rect class="fil2" transform="matrix(-0.337585 0.172904 -0 0.337585 18940.9 15183.9)" width="3740.87" height="3740.87"/>
    <rect class="fil2" transform="matrix(-0.337585 0.172904 -0 0.337585 18940.9 17828.8)" width="3740.87" height="3740.87"/>
    <rect class="fil2" transform="matrix(-0.337585 0.172904 -0 0.337585 17619.8 15860.6)" width="3740.87" height="3740.87"/>
    <rect class="fil2" transform="matrix(-0.337585 0.172904 -0 0.337585 17619.8 17184.4)" width="3740.87" height="3740.87"/>
    <rect class="fil2" transform="matrix(-0.337585 0.172904 -0 0.337585 17619.8 18505.5)" width="3740.87" height="3740.87"/>
    <rect class="fil2" transform="matrix(-0.337585 0.172904 -0 0.337585 18940.9 20451.7)" width="3740.87" height="3740.87"/>
    <rect class="fil2" transform="matrix(-0.337585 0.172904 -0 0.337585 20262.1 18469.6)" width="3740.87" height="3740.87"/>
    <rect class="fil3" transform="matrix(0.337585 0.172904 -0 0.337585 20312.6 14510.5)" width="3740.87" height="3740.87"/>
    <rect class="fil3" transform="matrix(0.337585 0.172904 -0 0.337585 20312.6 15834.3)" width="3740.87" height="3740.87"/>
    <rect class="fil3" transform="matrix(0.337585 0.172904 -0 0.337585 20312.6 17155.4)" width="3740.87" height="3740.87"/>
    <rect class="fil2" transform="matrix(0.337585 0.172904 -0 0.337585 21633.7 15187.1)" width="3740.87" height="3740.87"/>
    <rect class="fil2" transform="matrix(0.337585 0.172904 -0 0.337585 21633.7 16510.9)" width="3740.87" height="3740.87"/>
    <rect class="fil2" transform="matrix(0.337585 0.172904 -0 0.337585 21633.7 17832.1)" width="3740.87" height="3740.87"/>
    <rect class="fil3" transform="matrix(0.337585 0.172904 -0 0.337585 22954.9 15863.8)" width="3740.87" height="3740.87"/>
    <rect class="fil3" transform="matrix(0.337585 0.172904 -0 0.337585 22954.9 17187.6)" width="3740.87" height="3740.87"/>
    <rect class="fil3" transform="matrix(0.337585 0.172904 -0 0.337585 22954.9 18508.7)" width="3740.87" height="3740.87"/>
    <polygon class="fil4" points="21634.81,15133.28 22914.98,14478.01 24173.33,15122.55 22894.06,15777.83 "/>
    <rect class="fil5" transform="matrix(-0.337585 0.172904 -0 0.337585 28181.8 14510.8)" width="3740.87" height="3740.87"/>
    <rect class="fil6" transform="matrix(-0.337585 0.172904 -0 0.337585 28181.8 15834.6)" width="3740.87" height="3740.87"/>
    <rect class="fil7" transform="matrix(-0.337585 0.172904 -0 0.337585 28181.8 17155.7)" width="3740.87" height="3740.87"/>
    <rect class="fil8" transform="matrix(-0.337585 0.172904 -0 0.337585 26860.6 15187.4)" width="3740.87" height="3740.87"/>
    <rect class="fil9" transform="matrix(-0.337585 0.172904 -0 0.337585 26860.6 17832.4)" width="3740.87" height="3740.87"/>
    <rect class="fil0" transform="matrix(-0.337585 0.172904 -0 0.337585 25539.5 15864.1)" width="3740.87" height="3740.87"/>
    <rect class="fil10" transform="matrix(-0.337585 0.172904 -0 0.337585 25539.5 17187.9)" width="3740.87" height="3740.87"/>
    <rect class="fil11" transform="matrix(-0.337585 0.172904 -0 0.337585 25539.5 18509)" width="3740.87" height="3740.87"/>
    <rect class="fil12" transform="matrix(-0.337585 0.172904 -0 0.337585 25539.5 19830.2)" width="3740.87" height="3740.87"/>
    <rect class="fil13" transform="matrix(0.337585 0.172904 -0 0.337585 28234 14510.5)" width="3740.87" height="3740.87"/>
    <rect class="fil14" transform="matrix(0.337585 0.172904 -0 0.337585 28234 15834.3)" width="3740.87" height="3740.87"/>
    <rect class="fil15" transform="matrix(0.337585 0.172904 -0 0.337585 28234 17155.4)" width="3740.87" height="3740.87"/>
    <rect class="fil16" transform="matrix(0.337585 0.172904 -0 0.337585 29555.2 15187.1)" width="3740.87" height="3740.87"/>
    <rect class="fil17" transform="matrix(0.337585 0.172904 -0 0.337585 29555.2 17832.1)" width="3740.87" height="3740.87"/>
    <rect class="fil18" transform="matrix(0.337585 0.172904 -0 0.337585 30876.3 15863.8)" width="3740.87" height="3740.87"/>
    <rect class="fil19" transform="matrix(0.337585 0.172904 -0 0.337585 30876.3 17187.6)" width="3740.87" height="3740.87"/>
    <rect class="fil20" transform="matrix(0.337585 0.172904 -0 0.337585 30876.3 18508.7)" width="3740.87" height="3740.87"/>
    <rect class="fil21" transform="matrix(-0.337585 0.172904 -0 0.337585 36103.3 14510.8)" width="3740.87" height="3740.87"/>
    <rect class="fil22" transform="matrix(-0.337585 0.172904 -0 0.337585 36103.3 15834.6)" width="3740.87" height="3740.87"/>
    <rect class="fil23" transform="matrix(-0.337585 0.172904 -0 0.337585 36103.3 17155.7)" width="3740.87" height="3740.87"/>
    <rect class="fil24" transform="matrix(-0.337585 0.172904 -0 0.337585 34782.1 15187.4)" width="3740.87" height="3740.87"/>
    <rect class="fil25" transform="matrix(-0.337585 0.172904 -0 0.337585 34782.1 17832.4)" width="3740.87" height="3740.87"/>
    <rect class="fil12" transform="matrix(-0.337585 0.172904 -0 0.337585 33461 15864.1)" width="3740.87" height="3740.87"/>
    <rect class="fil26" transform="matrix(-0.337585 0.172904 -0 0.337585 33461 17187.9)" width="3740.87" height="3740.87"/>
    <rect class="fil27" transform="matrix(-0.337585 0.172904 -0 0.337585 33461 18509)" width="3740.87" height="3740.87"/>
    <rect class="fil28" transform="matrix(-0.337585 0.172904 -0 0.337585 33461 19830.2)" width="3740.87" height="3740.87"/>
    <polygon class="fil3" points="16383.2,20463.88 17657.85,19811.4 18868.71,20427.68 17611.59,21081.64 "/>
    <polygon class="fil29" points="22955.9,15809.74 24235.82,15154.23 25520.73,15812.72 24241.17,16467.49 "/>
    <polygon class="fil4" points="13717.47,15133.28 14997.65,14478.01 16256,15122.55 14976.72,15777.83 "/>
    <polygon class="fil29" points="15038.56,15809.74 16318.48,15154.23 17603.4,15812.72 16323.83,16467.49 "/>
    <polygon class="fil30" points="29544.93,17774.96 30824.85,17119.45 30830.2,18432.71 "/>
    <polygon class="fil31" points="-545.87,-4623.04 58387.55,-4622.54 28919.58,10465.12 "/>
    <polygon class="fil28" points="8425.64,-15778.74 8423.03,15112.95 -21750.04,-328.23 "/>
   </g>
  </g>
  <polygon class="fil32" points="-0,0 43654.94,0 43654.94,22373.16 -0,22373.16 "/>
 </g>
</svg>
