<?xml version="1.0" encoding="UTF-8"?>
<!DOCTYPE svg PUBLIC "-//W3C//DTD SVG 1.1//EN" "http://www.w3.org/Graphics/SVG/1.1/DTD/svg11.dtd">
<!-- Creator: CorelDRAW 2017 -->
<svg xmlns="http://www.w3.org/2000/svg" xml:space="preserve" width="1.57884in" height="0.957213in" version="1.1" style="shape-rendering:geometricPrecision; text-rendering:geometricPrecision; image-rendering:optimizeQuality; fill-rule:evenodd; clip-rule:evenodd"
viewBox="0 0 290.36 176.04"
 xmlns:xlink="http://www.w3.org/1999/xlink">
 <defs>
  <style type="text/css">
   <![CDATA[
    .fil1 {fill:#00A859}
    .fil0 {fill:#00A859;fill-rule:nonzero}
   ]]>
  </style>
 </defs>
 <g id="Layer_x0020_1">
  <metadata id="CorelCorpID_0Corel-Layer"/>
  <g id="_393817734992">
   <path class="fil0" d="M-0 93.57l12.06 -65.06 34.95 0 -2.2 11.71 -22.89 0 -2.73 14.97 21.92 0 -2.2 11.71 -21.92 0 -2.73 14.97 22.89 0 -2.2 11.71 -34.95 0zm45.78 0l12.06 -65.06 13.56 0 18.31 47.54 8.8 -47.54 12.06 0 -12.06 65.06 -13.38 0 -18.49 -47.37 -8.8 47.37 -12.06 0zm85.13 0l-13.21 -65.06 12.68 0 8.36 49.48 26.68 -49.48 12.68 0 -37.24 65.06 -9.95 0zm41.64 0l12.06 -65.06 12.06 0 -12.06 65.06 -12.06 0zm67.53 -66.29c8.33,0.06 15.11,2.73 20.34,8.01 5.22,5.28 7.84,11.89 7.84,19.81 0,1 -0.04,2.02 -0.13,3.08 -0.09,1.06 -0.25,2.14 -0.48,3.26 -1.76,9.39 -6.57,17.36 -14.44,23.9 -7.87,6.54 -16.43,9.82 -25.71,9.82 -8.22,0 -14.98,-2.61 -20.29,-7.84 -5.31,-5.22 -7.97,-11.8 -7.97,-19.72 0,-1 0.06,-2.01 0.18,-3.04 0.12,-1.03 0.26,-2.07 0.44,-3.13 1.76,-9.45 6.56,-17.49 14.39,-24.12 7.84,-6.63 16.45,-9.95 25.84,-9.95l0 -0.09zm-2.2 11.71c-6.05,0.06 -11.59,2.25 -16.64,6.56 -5.05,4.31 -8.16,9.52 -9.33,15.63 -0.12,0.7 -0.21,1.39 -0.26,2.07 -0.06,0.67 -0.09,1.34 -0.09,1.98 0,5.11 1.69,9.43 5.06,12.99 3.38,3.55 7.7,5.33 12.99,5.33 5.93,0 11.46,-2.22 16.6,-6.66 5.14,-4.43 8.26,-9.68 9.38,-15.74 0.12,-0.7 0.22,-1.41 0.31,-2.11 0.09,-0.7 0.13,-1.42 0.13,-2.13 -0.06,-5.11 -1.75,-9.38 -5.06,-12.78 -3.32,-3.42 -7.67,-5.12 -13.07,-5.12zm-166.57 89.6l-14.44 0c-1.47,-2.67 -3.6,-4.77 -6.38,-6.31 -2.79,-1.54 -5.83,-2.32 -9.11,-2.32 -0.47,0 -0.94,0.01 -1.41,0.04 -0.47,0.03 -0.94,0.07 -1.41,0.13 -2.29,0.29 -4.58,0.91 -6.87,1.83 -2.29,0.92 -4.43,2.16 -6.43,3.71 -2.23,1.7 -4.21,3.74 -5.94,6.15 -1.73,2.41 -3.01,4.89 -3.83,7.47 -0.18,0.47 -0.32,0.92 -0.44,1.36 -0.12,0.44 -0.2,0.9 -0.26,1.35 -0.12,0.59 -0.21,1.19 -0.26,1.81 -0.06,0.62 -0.09,1.25 -0.09,1.89 0,2.11 0.34,4.15 1.01,6.15 0.67,2 1.6,3.74 2.77,5.27 1.76,2.35 3.99,4.14 6.69,5.4 2.7,1.26 5.61,1.89 8.72,1.89 0.82,0 1.66,-0.06 2.51,-0.18 0.85,-0.12 1.69,-0.26 2.51,-0.44 3.11,-0.76 6.12,-2.11 9.02,-4.05 2.9,-1.94 5.3,-4.28 7.18,-7.04l-27.2 0 2.11 -11.45 42.44 0 -0.26 1.41c-1.76,9.51 -6.63,17.43 -14.61,23.77 -7.98,6.34 -16.58,9.54 -25.8,9.6 -0.06,0 -0.12,0 -0.18,0 -0.06,0 -0.12,0 -0.18,0 -8.34,0 -15.28,-2.6 -20.82,-7.79 -5.55,-5.19 -8.32,-11.78 -8.32,-19.76 0,-1 0.06,-2 0.18,-2.99 0.12,-1 0.26,-2.03 0.44,-3.08 1.76,-9.57 6.65,-17.64 14.66,-24.21 8.01,-6.57 16.65,-9.89 25.93,-9.95 0.06,0 0.12,0 0.18,0 0.06,0 0.12,0 0.18,0 6.63,0 12.59,1.83 17.87,5.49 5.28,3.65 8.57,8.63 9.86,14.94l0 -0.09zm2.64 45.87l12.06 -65.06 18.84 0c3.11,0.12 6.04,0.41 8.8,0.88 2.76,0.47 5.17,1.73 7.22,3.79 1.58,1.58 2.8,3.48 3.65,5.68 0.85,2.2 1.28,4.5 1.28,6.91 0,0.59 -0.02,1.16 -0.04,1.72 -0.03,0.56 -0.1,1.13 -0.22,1.72 -0.12,0.76 -0.32,1.56 -0.62,2.38 -0.29,0.82 -0.62,1.64 -0.97,2.46 -0.76,1.76 -1.7,3.46 -2.82,5.11 -1.12,1.64 -2.32,3.05 -3.61,4.23 -1.88,1.7 -3.89,3.05 -6.03,4.05 -2.14,1 -4.36,1.73 -6.65,2.2l13.12 23.95 -14.88 0 -12.33 -24.92 -0.18 0 -4.58 24.92 -12.06 0zm18.4 -34.07l6.6 0c0.65,0.06 1.32,0.06 2.03,0 0.7,-0.06 1.44,-0.15 2.2,-0.26 1.06,-0.18 2.08,-0.44 3.08,-0.79 1,-0.35 1.91,-0.88 2.73,-1.58 1.17,-0.94 2.13,-2.01 2.86,-3.21 0.73,-1.2 1.22,-2.48 1.45,-3.83 0.06,-0.29 0.1,-0.6 0.13,-0.92 0.03,-0.32 0.04,-0.63 0.04,-0.92 0,-1.06 -0.19,-2.07 -0.57,-3.04 -0.38,-0.97 -0.95,-1.78 -1.72,-2.42 -1.23,-1.06 -2.55,-1.69 -3.96,-1.89 -1.41,-0.21 -2.96,-0.31 -4.67,-0.31l-6.69 0 -3.52 19.19zm27.29 34.07l39.18 -65.06 9.42 0 15.32 65.06 -13.29 0 -3.96 -16.82 -23.07 0 -10.3 16.82 -13.29 0zm30.2 -28.52l13.91 0 -3.26 -19.72 -10.65 19.72zm40.5 28.52l9.86 -53.35 -11.97 0 2.2 -11.71 36.18 0 -2.2 11.71 -12.15 0 -9.86 53.35 -12.06 0zm30.37 0l12.06 -65.06 12.06 0 -12.06 65.06 -12.06 0zm23.33 -18.31l12.59 0c-0.06,0.35 -0.1,0.66 -0.13,0.92 -0.03,0.26 -0.04,0.54 -0.04,0.84 0,2.05 0.73,3.65 2.2,4.8 1.47,1.14 3.29,1.72 5.46,1.72 2.29,0 4.43,-0.78 6.43,-2.33 2,-1.57 3.2,-3.52 3.61,-5.87 0.12,-0.35 0.18,-0.72 0.18,-1.07 0,-0.35 0,-0.67 0,-0.97 0,-2.52 -0.85,-4.4 -2.55,-5.6 -1.7,-1.2 -3.58,-2.19 -5.63,-2.95 -0.23,-0.06 -0.45,-0.13 -0.66,-0.22 -0.21,-0.09 -0.43,-0.16 -0.66,-0.22 -0.18,-0.06 -0.34,-0.12 -0.48,-0.18 -0.15,-0.06 -0.31,-0.12 -0.48,-0.18 -1.82,-0.66 -3.51,-1.38 -5.06,-2.17 -1.56,-0.79 -2.95,-1.95 -4.18,-3.48 -0.94,-1.25 -1.69,-2.69 -2.25,-4.33 -0.56,-1.64 -0.81,-3.36 -0.75,-5.12 0,-0.47 0.03,-0.97 0.09,-1.5 0.06,-0.53 0.12,-1.06 0.18,-1.58 1,-5.31 3.73,-9.71 8.19,-13.19 4.46,-3.48 9.27,-5.21 14.44,-5.21 4.52,0 8.3,1.45 11.36,4.37 3.05,2.92 4.55,6.54 4.49,10.86 0,0.53 -0.01,1.06 -0.04,1.58 -0.03,0.53 -0.1,1.06 -0.22,1.58l-12.41 -0.09c0,-0.06 0,-0.12 0,-0.18 0,-0.06 0.03,-0.15 0.09,-0.26 0,-0.06 0,-0.13 0,-0.22 0,-0.09 0,-0.16 0,-0.22 0,-1.73 -0.6,-3.13 -1.81,-4.17 -1.2,-1.04 -2.66,-1.56 -4.36,-1.56 -2,0 -3.7,0.65 -5.11,1.95 -1.41,1.31 -2.29,2.92 -2.64,4.83 0,0.06 -0.02,0.13 -0.04,0.22 -0.03,0.09 -0.04,0.16 -0.04,0.22 0,0.18 -0.01,0.34 -0.04,0.48 -0.03,0.15 -0.04,0.28 -0.04,0.4 0,1.7 0.62,3.02 1.85,3.96 1.23,0.95 2.58,1.72 4.05,2.3 0.18,0.06 0.35,0.12 0.53,0.18 0.18,0.06 0.35,0.12 0.53,0.18 0.29,0.12 0.57,0.22 0.84,0.31 0.26,0.09 0.54,0.19 0.84,0.31 1.82,0.65 3.58,1.36 5.28,2.16 1.7,0.79 3.23,1.86 4.58,3.23 1.53,1.41 2.67,2.99 3.43,4.75 0.76,1.76 1.14,3.77 1.14,6 -0.06,0.59 -0.12,1.23 -0.18,1.94 -0.06,0.7 -0.15,1.41 -0.26,2.11 -1.06,5.83 -4.04,10.71 -8.94,14.64 -4.9,3.95 -10.23,5.91 -15.98,5.91 -4.99,0 -9.19,-1.53 -12.59,-4.58 -3.4,-3.05 -5.11,-6.98 -5.11,-11.8 0,-0.59 0.04,-1.16 0.13,-1.72 0.09,-0.56 0.16,-1.13 0.22,-1.72l0 -0.09z"/>
   <polygon class="fil1" points="257.5,0 267.21,4.06 253.37,22.24 248.61,20.65 "/>
  </g>
 </g>
</svg>
