<?xml version="1.0" encoding="UTF-8"?>
<!DOCTYPE svg PUBLIC "-//W3C//DTD SVG 1.1//EN" "http://www.w3.org/Graphics/SVG/1.1/DTD/svg11.dtd">
<!-- Creator: CorelDRAW 2017 -->
<svg xmlns="http://www.w3.org/2000/svg" xml:space="preserve" width="2.34213in" height="1.09332in" version="1.1" style="shape-rendering:geometricPrecision; text-rendering:geometricPrecision; image-rendering:optimizeQuality; fill-rule:evenodd; clip-rule:evenodd"
viewBox="0 0 609.39 284.47"
 xmlns:xlink="http://www.w3.org/1999/xlink">
 <defs>
  <style type="text/css">
   <![CDATA[
    .fil1 {fill:black}
    .fil0 {fill:#F58634;fill-rule:nonzero}
   ]]>
  </style>
 </defs>
 <g id="Layer_x0020_1">
  <metadata id="CorelCorpID_0Corel-Layer"/>
  <path class="fil0" d="M-0 170.03l17.06 -92.05 26.66 0c4.4,0.17 8.55,0.58 12.46,1.25 3.9,0.66 7.31,2.45 10.21,5.36 2.24,2.24 3.97,4.92 5.17,8.03 1.2,3.11 1.81,6.37 1.81,9.78 0,0.83 -0.02,1.64 -0.06,2.43 -0.04,0.79 -0.15,1.6 -0.31,2.43 -0.17,1.08 -0.46,2.2 -0.87,3.36 -0.42,1.16 -0.87,2.32 -1.37,3.49 -1.08,2.49 -2.41,4.9 -3.99,7.22 -1.58,2.33 -3.28,4.32 -5.11,5.98 -2.66,2.41 -5.5,4.32 -8.53,5.73 -3.03,1.41 -6.17,2.45 -9.4,3.11l18.56 33.88 -21.05 0 -17.44 -35.25 -0.25 0 -6.48 35.25 -17.06 0zm26.03 -48.2l9.34 0c0.91,0.08 1.87,0.08 2.87,0 1,-0.08 2.03,-0.21 3.11,-0.37 1.5,-0.25 2.95,-0.62 4.36,-1.12 1.41,-0.5 2.7,-1.25 3.86,-2.24 1.66,-1.33 3.01,-2.84 4.05,-4.55 1.04,-1.7 1.72,-3.51 2.05,-5.42 0.08,-0.42 0.15,-0.85 0.19,-1.31 0.04,-0.46 0.06,-0.89 0.06,-1.31 0,-1.49 -0.27,-2.93 -0.81,-4.3 -0.54,-1.37 -1.35,-2.51 -2.43,-3.43 -1.74,-1.49 -3.61,-2.39 -5.61,-2.68 -1.99,-0.29 -4.19,-0.44 -6.6,-0.44l-9.47 0 -4.98 27.15zm46.21 48.2l17.06 -92.05 49.45 0 -3.11 16.57 -32.39 0 -3.86 21.17 31.02 0 -3.11 16.57 -31.01 0 -3.86 21.18 32.39 0 -3.11 16.57 -49.45 0zm74.11 0l13.95 -75.48 -16.94 0 3.11 -16.57 51.19 0 -3.11 16.57 -17.19 0 -13.95 75.48 -17.06 0zm42.97 0l17.06 -92.05 17.06 0 -17.06 92.05 -17.06 0zm34.88 0l17.06 -92.05 26.66 0c4.4,0.17 8.55,0.58 12.46,1.25 3.9,0.66 7.31,2.45 10.21,5.36 2.24,2.24 3.97,4.92 5.17,8.03 1.2,3.11 1.81,6.37 1.81,9.78 0,0.83 -0.02,1.64 -0.06,2.43 -0.04,0.79 -0.15,1.6 -0.31,2.43 -0.17,1.08 -0.46,2.2 -0.87,3.36 -0.42,1.16 -0.87,2.32 -1.37,3.49 -1.08,2.49 -2.41,4.9 -3.99,7.22 -1.58,2.33 -3.28,4.32 -5.11,5.98 -2.66,2.41 -5.5,4.32 -8.53,5.73 -3.03,1.41 -6.17,2.45 -9.4,3.11l18.56 33.88 -21.05 0 -17.44 -35.25 -0.25 0 -6.48 35.25 -17.06 0zm26.03 -48.2l9.34 0c0.91,0.08 1.87,0.08 2.87,0 1,-0.08 2.03,-0.21 3.11,-0.37 1.5,-0.25 2.95,-0.62 4.36,-1.12 1.41,-0.5 2.7,-1.25 3.86,-2.24 1.66,-1.33 3.01,-2.84 4.05,-4.55 1.04,-1.7 1.72,-3.51 2.05,-5.42 0.08,-0.42 0.15,-0.85 0.19,-1.31 0.04,-0.46 0.06,-0.89 0.06,-1.31 0,-1.49 -0.27,-2.93 -0.81,-4.3 -0.54,-1.37 -1.35,-2.51 -2.43,-3.43 -1.74,-1.49 -3.61,-2.39 -5.61,-2.68 -1.99,-0.29 -4.19,-0.44 -6.6,-0.44l-9.47 0 -4.98 27.15zm38.61 48.2l55.43 -92.05 13.33 0 21.67 92.05 -18.81 0 -5.61 -23.79 -32.63 0 -14.57 23.79 -18.81 0zm42.72 -40.36l19.68 0 -4.61 -27.9 -15.07 27.9zm57.05 40.36l17.06 -92.05 26.66 0c4.4,0.17 8.55,0.58 12.46,1.25 3.9,0.66 7.31,2.45 10.21,5.36 2.24,2.24 3.97,4.92 5.17,8.03 1.2,3.11 1.81,6.37 1.81,9.78 0,0.83 -0.02,1.64 -0.06,2.43 -0.04,0.79 -0.15,1.6 -0.31,2.43 -0.17,1.08 -0.46,2.2 -0.87,3.36 -0.42,1.16 -0.87,2.32 -1.37,3.49 -1.08,2.49 -2.41,4.9 -3.99,7.22 -1.58,2.33 -3.28,4.32 -5.11,5.98 -2.66,2.41 -5.5,4.32 -8.53,5.73 -3.03,1.41 -6.17,2.45 -9.4,3.11l18.56 33.88 -21.05 0 -17.44 -35.25 -0.25 0 -6.48 35.25 -17.06 0zm26.03 -48.2l9.34 0c0.91,0.08 1.87,0.08 2.87,0 1,-0.08 2.03,-0.21 3.11,-0.37 1.5,-0.25 2.95,-0.62 4.36,-1.12 1.41,-0.5 2.7,-1.25 3.86,-2.24 1.66,-1.33 3.01,-2.84 4.05,-4.55 1.04,-1.7 1.72,-3.51 2.05,-5.42 0.08,-0.42 0.15,-0.85 0.19,-1.31 0.04,-0.46 0.06,-0.89 0.06,-1.31 0,-1.49 -0.27,-2.93 -0.81,-4.3 -0.54,-1.37 -1.35,-2.51 -2.43,-3.43 -1.74,-1.49 -3.61,-2.39 -5.61,-2.68 -1.99,-0.29 -4.19,-0.44 -6.6,-0.44l-9.47 0 -4.98 27.15zm-414.65 162.64l17.06 -92.05 49.45 0 -3.11 16.57 -32.39 0 -3.86 21.17 31.02 0 -3.11 16.57 -31.01 0 -3.86 21.18 32.39 0 -3.11 16.57 -49.45 0zm64.77 0l17.06 -92.05 19.18 0 25.91 67.26 12.46 -67.26 17.06 0 -17.06 92.05 -18.93 0 -26.16 -67.01 -12.46 67.01 -17.06 0zm136.39 0l13.95 -75.48 -16.94 0 3.11 -16.57 51.19 0 -3.11 16.57 -17.19 0 -13.95 75.48 -17.06 0zm42.97 0l17.06 -92.05 17.06 0 -17.06 92.05 -17.06 0zm34.88 0l17.06 -92.05 49.45 0 -3.11 16.57 -32.39 0 -3.86 21.17 31.02 0 -3.11 16.57 -31.01 0 -3.86 21.18 32.39 0 -3.11 16.57 -49.45 0zm64.77 0l17.06 -92.05 19.18 0 25.91 67.26 12.46 -67.26 17.06 0 -17.06 92.05 -18.93 0 -26.16 -67.01 -12.46 67.01 -17.06 0zm92.17 0l17.06 -92.05 19.31 0c0.17,0.08 0.33,0.12 0.5,0.12 0.17,0 0.33,0 0.5,0 6.73,0.08 13.24,0.77 19.56,2.05 6.31,1.29 11.67,4.17 16.07,8.66 3.32,3.32 5.81,7.39 7.47,12.21 1.66,4.82 2.49,9.84 2.49,15.07 0,1.33 -0.06,2.72 -0.19,4.17 -0.12,1.45 -0.31,2.89 -0.56,4.3 -0.17,0.91 -0.37,1.83 -0.62,2.74 -0.25,0.91 -0.5,1.83 -0.75,2.74 -1.74,5.56 -4.44,10.96 -8.1,16.19 -3.65,5.23 -7.93,9.67 -12.83,13.33 -6.39,4.73 -12.93,7.66 -19.62,8.78 -6.68,1.12 -13.56,1.68 -20.61,1.68l-19.68 0zm20.18 -16.57l2.12 0c3.57,0.08 7.08,-0.02 10.53,-0.31 3.45,-0.29 6.87,-1.06 10.28,-2.3 1.08,-0.5 2.18,-1.02 3.3,-1.56 1.12,-0.54 2.26,-1.18 3.43,-1.93 4.07,-2.74 7.43,-6.1 10.09,-10.09 2.66,-3.99 4.4,-8.22 5.23,-12.71 0.17,-1 0.29,-1.99 0.37,-2.99 0.08,-1 0.12,-1.95 0.12,-2.87 0,-3.74 -0.69,-7.22 -2.06,-10.46 -1.37,-3.24 -3.43,-5.94 -6.17,-8.1 -2.82,-2.24 -6.06,-3.7 -9.71,-4.36 -3.65,-0.66 -7.43,-1.04 -11.33,-1.12 -0.66,0 -1.35,0 -2.06,0 -0.71,0 -1.39,0 -2.05,0l-1.25 0 -10.84 58.79zm59.41 16.57l55.43 -92.05 13.33 0 21.67 92.05 -18.81 0 -5.61 -23.79 -32.63 0 -14.57 23.79 -18.81 0zm42.72 -40.36l19.68 0 -4.61 -27.9 -15.07 27.9z"/>
  <g id="_394450369408">
   <path class="fil1" d="M547.55 60.61c-2.43,-1.44 -4.84,-3.47 -5.65,-6.41 -3.92,-4.5 -1.87,-13.98 1.02,-17.76 3.8,-4.98 7.68,-6.93 16.09,-6.93 1.63,0.17 0.53,-0.07 0.93,0.55 3.02,-0.39 6.63,2.39 8.35,3.97 2.01,1.85 3.65,4.12 4.69,7.57l0.68 2.97c0,7.99 -2.78,12.93 -7.82,16.04 -5.72,3.53 -12.79,3.74 -18.28,-0.01zm-6.44 -58.13c-1.31,0.79 -4.46,2.06 -6.21,2.92 -2.22,1.1 -3.74,2.03 -5.6,3.27 -5.66,3.75 -9.87,8.82 -13.68,14.72 -0.77,1.92 -1.96,3.73 -2.82,5.9 -0.83,2.1 -1.38,4.43 -2.17,6.17l-1.08 5.77 -0.34 7.11 0.58 7.9 0.63 3.39c1.05,4.59 2.9,8.93 3.97,13.3l2.3 5.95c0.3,0.33 6.19,12.42 6.48,13.26 0.07,0.08 0.25,0.25 0.54,0.69l2.76 5.21c0.65,1.08 2.74,4.84 2.94,5.79 1.89,2.97 4,6.79 5.72,9.78 1.48,2.58 4.52,7.02 5.45,9.62 1.07,0.77 6.53,10.27 7.24,11.98 1.5,2.34 2.79,4.78 4.4,7.33 1.03,1.63 3.63,5.68 4.25,7.47 1.7,-1.7 3.62,-5.82 4.94,-7.95 1.85,-3.17 5.34,-10.08 7.61,-12.51 0.56,-1.71 1.86,-3.44 2.85,-5.14 1.04,-1.79 1.96,-3.36 2.93,-5.04 1.88,-3.26 3.9,-6.75 5.8,-9.69 0.26,-1.01 5.77,-10.71 6.25,-11.23 1,-2.19 2.35,-4.59 3.59,-6.96 1.29,-2.46 2.16,-4.92 3.55,-6.92 0.29,-1.39 4.38,-10.51 4.99,-11.65 0.95,-3.86 2.61,-7.44 3.55,-11.59 1.06,-4.67 1.32,-7.63 1.68,-12.58 -0.24,-7.16 -0.88,-12.16 -3.16,-18.28 -1.2,-3.24 -2.06,-4.6 -3.58,-7.26 -1.36,-2.4 -3.2,-4.42 -4.18,-6.29 -1.6,-1.49 -2.53,-2.7 -3.98,-3.97 -0.69,-0.6 -1.12,-1.17 -1.89,-1.83 -0.74,-0.63 -1.24,-0.82 -2.01,-1.7l-11.66 -6.38c-0.04,-0.12 -0.18,-0.1 -0.26,-0.16 -2.61,-0.56 -4.7,-1.54 -7.58,-2.09 -2.95,-0.55 -5.68,-0.8 -8.6,-0.81 -7.32,-0.03 -9.95,1.06 -16.24,2.48z"/>
   <path class="fil1" d="M511.35 139.58c-0.23,0.73 0.57,0.46 -0.97,0.72 -0.47,1.2 -1.84,2.25 -2.82,3.83 -0.89,1.42 -1.47,2.8 -1.83,4.45 -1.11,5.07 0.15,6.51 1.46,10.42 1.22,1.34 2,3 3.22,4.26 0.79,0.82 2.72,2.36 3.91,3.18 3.48,2.41 6.23,3.27 9.55,5.04 11.43,4.02 25.07,6.31 38.93,5.3 12.26,-0.89 21.43,-2.04 32.33,-7.03 1.47,-0.67 2.38,-1.52 3.82,-2.04l4.21 -3.31c4.11,-3.24 6.81,-8.96 6.12,-14.93 -1.02,-7.94 -10.09,-14.03 -17.31,-16.74 -1.46,-0.39 -4.01,-1.29 -5.11,-1.93 -1.44,0.16 -1.13,0.54 -1.94,2.01 -0.51,0.94 -1.03,1.75 -1.57,2.6 -0.74,1.17 -2.35,4.33 -3.14,4.85l-0.7 1.93c3.4,0.73 12,3.21 13.3,5.23 3.02,1.15 5.2,4.82 2.02,7.84 -1.5,1.42 -5.68,3.52 -8.3,4.2 -3.49,2.11 -19.69,4.61 -24.69,4.57l-1.25 0.03c-4.23,0.31 -9.17,-0.07 -13.3,-0.48 -4.17,-0.41 -8.23,-1.38 -12.22,-1.98 -4.68,-1.12 -9.19,-2.59 -12.76,-4.79 -1.73,-1.07 -3.89,-2.32 -3.77,-5.26 0.1,-2.35 2.49,-4.12 4.23,-4.73 1.7,-1.08 3.77,-1.94 6.06,-2.75 1.51,-0.54 5.64,-1.51 6.49,-2.14 -1.76,-3.61 -4.58,-7.6 -6.47,-11.3 -3.55,0.91 -6.43,2.28 -9.62,3.82 -3.71,1.79 -5.05,3 -7.89,5.13z"/>
  </g>
 </g>
</svg>
